<?xml version="1.0" encoding="UTF-8"?><svg id="Layer_2" xmlns="http://www.w3.org/2000/svg" viewBox="0 0 125.27 103.06"><defs><style>.cls-1{fill:#ffcd05;}</style></defs><g id="Layer_1-2"><path class="cls-1" d="M117.86,58.86c.48,.85,1.09,1.73,1.5,2.69,2.1,4.86,1.17,9.25-2.15,13.24-1.18,1.42-2.64,2.53-4.25,3.43-.08,.05-.17,.1-.25,.14,.24,.6,.52,1.17,.71,1.77,1.55,4.94-.53,10.03-5.12,12.61-2.09,1.17-4.35,1.81-6.7,2.11-3.62,.48-7.23,.39-10.79-.5-.33-.08-.66-.18-1.03-.27-.25,.65-.27,1.31-.2,1.98,.11,1.08,.45,2.08,.96,3.04,.5,.93,.27,1.74-.64,2.24-2.07,1.14-4.27,1.8-6.66,1.7-1.67-.07-3.24-.5-4.69-1.37-.63-.38-.92-.91-.87-1.65,.28-3.96-1.14-7.28-3.82-10.13-.18-.19-.36-.27-.64-.26-2.15,.08-4.22-.26-6.1-1.36-2.6-1.52-4.08-3.85-4.76-6.71-.16-.66-.38-1.06-1.03-1.36-1.58-.75-2.72-2-3.58-3.5-.11-.19-.21-.39-.33-.6-.42,.19-.82,.38-1.23,.56-3.15,1.36-6.44,2.06-9.86,2.23-3.29,.17-6.54-.12-9.66-1.22-5.97-2.11-9.54-6.34-10.82-12.52-.26-1.24-.33-2.51-.24-3.78,0-.15,0-.29,0-.43-.73,.19-1.44,.43-2.17,.55-3.99,.64-7.62-.16-10.74-2.82-1.44-1.23-2.37-2.8-2.84-4.64-.07-.27-.19-.39-.46-.48-5.23-1.82-8.33-5.46-9.19-10.94-.53-3.37,.07-6.56,1.82-9.5,1.78-2.99,4.36-5.01,7.65-6.13,.2-.07,.3-.12,.29-.37-.28-6.39,2.22-11.43,7.39-15.14,3.19-2.29,6.79-3.55,10.7-3.91,2.88-.27,5.71-.04,8.51,.68,.21,.05,.33,.01,.47-.15,3.68-4.21,8.37-6.61,13.82-7.61,2.94-.54,5.9-.68,8.88-.29,4.07,.54,7.72,2.04,10.73,4.91,.17,.16,.28,.2,.5,.08,3.41-1.92,7.1-2.76,10.99-2.65,4.16,.12,8.09,1.12,11.67,3.29,3.18,1.93,5.55,4.61,7.26,7.9,.09,.17,.14,.32,.4,.26,2.2-.49,4.35-.24,6.46,.44,3.67,1.18,6.58,3.36,8.55,6.71,1.56,2.66,2.09,5.55,1.88,8.61-.01,.16,.01,.33-.03,.48-.24,.77,.12,1.23,.67,1.76,3.17,3.06,5.46,6.66,6.21,11.05,.94,5.49-.56,10.26-4.71,14.08-.73,.67-1.63,1.16-2.44,1.72Zm-51.89-27.21c.59-1.12,1.13-2.23,1.74-3.31,.46-.82,1.38-1.04,2.12-.57,.73,.46,.9,1.34,.43,2.13-1.13,1.89-1.95,3.91-2.22,6.11-.21,1.75,0,3.43,.93,4.97,.32,.54,.68,1.02,1.38,1.07,.05,0,.09,.03,.14,.04,3.62,1.12,6.39,3.27,8.06,6.74,.02,.04,.06,.07,.1,.11,.1-.09,.19-.18,.28-.26,3.79-3.51,8.26-5.2,13.43-5,.15,0,.32-.04,.45-.1,3.04-1.41,4.88-4.89,4.37-8.28-.13-.9,.39-1.65,1.24-1.78,.86-.13,1.6,.43,1.72,1.32,.47,3.55-.56,6.62-2.96,9.25-.08,.08-.15,.17-.25,.28,.12,.04,.18,.06,.25,.08,1.46,.41,2.87,.94,4.2,1.67,3.1,1.72,5.33,4.17,6.42,7.59,.09,.29,.23,.33,.56,.13,1.09-.67,2.12-1.43,2.99-2.38,1.08-1.19,1.96-2.48,2.11-4.16,.07-.74,.72-1.26,1.45-1.27,.76,0,1.41,.5,1.5,1.25,.04,.37,0,.76-.08,1.13-.43,2.12-1.57,3.84-3.05,5.37-.31,.33-.58,.69-.84,1.01,.31,.14,.75,.33,1.18,.55,.43,.23,.87,.47,1.26,.76,.31,.24,.61,.26,.96,.16,.82-.22,1.56-.6,2.2-1.15,3.4-2.9,4.71-6.66,4.09-10.98-.66-4.59-3.07-8.26-6.74-11.06-1.71-1.31-3.69-1.91-5.87-1.75-.14,.01-.28,.04-.41,.06,.09,.7,.19,1.35,.25,2.01,.19,2.14,.07,4.28-.37,6.38-.29,1.4-.67,2.79-1.12,4.15-.34,1.06-1.7,1.31-2.47,.51-.47-.49-.5-1.06-.29-1.68,1.16-3.42,1.67-6.92,1.07-10.52-.69-4.11-2.89-7.16-6.61-9.08-2.62-1.35-5.42-1.68-8.31-1.31-1.68,.21-3.29,.68-4.77,1.52-.2,.11-.24,.22-.17,.44,1.13,3.78,.64,7.43-.95,10.98-.38,.85-1.23,1.19-2,.84-.79-.35-1.09-1.22-.73-2.08,.27-.66,.55-1.31,.75-1.99,1.04-3.56,.7-6.93-1.49-10-1.63-2.29-3.86-3.79-6.46-4.75-3.75-1.39-7.55-1.41-11.36-.32-2.99,.86-5.74,2.18-8.01,4.36-2.08,1.99-3.21,4.43-3.34,7.31-.09,2.04,.27,4.01,1.05,5.9,.22,.55,.18,1.06-.17,1.53-.7,.92-2.11,.77-2.56-.32-1.69-4.16-1.92-8.33-.02-12.5,.09-.19,.1-.31-.07-.47-2.74-2.55-5.97-3.92-9.7-4.07-2.94-.12-5.75,.51-8.35,1.89-5.57,2.96-8.46,7.58-8.38,13.92,.04,3.44,1.08,6.61,2.82,9.57,.15,.25,.28,.53,.32,.81,.1,.69-.33,1.33-.98,1.56-.66,.24-1.4-.01-1.79-.65-2.07-3.35-3.25-6.99-3.35-10.92-.03-1.02-.38-1.68-1.1-2.31-1.65-1.44-3.5-2.45-5.7-2.69-2.87-.31-5.41,.54-7.6,2.35-3.1,2.56-4.44,5.9-4.06,9.89,.28,2.91,1.44,5.38,3.77,7.24,.81,.65,1.7,1.15,2.7,1.55,.02-.18,.04-.32,.06-.47,.33-2.77,1.37-5.21,3.45-7.14,1.37-1.27,2.96-2.14,4.82-2.44,.87-.14,1.62,.4,1.75,1.19,.14,.85-.38,1.57-1.24,1.76-1.89,.41-3.38,1.43-4.44,3.04-1.14,1.73-1.53,3.66-1.42,5.69,.12,2.06,1.09,3.67,2.75,4.86,2.13,1.52,4.52,2.02,7.1,1.71,1.41-.17,2.72-.64,3.86-1.51,.15-.11,.29-.28,.36-.45,1.81-4.34,5.04-7.04,9.54-8.27,.33-.09,.67-.16,.93-.22-.57-.87-1.2-1.7-1.68-2.6-1.23-2.35-1.36-4.86-.85-7.42,.04-.22,.02-.35-.15-.51-.9-.8-1.62-1.74-2.16-2.82-.52-1.04-.94-2.11-.96-3.29-.01-.77,.61-1.38,1.41-1.43,.75-.05,1.46,.5,1.55,1.24,.1,.86,.39,1.64,.82,2.38,.18,.31,.4,.6,.62,.93,.24-.47,.43-.88,.65-1.27,.17-.31,.35-.62,.55-.92,.49-.73,1.39-.92,2.1-.47,.69,.45,.88,1.34,.43,2.08-.82,1.31-1.43,2.71-1.79,4.22-.44,1.79-.49,3.57,.2,5.32,.75,1.89,2.14,3.21,3.82,4.25,.31,.19,.69,.3,1.05,.41,.6,.18,1.21,.31,1.81,.5,.63,.2,1.24,.45,1.88,.69,.18-.29,.34-.59,.53-.88,1.8-2.84,4.41-4.64,7.52-5.76,3.53-1.27,7.19-1.65,10.91-1.56,.13,0,.26,0,.39,0,0-.05,.02-.07,.01-.09-.79-1.94-.9-3.95-.6-6.01,.01-.1-.06-.26-.15-.33-1.93-1.59-3.03-3.67-3.62-6.05-.21-.85,.27-1.66,1.08-1.86,.82-.21,1.61,.31,1.84,1.17,.14,.52,.31,1.04,.51,1.54,.3,.74,.7,1.43,1.21,2.01Zm42.4,25.33c.06,1.79-.15,3.49-.71,5.14-.52,1.54-1.24,2.97-2.48,4.08-.68,.61-1.61,.58-2.17-.06-.57-.65-.48-1.52,.16-2.17,.36-.36,.68-.78,.94-1.21,.56-.95,.87-1.99,1.08-3.07,.81-4.11-.8-8.11-4.33-10.35-3.49-2.22-7.36-3.02-11.46-2.52-3.85,.48-7,2.3-9.53,5.22-.15,.17-.2,.32-.16,.56,.33,1.93,.34,3.86,.02,5.79-.26,1.54-.66,3.02-1.51,4.35-.48,.76-1.37,.97-2.08,.53-.73-.45-.91-1.35-.46-2.13,.22-.39,.44-.8,.58-1.22,.74-2.14,.88-4.34,.54-6.58-.3-2-1.03-3.81-2.36-5.35-1.65-1.91-3.81-2.88-6.23-3.37-2.35-.47-4.71-.43-7.08-.19-2.28,.23-4.51,.67-6.63,1.6-3.2,1.4-5.41,3.69-6.37,7.08-.67,2.36-.71,4.77-.51,7.2,.07,.86,.2,1.72,.17,2.57-.12,2.98-3.03,4.93-5.81,3.89-1.74-.65-2.95-1.91-3.72-3.58-.06-.13-.09-.28-.11-.43-.07-.75,.37-1.39,1.08-1.59,.7-.2,1.42,.12,1.75,.8,.41,.85,1,1.51,1.86,1.92,.93,.45,1.88-.08,1.94-1.11,.03-.57-.05-1.15-.1-1.72-.21-2.18-.25-4.37,.1-6.54,.12-.73,.28-1.46,.42-2.21-.14-.07-.28-.14-.42-.2-2.13-.92-4.34-1.34-6.65-1-3.37,.5-6.07,2.12-7.9,5.04-1.4,2.22-1.84,4.69-1.59,7.28,.28,3.03,1.44,5.69,3.5,7.94,2.17,2.35,4.92,3.6,8.03,4.15,3.18,.56,6.36,.51,9.53-.03,2.52-.43,4.94-1.16,7.18-2.44,1.32-.76,2.51-1.69,3.4-2.94,.08-.12,.14-.33,.09-.46-.73-1.95-1.08-3.97-1.14-6.05,0-.12-.11-.3-.22-.35-2.05-.94-3.47-2.54-4.54-4.47-.46-.82-.21-1.72,.55-2.13,.78-.42,1.61-.12,2.09,.7,.3,.51,.62,1.01,.99,1.46,.38,.46,.83,.85,1.31,1.32,.04-.2,.06-.28,.08-.36,.28-1.1,.52-2.22,.85-3.31,.26-.83,1.12-1.21,1.89-.93,.81,.29,1.2,1.1,.91,1.94-.91,2.63-1.13,5.33-.74,8.07,.66,4.53,3.03,7.82,7.21,9.77,2.08,.97,4.29,1.47,6.56,1.72,2.68,.3,5.35,.31,7.98-.34,2.17-.54,4.1-1.5,5.6-3.21,2.8-3.18,3.37-8.39,1.34-12.12-.44-.8-.21-1.69,.53-2.11,.76-.43,1.65-.15,2.1,.67,.14,.26,.29,.52,.4,.79,.28,.71,.53,1.43,.81,2.19,.41-.75,.69-1.53,.81-2.36,.13-.88,.87-1.44,1.73-1.31,.82,.12,1.37,.89,1.23,1.76-.37,2.34-1.42,4.32-3.18,5.91-.19,.17-.27,.35-.3,.6-.06,.56-.12,1.12-.21,1.68-.26,1.53-.8,2.96-1.57,4.32,.11,.13,.21,.25,.31,.37,1.05,1.16,2.34,1.98,3.79,2.54,3.03,1.18,6.16,1.42,9.35,.85,3.11-.55,5.82-1.91,7.95-4.29,1.53-1.7,2.51-3.67,2.61-5.99,.17-3.94-2.36-7.83-6.01-9.31-.97-.39-1.98-.61-3.08-.65Zm-6.2-40.14c.1,.41,.2,.73,.26,1.05,.16,.86-.31,1.62-1.12,1.8-.84,.18-1.58-.3-1.81-1.15-1.06-3.96-3.2-7.22-6.59-9.51-5.01-3.39-10.54-4.23-16.4-2.86-1.37,.32-2.66,.85-3.91,1.55,.07,.13,.14,.25,.2,.37,.44,.81,.24,1.7-.49,2.12-.76,.44-1.63,.17-2.11-.62-.23-.38-.47-.75-.75-1.09-2.14-2.64-4.95-4.16-8.21-4.93-2.78-.66-5.6-.67-8.42-.31-3.81,.49-7.33,1.72-10.43,4.02-2.38,1.77-4.32,3.92-5.6,6.63-.1,.2-.26,.39-.44,.53-.56,.44-1.29,.42-1.84-.01-.52-.41-.72-1.12-.44-1.76,.25-.56,.54-1.1,.82-1.66-.08-.02-.16-.06-.24-.07-.77-.11-1.53-.24-2.3-.31-3.96-.36-7.75,.22-11.28,2.11-4.62,2.47-7.51,6.19-8.09,11.51-.08,.7-.01,1.41-.01,2.14,3.4-.15,6.36,.96,8.93,3.04,.46-1.31,.92-2.6,1.39-3.93-.02-.02-.09-.06-.15-.12-.71-.71-1.46-1.38-2.12-2.14-.65-.75-.36-1.84,.51-2.27,.64-.31,1.35-.13,1.85,.44,.48,.55,.99,1.07,1.51,1.63,2.95-3.8,6.7-6.18,11.28-7.25,4.59-1.08,8.99-.59,13.17,1.65,.02-.05,.04-.07,.04-.09,0-.15-.02-.29-.04-.44-.17-1.56-.06-3.09,.4-4.59,.1-.32,.31-.65,.56-.87,.48-.43,1.23-.42,1.75-.05,.54,.38,.77,1.02,.57,1.69-.51,1.73-.5,3.46,.04,5.19,.13,.42,.32,.83,.48,1.24,.65-.6,1.21-1.19,1.85-1.68,5.61-4.28,11.89-5.94,18.85-4.56,4.08,.81,7.51,2.82,10.13,6.11,.04,.05,.05,.13,.08,.2,.41-1.31,.49-2.55,.34-3.8-.06-.5,.01-.96,.36-1.34,.42-.46,.95-.6,1.54-.43,.66,.19,1.03,.68,1.07,1.35,.05,.89,.07,1.79,.05,2.68-.02,.58-.13,1.16-.21,1.75,.12-.03,.21-.06,.3-.09,2.79-.92,5.64-1.21,8.54-.72,5.62,.96,9.71,3.95,12.05,9.22,.1,.23,.19,.32,.46,.27,2.17-.35,4.25,0,6.26,.87,.11,.05,.22,.09,.36,.15,.16-3.93-1.02-7.28-4.06-9.8-2.57-2.13-5.52-3.16-8.95-2.82Zm-15.25,76.2c-.11-.06-.19-.11-.27-.14-1.66-.76-3.2-1.72-4.61-2.87-1.22-1-2.34-2.1-3.23-3.41-.5-.73-.33-1.65,.36-2.12,.7-.47,1.59-.3,2.11,.42,.14,.2,.28,.4,.44,.59,2.42,2.9,5.52,4.72,9.11,5.75,3.83,1.1,7.71,1.13,11.6,.42,2-.36,3.89-1.04,5.52-2.29,3.28-2.52,3.54-6.62,2.22-9.3-.26-.54-.27-.53-.85-.36-.13,.04-.26,.08-.39,.11-2.77,.75-5.58,.83-8.4,.41-2.41-.36-4.69-1.09-6.71-2.48-.79-.54-1.52-1.19-2.29-1.81,.03-.01,0,0-.01,0-2.46,2.43-5.49,3.59-8.85,4.03-3.59,.46-7.14,.17-10.64-.69-2.9-.71-5.57-1.93-7.78-3.99-.83-.77-1.55-1.66-2.31-2.49-.57,.49-1.19,1.02-1.8,1.57-.06,.05-.07,.22-.03,.31,.43,.97,1.05,1.8,1.91,2.43,1.01,.75,2.15,1.03,3.39,1.07,.72,.02,1.26,.54,1.39,1.25,.12,.65-.24,1.31-.86,1.59-.18,.08-.37,.12-.55,.18,0,.03-.01,.05,0,.07,.86,3.18,3.34,5.16,6.62,5.33,1.19,.06,2.35-.08,3.52-.25,1.15-.17,2.06,.97,1.58,2.02-.17,.37-.08,.55,.13,.82,2.27,2.91,3.5,6.19,3.48,9.91,0,.26,.08,.37,.31,.45,1.6,.59,3.22,.61,4.85,.17,.48-.13,.94-.3,1.43-.46-.78-2.08-1.04-4.13-.37-6.25Z"/></g></svg>