<?xml version="1.0" encoding="UTF-8"?><svg id="Layer_2" xmlns="http://www.w3.org/2000/svg" viewBox="0 0 280.15 47.35"><defs><style>.cls-1{fill:#fff;}.cls-2{fill:#ffe400;}.cls-3{fill:#020202;}.cls-4{fill:#e63438;}.cls-5{fill:none;}.cls-6{fill:#010101;}</style></defs><g id="Layer_2-2"><g id="Layer_1-2"><path id="Text" class="cls-1" d="m277.85,8.22l.07,5.5s-.67.17-.88.23c-.2-2.4-.74-4.37-4.59-4.37h-5.17v10.17h4.44c2.18,0,2.77-1.22,3.01-3.32h.88v8.5h-.88c-.14-2.02-.62-3.6-3-3.6h-4.45v8.93c0,2.6,2.24,2.6,4.6,2.6,4.25,0,6.22-.27,7.4-4.56.17.04.87.19.87.19l-1.19,5.73h-19.3v-.95h.37c1.48,0,2.85-.28,2.85-2.3V11.47c0-2.02-1.37-2.3-2.85-2.3h-.37v-.95h18.19Zm-105.16,0h-11.64v.95h.51c.96,0,2.74,0,2.74,3.01v18.9c0,1.61-1.48,2.18-2.74,2.18h-.51v.95h11.3v-.95h-.52c-1.84,0-3.14-.23-3.14-3.16v-8.1h2.87l7.74,12.21h6.65v-.97c-1.75-.1-2.59-.7-3.61-2.28l-6.38-9.71.17-.07c2.27-.92,5.16-2.79,5.16-6.49,0-4.36-2.86-6.48-8.61-6.48h.01Zm-1.48,1.06c3.33,0,5.54,2.22,5.54,5.65,0,4.22-1.78,6.03-5.83,6.03h-2.22v-11.51c.74-.12,1.74-.16,2.52-.16h0Zm27.19-1.06h-10.86v.95h.37c1.48,0,2.85.28,2.85,2.3v19.5c0,2.02-1.37,2.3-2.85,2.3h-.37v.95h10.86v-.95h-.37c-1.48,0-2.85-.28-2.85-2.3V11.47c0-2.02,1.37-2.3,2.85-2.3h.37v-.95h0ZM49.67,21.2c0,8.76,5.35,13.71,13.73,13.71,4.12,0,7.75-1.62,10.09-4.65l-.68-1.27c-2.08,2.68-4.84,4.13-8.71,4.13-6.88,0-9.73-6.07-9.73-12.49,0-7.21,3.52-11.69,9.17-11.69s7.14,3.19,8.12,6.68l.85-.11-.28-6.02c-2.71-1.27-5.48-1.87-8.81-1.87-3.71,0-7,1.26-9.5,3.51-2.7,2.42-4.27,6.21-4.27,10.08h.02Zm56.06-7.95s9.31,20.94,9.4,21.15h.78c.09-.21,8.99-21.57,8.99-21.57l.79,16.62.04,1.86c0,1.77-1.27,1.84-3.03,1.94h-.07v.94h10.79v-.94c-1.99-.07-3.05-.26-3.2-2.27l-1.01-17.24c-.22-3.67.3-4.58,3.22-4.58h.14v-.96h-7.21c-.09.21-8.35,19.71-8.35,19.71,0,0-8.74-19.49-8.83-19.7h-7.36v.95h.3c2.07,0,3.29,1.27,3.16,3.51l-1.02,16.44c-.14,2.4-.32,4.04-3.27,4.16h-.33v.94h8.76v-.94h-.22c-2.39-.09-3.49-.4-3.33-3.96l.86-16.06h0Zm108.97,20.96c3.61,0,7.17-.86,9.71-3.38,2.53-2.51,3.98-6.04,3.98-9.68,0-3.9-1.32-7.18-3.81-9.5-2.53-2.35-6.15-3.44-10.47-3.44h-11.62v.96h.37c1.48,0,2.85.28,2.85,2.3v19.5c0,2.02-1.37,2.3-2.85,2.3h-.37v.95h12.21,0Zm-1.93-24.87c7.31,0,10.87,3.92,10.87,12.54,0,5.54-2.99,11.2-9.56,11.2-2.79,0-3.95-.45-3.95-3.2V9.47c.62-.06,2-.12,2.64-.12h0Zm37.75,23.54c-.97.44-2.62.69-4.21.65-6.9,0-9.99-6.53-9.99-13.11,0-7.17,3.66-11.62,9.7-11.62,4.48,0,6.47,1.75,7.55,6.22l.87-.05-.41-6.21c-2.01-.67-5.18-1.29-8.26-1.29-6.88,0-14.2,4.17-14.2,13.33,0,8.61,5.55,14.17,14.13,14.17,3.56,0,6.76-.61,9.14-1.37v-7.09c0-1.39.74-2.13,2.14-2.13h.3v-.93h-9.99v.93h.3c1.92,0,2.93.74,2.93,2.13v6.37h0Zm-103.26-12.13c4.07,0,6.5,2.27,6.5,6.26,0,3.55-2.39,6.16-5.56,6.16-2.64,0-3.45-.73-3.45-3.27v-9.15h2.51Zm-.14-11.58c3.42,0,5.16,1.71,5.16,5.38,0,3.32-1.97,5.06-5.55,5.06h-1.96v-10.44s2.35,0,2.35,0Zm2.97,10.89c3.19-.52,6.81-2.04,6.81-6.16,0-3.72-2.98-5.68-8.4-5.68h-11.54v.96h.51c.95,0,2.74,0,2.74,3.01v18.86c0,1.61-1.48,2.22-2.74,2.22h-.51v.94h12.74c4.86,0,8.6-3.27,8.6-7.35,0-1.71-.6-3.18-1.73-4.34-1.46-1.5-3.21-2.22-6.48-2.46h0Zm-63.1-11.84l8.47,22.56c.63,1.78,1.55,2.49,2.89,2.49h.08v.96h-10.07v-.96h.23c1.96,0,2.72-.82,2.14-2.62l-2.05-5.71h-8.19l-1.89,5.24c-.83,2.46.47,3.07,2.37,3.07h.34v.98h-7.91v-.98h.09c1.6,0,2.68-.98,3.29-2.58l8.25-22.44h1.96Zm-6.05,15.43h7.27l-3.63-10.13-3.64,10.13Z"/><g id="Shield"><path id="Shield_Border" class="cls-3" d="m0,0v24.62c0,12.11,6.36,15.56,9.41,17.22.56.3,9.99,4.99,10.59,5.29l.41.22.41-.22c.55-.27,10.03-4.99,10.59-5.29,3.06-1.66,9.41-5.12,9.41-17.22V0H0Z"/><path id="White_cross" class="cls-1" d="m20.41,46.36s1.94-.96,4.15-2.07v-19.41h15.38v-8.31h-15.38V.88h-8.31v15.69H.88v8.05h0v.26h15.38v19.41c2.22,1.1,4.15,2.07,4.15,2.07Z"/><g id="Red_quadrants"><rect class="cls-4" x=".88" y=".89" width="15.38" height="15.69"/><rect class="cls-4" x="24.57" y=".89" width="15.38" height="15.69"/><path class="cls-4" d="m16.26,24.89H.88c.09,11.25,5.86,14.51,8.95,16.19.31.17,3.6,1.81,6.43,3.22v-19.41Z"/><path class="cls-4" d="m24.57,24.89v19.41c2.83-1.41,6.11-3.05,6.43-3.22,3.09-1.68,8.86-4.94,8.95-16.19,0,0-15.38,0-15.38,0Z"/></g><g id="Ermine_tales"><path class="cls-6" d="m30.09,20.9l.32-.38-.4-.48-.4.48.32.38c0,.19.02,1.85-.96,2.45,0,0,.33.06.77-.02,0,0,.08.43.28.93.21-.49.28-.93.28-.93.44.08.77.02.77.02-.98-.59-.97-2.26-.96-2.45h-.02Z"/><path class="cls-6" d="m32.6,18.07l.32-.38-.4-.48-.4.48.32.38c0,.19.02,1.85-.96,2.45,0,0,.33.06.77-.02,0,0,.08.43.28.93.21-.5.28-.93.28-.93.44.08.77.02.77.02-.98-.59-.97-2.26-.96-2.45h-.02Z"/><path class="cls-6" d="m35.1,20.9l.32-.38-.4-.48-.4.48.32.38c0,.19.02,1.85-.96,2.45,0,0,.33.06.77-.02,0,0,.08.43.28.93.21-.49.28-.93.28-.93.44.08.77.02.77.02-.98-.59-.97-2.26-.96-2.45h-.02Z"/><path class="cls-6" d="m37.61,18.07l.32-.38-.4-.48-.4.48.32.38c0,.19.02,1.85-.96,2.45,0,0,.33.06.77-.02,0,0,.08.43.28.93.21-.5.28-.93.28-.93.44.08.77.02.77.02-.98-.59-.97-2.26-.96-2.45h-.02Z"/><path class="cls-6" d="m27.59,18.07l.32-.38-.4-.48-.4.48.32.38c0,.19.02,1.85-.96,2.45,0,0,.33.06.77-.02,0,0,.08.43.28.93.21-.5.28-.93.28-.93.44.08.77.02.77.02-.98-.59-.97-2.26-.96-2.45h-.02Z"/><path class="cls-6" d="m5.89,20.9l.32-.38-.4-.48-.4.48.32.38c0,.19.02,1.85-.96,2.45,0,0,.33.06.77-.02,0,0,.08.43.28.93.21-.49.28-.93.28-.93.44.08.77.02.77.02-.98-.59-.97-2.26-.96-2.45h-.02Z"/><path class="cls-6" d="m8.4,18.07l.32-.38-.4-.48-.4.48.32.38c0,.19.02,1.85-.97,2.45,0,0,.33.06.77-.02,0,0,.08.43.28.93.21-.5.28-.93.28-.93.44.08.77.02.77.02-.98-.59-.97-2.26-.96-2.45h0Z"/><path class="cls-6" d="m10.9,20.9l.32-.38-.4-.48-.4.48.32.38c0,.19.02,1.85-.96,2.45,0,0,.33.06.77-.02,0,0,.08.43.28.93.21-.49.28-.93.28-.93.44.08.77.02.77.02-.98-.59-.97-2.26-.96-2.45h-.02Z"/><path class="cls-6" d="m13.4,18.07l.32-.38-.4-.48-.4.48.32.38c0,.19.02,1.85-.96,2.45,0,0,.33.06.77-.02,0,0,.08.43.28.93.21-.5.28-.93.28-.93.44.08.77.02.77.02-.98-.59-.97-2.26-.96-2.45h-.02Z"/><path class="cls-6" d="m3.39,18.07l.32-.38-.4-.48-.4.48.32.38c0,.19.02,1.85-.96,2.45,0,0,.33.06.77-.02,0,0,.08.43.28.93.21-.5.28-.93.28-.93.44.08.77.02.77.02-.98-.59-.97-2.26-.96-2.45h-.02Z"/><path class="cls-6" d="m20.5,27.23l.32-.38-.4-.48-.4.48.32.38c0,.19.02,1.85-.97,2.45,0,0,.33.06.77-.02,0,0,.08.43.28.93.21-.5.28-.93.28-.93.44.08.77.02.77.02-.98-.59-.97-2.26-.96-2.45h-.01Z"/><path class="cls-6" d="m20.5,35.73l.32-.38-.4-.48-.4.48.32.38c0,.19.02,1.85-.97,2.45,0,0,.33.06.77-.02,0,0,.08.43.28.93.21-.5.28-.93.28-.93.44.08.77.02.77.02-.98-.59-.97-2.26-.96-2.45h-.01Z"/><path class="cls-6" d="m22.83,31.48l.32-.38-.4-.48-.4.48.32.38c0,.19.02,1.85-.96,2.45,0,0,.33.06.77-.02,0,0,.08.43.28.93.21-.5.28-.93.28-.93.44.08.77.02.77.02-.98-.59-.97-2.26-.96-2.45h-.02Z"/><path class="cls-6" d="m18.16,31.48l.32-.38-.4-.48-.4.48.32.38c0,.19.02,1.85-.96,2.45,0,0,.33.06.77-.02,0,0,.08.43.28.93.21-.5.28-.93.28-.93.44.08.77.02.77.02-.98-.59-.97-2.26-.96-2.45h-.02Z"/><path class="cls-6" d="m22.83,39.98l.32-.38-.4-.48-.4.48.32.38c0,.19.02,1.85-.96,2.45,0,0,.33.06.77-.02,0,0,.08.43.28.93.21-.5.28-.93.28-.93.44.08.77.02.77.02-.98-.59-.97-2.26-.96-2.45h-.02Z"/><path class="cls-6" d="m18.16,39.98l.32-.38-.4-.48-.4.48.32.38c0,.19.02,1.85-.96,2.45,0,0,.33.06.77-.02,0,0,.08.43.28.93.21-.5.28-.93.28-.93.44.08.77.02.77.02-.98-.59-.97-2.26-.96-2.45h-.02Z"/><path class="cls-6" d="m20.5,7.48l.32-.38-.4-.48-.4.48.32.38c0,.19.02,1.85-.97,2.45,0,0,.33.06.77-.02,0,0,.08.43.28.93.21-.5.28-.93.28-.93.44.08.77.02.77.02-.98-.6-.97-2.26-.96-2.45h-.01Z"/><path class="cls-6" d="m22.83,3.23l.32-.38-.4-.48-.4.48.32.38c0,.19.02,1.85-.96,2.45,0,0,.33.06.77-.02,0,0,.08.43.28.93.21-.5.28-.93.28-.93.44.08.77.02.77.02-.98-.6-.97-2.26-.96-2.45h-.02Z"/><path class="cls-6" d="m18.16,3.23l.32-.38-.4-.48-.4.48.32.38c0,.19.02,1.85-.96,2.45,0,0,.33.06.77-.02,0,0,.08.43.28.93.21-.5.28-.93.28-.93.44.08.77.02.77.02-.98-.6-.97-2.26-.96-2.45h-.02Z"/><path class="cls-6" d="m22.83,11.73l.32-.38-.4-.48-.4.48.32.38c0,.19.02,1.85-.96,2.45,0,0,.33.06.77-.02,0,0,.08.43.28.93.21-.49.28-.93.28-.93.44.08.77.02.77.02-.98-.6-.97-2.26-.96-2.45h-.02Z"/><path class="cls-6" d="m18.16,11.73l.32-.38-.4-.48-.4.48.32.38c0,.19.02,1.85-.96,2.45,0,0,.33.06.77-.02,0,0,.08.43.28.93.21-.49.28-.93.28-.93.44.08.77.02.77.02-.98-.6-.97-2.26-.96-2.45h-.02Z"/></g><g id="Lions_guardant"><g id="Lion_bottom_right"><path class="cls-6" d="m35.87,33.05c.23.3.55.5.81.5.08,0,.22-.02.35-.05.07-.02.13-.03.17-.03.06,0,.09.02.09.08,0,.04-.03.16-.07.24-.04.1-.07.18-.08.23l-.05.27-.13.23-.18.17-.05.05v.18c0,.32-.09.5-.35.67-.02.01-.05.03-.09.06l-.03.11c-.06.24-.1.39-.13.45-.03.07-.12.19-.25.37-.16.21-.26.37-.33.53-.05.13-.09.17-.18.17-.13,0-.26-.16-.28-.35-.03.04-.05.07-.07.08l-.16.1-.25.17c-.11.08-.18.13-.21.16l-.14.14s-.05.04-.07.04c-.07,0-.13-.11-.2-.33l-.13-.43c-.04-.12-.05-.26-.05-.42,0-.22,0-.29.09-.47-.26.03-.33.04-.47.09-.04.01-.09.03-.11.03-.04,0-.07-.03-.07-.08,0-.03.02-.12.05-.19l.17-.44c.13-.34.56-.66.89-.66.08,0,.19.02.33.07.09.03.15.04.2.04.15,0,.27-.11.27-.25,0-.07-.05-.14-.1-.17-.02-.01-.18-.06-.47-.14-.22-.06-.33-.15-.57-.43-.18-.21-.25-.26-.31-.26-.05,0-.08.03-.08.09v.17l.02.08c0,.36-.11.71-.37,1.18l-.37.66c-.17.32-.25.56-.25.8,0,.26.11.49.26.53l.2.05s.05.02.06.04c.03.03.04.05.04.07,0,.03-.02.07-.07.12-.02.03-.1.13-.24.3-.22.29-.37.4-.64.48-.16.38-.41.6-.87.76l-.05.09c-.16.27-.5.52-.72.52h-.05c-.03.24-.2.49-.46.67-.18.12-.28.2-.3.22-.02.02-.04.06-.06.12-.06.13-.11.18-.19.18-.14,0-.25-.13-.33-.38-.05.03-.09.06-.12.08-.15.11-.23.16-.25.17-.06.03-.21.07-.46.13-.32.07-.6.21-.67.33l-.12.19-.05.02c-.06,0-.14-.09-.17-.2-.07-.27-.12-.55-.12-.73,0-.46.15-.76.63-1.24v-.11c0-.72.55-1.21,1.36-1.21h.13l.44.03h.04c.24,0,.46-.09.7-.29.32-.26.41-.42.41-.71,0-.09-.03-.2-.13-.53-.06-.22-.1-.42-.1-.61,0-.54.39-1.21.93-1.58.14-.1.24-.22.24-.3,0-.03-.02-.05-.04-.05-.03,0-.09.04-.17.1-.06.06-.17.12-.31.2l-.21.1-.23.09c-.07.03-.11.07-.11.12,0,.03.01.07.03.12.02.04.03.08.03.1,0,.03-.02.08-.07.15l-.18.3c-.18.29-.31.42-.54.52-.15.43-.36.65-.66.69-.25.5-.46.67-.9.72-.06.19-.17.35-.39.6-.09.1-.15.17-.17.21-.1.18-.11.19-.16.19-.06,0-.2-.09-.3-.19-.05-.05-.09-.1-.12-.16l-.12-.21c-.04-.07-.08-.1-.13-.1h-.08l-.29.05c-.18.02-.44.17-.52.3l-.16.24s-.04.04-.06.04c-.12,0-.19-.26-.19-.68,0-.37.06-.62.19-.8l.36-.51c.05-.07.08-.14.08-.2s-.02-.12-.06-.17c-.08-.09-.15-.15-.21-.16l-.27-.04s-.07-.02-.07-.04.01-.05.04-.09c.09-.11.2-.21.33-.29.32-.2.54-.28.75-.28s.46.08.68.22l.38.25s.12.05.18.05c.17,0,.31-.1.43-.34.12-.23.17-.41.17-.6,0-.49-.35-.84-.84-.84-.23,0-.46.09-.68.26-.07.05-.11.1-.13.14l-.1.24c-.02.06-.06.09-.09.09-.07,0-.21-.19-.34-.43-.06-.13-.13-.28-.18-.47-.08-.25-.11-.45-.11-.65l.02-.35c-.18-.28-.24-.48-.24-.81,0-.12.02-.21.09-.46-.11-.18-.14-.32-.14-.58v-.16l.05-.18.03-.16c-.13-.16-.16-.27-.29-.85-.07-.32-.11-.46-.17-.55-.03-.04-.04-.06-.04-.08,0-.08.18-.14.39-.14h.18c-.05-.11-.06-.15-.06-.25,0-.16.03-.34.09-.52.07-.2.08-.25.08-.32,0-.15-.02-.31-.06-.4l-.1-.26c-.02-.06-.03-.1-.03-.13s.02-.04.07-.04c.26,0,.74.28,1.13.64.38.36.51.65.51,1.19l-.02.29c.35.31.51.57.51.85,0,.2-.07.34-.26.53-.35.35-.43.53-.43.98,0,.69.21,1.07.59,1.07.34,0,.59-.36.64-.9l.04-.5c.01-.13.03-.28.07-.47.02-.12.04-.27.04-.34,0-.18-.12-.4-.46-.8-.37-.43-.49-.66-.49-.99,0-.4.28-.69.65-.69.09,0,.14,0,.25.07,0-.23.02-.27.14-.59.1-.25.21-.43.26-.43.02,0,.04.02.08.05.06.06.11.1.17.14.08.06.12.09.13.09.03.02.07.06.12.12.08-.29.16-.43.4-.67.18-.18.25-.23.29-.23.03,0,.06.02.09.07l.16.21.22.25c.08.09.12.18.16.4l.13-.08.21-.12s.09-.06.16-.1c.04-.03.06-.04.08-.04s.05.04.06.09l.08.3.17.34c.05.1.07.18.07.34v.08h.09c.26,0,.48.3.48.65,0,.46-.37,1.06-.85,1.38-.04.16-.05.22-.05.35,0,1.04.27,1.25,1.87,1.49.4.06.76.13,1.07.22.05.02.4.13,1.03.34.35.12.59.17.77.17.19,0,.3-.06.3-.16,0-.18-.26-.34-1.06-.65l-1.13-.44c-1.15-.45-1.7-1.15-1.7-2.19,0-1.21.9-2.11,2.11-2.11.46,0,.9.09,1.54.33.82.3.86.31.95.31.16,0,.25-.11.27-.34.02-.2.07-.27.18-.27.16,0,.33.15.46.39.11.21.17.46.17.68,0,.43-.23.71-.64.8-.28.36-.62.54-1.05.54-.52,0-.78-.1-1.66-.66-.32-.2-.45-.25-.68-.25-.31,0-.54.19-.54.45,0,.24.19.4.63.51.26.07.3.09.43.22.1-.02.15-.03.22-.03.42,0,.95.23,1.39.61.8.25,1.52,1.11,1.52,1.84,0,.8-.7,1.52-1.48,1.52-.21,0-.63-.07-1.01-.16h0l.03.04Z"/><path class="cls-2" d="m35.4,36.66l.05-.14.05-.18s.06-.11.14-.22c.13-.17.2-.39.2-.65,0-.08-.02-.16-.07-.25-.03-.05-.04-.09-.04-.12,0-.02,0-.04.03-.06.02-.02.03-.04.05-.04h0s.09.04.13.09c.06.07.1.1.13.1.06,0,.12-.1.15-.25.02-.08.03-.12.03-.13,0-.06-.05-.23-.12-.36-.03-.05-.04-.1-.04-.13,0-.05.03-.08.07-.08s.1.04.17.11c.04.03.07.05.1.05.08,0,.14-.08.2-.29.04-.13.05-.18.05-.2,0-.04-.02-.06-.05-.06h-.05l-.15.02c-.24,0-.57-.16-.73-.35l-.36-.44c-.14-.17-.34-.43-.33-.43l-.3-.2s-.08-.07-.08-.11c0-.05.05-.08.12-.08s.28.08.67.24c.38.16.97.29,1.32.29.62,0,1.14-.5,1.14-1.12,0-.33-.15-.64-.52-1.08-.07-.08-.19-.16-.24-.16-.04,0-.07.03-.07.08,0,.04,0,.09.04.15.02.04.03.08.03.12,0,.06-.02.09-.06.09-.08,0-.17-.13-.24-.37-.09-.29-.26-.46-.65-.66-.15-.08-.35-.15-.41-.15-.03,0-.04.02-.04.06,0,.05.02.1.05.15.06.09.09.17.11.25h0c0,.06-.03.09-.07.09-.08,0-.1-.02-.29-.31-.1-.15-.36-.35-.59-.44-.07-.03-.15-.05-.22-.05h0s-.08.02-.08.05c0,0,.02.05.06.12l.02.07s-.03.07-.06.07c-.08,0-.32-.2-.51-.42-.21-.24-.34-.54-.34-.78,0-.5.48-.94,1.01-.94.13,0,.25.02.33.07l.46.23.54.35c.31.2.73.35.98.35.1,0,.17,0,.41-.08.13-.03.21-.09.21-.13h0l-.05-.04-.29-.02c-.16-.02-.52-.18-.81-.37l-.6-.39-.53-.22s-.07-.04-.07-.07.03-.05.06-.05c0,0,.05,0,.15.03l.5.14c.13.04.33.13.6.27.54.29.9.42,1.16.42.3,0,.52-.21.52-.49,0-.09-.02-.25-.05-.37-.02-.06-.04-.12-.08-.17-.02-.03-.05-.05-.06-.05-.04,0-.06.04-.06.11v.17c0,.24-.08.33-.35.33-.22,0-.51-.09-1.17-.35-.62-.24-1.01-.34-1.4-.34-.98,0-1.84.8-1.84,1.71,0,.79.52,1.39,1.59,1.83l1.11.46c.92.38,1.25.65,1.25,1,0,.3-.28.49-.71.49-.19,0-.42-.05-.85-.19-1.04-.33-1.71-.47-2.3-.47-.97,0-1.66.26-2.21.85-.07.08-.12.1-.18.1-.04,0-.09-.02-.19-.07-.1-.06-.21-.09-.29-.09-.1,0-.24.08-.31.17l-.13.17s-.08.08-.12.08c-.09,0-.26-.16-.37-.35-.06-.12-.11-.23-.13-.34-.02-.08-.03-.22-.03-.36v-.24l.05-.26c.02-.13.03-.2.04-.22,0-.03.03-.05.06-.05.07,0,.1.06.1.2v.14c0,.37.15.71.31.71.13,0,.24-.23.33-.68.02-.09.06-.14.1-.14.05,0,.08.07.12.26.02.13.11.3.2.42.05.07.1.1.15.1.11,0,.18-.16.23-.53.02-.15.06-.24.11-.24.02,0,.04,0,.05.03,0,0,.04.06.09.14.03.05.08.1.14.13.06.03.12.05.15.05.04,0,.09-.02.12-.05.06-.05.09-.09.09-.11s-.03-.06-.08-.11c-.09-.09-.15-.21-.23-.43-.05-.14-.09-.24-.12-.3-.02-.05-.04-.08-.07-.09h-.12s-.11.03-.27.08h-.09s-.06,0-.06-.05c0-.03.05-.1.11-.15.33-.26.53-.7.6-1.34.04-.39.09-.54.26-.77.03-.05.07-.08.08-.08.05,0,.08.04.08.11,0,.05,0,.11-.04.19-.02.05-.03.1-.03.16v.05l.03.08.14-.05.16-.18c.09-.11.17-.35.17-.53,0-.12-.03-.21-.1-.3-.08-.1-.14-.14-.2-.14h-.18c-.08,0-.13-.02-.13-.07l.02-.1v-.14l-.06-.33-.07-.16-.04-.13-.09.07-.2.12s-.1.08-.16.14c-.19.22-.2.24-.27.24-.05,0-.07-.02-.07-.05v-.06c.03-.12.05-.21.05-.27,0-.23-.16-.57-.36-.76-.27.26-.42.55-.42.82v.16c0,.06-.02.09-.06.09h0s-.06-.03-.09-.07l-.16-.21s-.08-.07-.21-.17c-.02-.02-.06-.05-.1-.09l-.05.1c-.13.26-.17.41-.18.63,0,.17-.02.22-.06.22-.02,0-.05,0-.08-.03-.2-.11-.22-.12-.3-.12-.23,0-.39.17-.39.41,0,.1.05.24.16.43.12.21.3.41.38.41.02,0,.03-.02.03-.08v-.25s-.04-.17-.04-.17v-.02s.02-.07.06-.07c.12,0,.22.35.31,1.03.08.61.24,1.02.51,1.26.07.06.11.11.11.14,0,.02-.02.04-.05.04-.04,0-.1-.02-.17-.07-.05-.03-.1-.04-.14-.04-.13,0-.28.15-.3.32l-.12.74-.09,1.04c-.02.2,0,.46.08.78.06.28.09.49.09.62,0,.78-.49,1.4-1.29,1.64l-.83.25c-.52.15-.78.5-.85,1.13.13-.11.17-.12.38-.16l.25-.04c.11-.02.18-.04.22-.07.02-.01.07-.06.14-.14l.22-.25c.08-.09.16-.15.21-.15.03,0,.06.03.06.08s-.03.12-.09.22-.1.21-.1.34c0,.17.04.27.21.51.02-.08.04-.13.05-.16.02-.04.09-.13.2-.27.18-.23.31-.48.31-.59,0-.2.02-.27.07-.27.04,0,.05,0,.07.12,0,.03.02.06.04.08.03.03.06.05.08.05s.05-.02.1-.05c.09-.06.16-.12.21-.18.05-.07.1-.15.13-.23.04-.11.07-.2.07-.25v-.17s.02-.08.04-.08c.03,0,.1.07.14.14.03.05.05.07.08.07h0s.09-.02.12-.05c.16-.16.26-.35.26-.49v-.24l-.07-.2v-.02s.03-.08.06-.08c.06,0,.12.08.21.27.04.09.08.13.12.13.06,0,.11-.05.23-.22l.12-.17s.04-.08.04-.13-.01-.09-.04-.13l-.11-.16s-.03-.07-.03-.13c0-.18.06-.38.2-.61.1-.17.15-.28.17-.33.02-.05.04-.08.07-.08.02,0,.04.03.04.07v.24s-.01.1-.01.1c0,0,.05.07.11.07.04,0,.09,0,.14-.03l.33-.12c.08-.03.18-.08.3-.14.51-.28.67-.34.92-.34.15,0,.34.06.62.19.06.03.1.04.13.04.04,0,.08-.02.11-.07.03-.03.04-.07.04-.1,0-.05-.02-.1-.05-.16-.04-.07-.08-.16-.08-.19,0-.04.02-.06.06-.06.03,0,.07.03.1.07.04.06.14.24.3.52.24.43.56.73.83.8l.57.13c.18.04.22.11.22.33,0,.4-.19.76-.52.97l-.47.3c-.17.11-.31.41-.31.66,0,.16.04.45.09.67l.09-.09.22-.13.2-.2.1-.29.1-.26c.05-.13.11-.21.15-.21.05,0,.07.07.07.2v.09c0,.19.03.27.17.55h0l.04.03Z"/><path class="cls-2" d="m27.68,40.38c0-.62.23-.89,1.12-1.35,1.77-.9,2.73-1.72,2.73-2.35,0-.13-.04-.31-.16-.7-.07-.24-.11-.44-.11-.57,0-.29.24-.73.54-1l.25-.22c.14-.12.24-.3.24-.41v-.14c0-.13.05-.18.19-.18h.12c.06-.03.09-.04.1-.04.04,0,.08.02.11.07l.06.1.09.1s.06.05.08.05.05,0,.1-.04c.06-.03.11-.05.16-.05.07,0,.1.04.1.11,0,.26-.17.64-.47,1.04-.5.68-.66,1.04-.66,1.47,0,.34.1.64.29.88.03.04.05.08.05.1,0,.03-.03.09-.09.16-.02.03-.05.06-.08.1-.1.15-.17.21-.24.21-.05,0-.1-.04-.12-.11l-.05-.14s-.04-.07-.07-.07c-.01,0-.03.02-.06.05-.03.04-.05.09-.05.14v.22c0,.09-.03.18-.09.26-.05.07-.11.14-.18.19-.05.04-.09.07-.1.07-.04,0-.07-.04-.09-.1l-.08-.26s-.04-.06-.07-.06c-.04,0-.08.07-.09.18-.03.3-.08.47-.16.55l-.18.17c-.06.06-.13.1-.16.1s-.07-.02-.08-.04l-.09-.2s-.03-.04-.06-.04c-.05,0-.09.1-.11.3-.05.47-.15.68-.4.86-.2.14-.25.19-.33.37-.11-.17-.16-.31-.16-.52,0-.11.02-.19.05-.25.05-.1.08-.17.08-.22,0-.03-.02-.06-.05-.06-.01,0-.04.02-.06.05-.04.04-.09.09-.17.13-.23.14-.27.18-.33.44-.08.35-.24.51-.6.58-.44.09-.47.1-.63.25l-.02-.23v.05Z"/><path class="cls-2" d="m26.83,26.94v.32c0,.07,0,.12-.03.21-.04.18-.05.24-.05.29,0,.25.03.37.18.63.08.14.13.31.13.44,0,.05-.02.08-.06.08-.02,0-.05,0-.06-.04l-.1-.14c-.08-.11-.16-.14-.37-.14h-.23c.09.24.12.32.16.47.11.43.12.46.35.67s.25.24.25.31c0,.06-.04.11-.09.11h-.09l-.05-.02c-.07,0-.14.13-.14.28,0,.08.03.22.08.33.03.08.06.13.09.16l.13.13s.05.08.05.13c0,.06-.04.12-.08.12-.03,0-.07-.02-.12-.04-.03-.02-.06-.03-.09-.03-.06,0-.09.04-.09.11l.02.19.08.34c.02.08.07.16.14.25.07.08.13.13.2.16.16.07.25.11.26.12.02.02.04.06.04.1s-.04.09-.09.09c-.01,0-.06,0-.13-.03h-.13c-.13,0-.14,0-.14.1,0,.07,0,.13.03.2l.05.21c.06.22.13.34.21.34.02,0,.05-.02.09-.05.19-.14.57-.27.81-.27s.52.03.63.07c.06.02.1.03.12.03.03,0,.04-.03.04-.15l.03-.23.05-.4.04-.3v-.17s-.08.07-.11.09c-.22.21-.36.27-.59.27-.6,0-.94-.67-.94-1.85,0-.48.07-1.17.21-1.96.03-.17.04-.28.04-.36,0-.43-.27-.85-.74-1.15h0v-.02Z"/><path class="cls-2" d="m27.72,29.85l.12-.12.12-.1c.1-.09.18-.27.18-.4,0-.06-.01-.12-.04-.19-.05-.1-.13-.19-.19-.19-.04,0-.08.11-.1.28l-.03.2-.04.2v.33s-.02-.01-.02-.01Z"/><path class="cls-5" d="m26.57,35.19c.13.05.16.07.3.23.18.21.28.26.52.26.06,0,.13,0,.18-.03l.17-.05.13-.04c.06-.02.1-.04.1-.07s-.1-.11-.26-.22c-.1-.07-.21-.13-.31-.18-.11-.06-.21-.08-.3-.08-.18,0-.36.06-.54.17"/><path class="cls-2" d="m28.33,38.85c0-.42.41-.77.92-.77.25,0,.4.05.4.14,0,.07-.11.16-.35.29-.02.01-.15.08-.38.21-.26.14-.34.19-.57.29v-.15h-.02Z"/><path class="cls-2" d="m33.64,35.69c.19-.04.25-.09.34-.09h.23s.08-.03.16-.09c.04-.03.1-.08.18-.13.26-.18.27-.19.27-.25,0-.07-.11-.11-.33-.11-.41,0-.66.19-.86.67h.01Z"/><path class="cls-6" d="m29.7,27.76l.18.12c.1.07.19.11.26.14.2.08.27.11.27.19,0,.03,0,.1-.03.15-.02.06-.03.12-.04.18-.02.18-.13.22-.2.22-.09,0-.18-.14-.33-.39-.06-.12-.16-.35-.21-.52v-.05s.01-.05.05-.05h.05Z"/><path class="cls-6" d="m31.46,28.21l-.3.3c-.11.14-.11.26-.13.29-.02.02-.05.03-.09.04h-.02c-.08,0-.13-.05-.14-.13v-.22l-.03-.22h0c0-.1.05-.14.12-.16l.28-.08.29-.14c.08-.04.11-.05.12-.05.03,0,.06.03.06.08,0,.02-.01.05-.03.08l-.13.22h0Z"/><path class="cls-6" d="m30.14,29.1l.2.14s.11.04.17.04c.08,0,.2-.03.31-.08l.17-.08s.07-.03.1-.03c.1,0,.19.11.19.25,0,.19-.14.39-.34.68l-.14.3c-.11.16-.19.22-.28.22-.15,0-.23-.09-.46-.55-.17-.33-.23-.53-.23-.69,0-.14.07-.23.17-.23.04,0,.09,0,.15.03h-.01Z"/><path class="cls-2" d="m30.31,29.82v.25c.02.11.11.22.2.22.12,0,.21-.18.25-.46.02-.13.03-.15.03-.18,0-.1-.03-.12-.16-.12h-.22c-.08,0-.11.06-.11.23v.06h0Z"/></g><g id="Lion_bottom_left"><path class="cls-6" d="m13.19,33.24c.11.29.15.43.17.61l.03.55c.02.55.2.82.55.82.13,0,.23-.03.29-.09l.14-.14.06-.02c.09,0,.14.06.14.17l-.02.21c-.01.09,0,.3.05.6.03.18.04.35.04.53,0,.28-.02.38-.12.63.09.26.14.55.14.79,0,.28-.05.47-.16.63.05.22.07.31.07.44s-.02.29-.05.5c-.05.27-.06.48-.05.62v.03c0,.08-.02.12-.07.12s-.11-.04-.16-.1c-.08-.1-.13-.14-.19-.14-.09,0-.12.05-.25.44-.04.12-.15.28-.31.48-.13.15-.21.28-.23.38-.04.16-.07.25-.08.27-.02.03-.05.06-.08.06h-.02c-.21,0-.46-.46-.71-1.33-.07-.25-.16-.36-.29-.36-.09,0-.19.06-.23.15l-.08.18s-.04.05-.07.05c-.1,0-.26-.19-.36-.43-.08-.2-.13-.42-.13-.6,0-.41.3-.71,1.21-1.23.4-.22.55-.51.55-1.02,0-.4-.12-.64-.47-.9-.28-.21-.43-.29-.58-.29-.12,0-.22.08-.22.19,0,.12.07.2.24.26.2.07.29.14.29.23,0,.08-.09.26-.22.47-.15.23-.21.29-.42.43-.06.36-.23.59-.63.85-.08.22-.12.3-.26.48l-.27.35c-.09.11-.18.31-.2.4-.03.2-.05.23-.12.23-.1,0-.32-.18-.53-.46-.13-.16-.16-.24-.17-.43-.14.11-.18.12-.44.16-.16.02-.28.05-.35.09-.2.1-.27.13-.3.13-.05,0-.07-.03-.08-.12v-.29c-.01-.39.14-.85.38-1.16-.23-.2-.46-.32-.64-.34-.08,0-.1-.02-.1-.05,0-.05.05-.15.12-.24.1-.12.18-.21.23-.26.19-.16.5-.27.76-.27.17,0,.42.06.74.18.12.04.22.06.31.06.14,0,.22-.09.22-.26,0-.24-.12-.61-.38-1.2-.18-.4-.26-.67-.26-.86,0-.45.21-.92.48-1.06-.13-.06-.18-.08-.29-.08-.13,0-.23.03-.4.13-.19.11-.3.21-.3.28,0,.03.04.07.11.11.1.07.12.1.12.19,0,.32-.27.75-.64,1.03-.08.46-.29.73-.7.93-.05.25-.09.32-.29.6-.34.48-.42.63-.48.9-.03.14-.06.2-.11.2-.06,0-.17-.09-.3-.22-.11-.12-.18-.2-.21-.25-.06-.09-.08-.17-.14-.42-.09.03-.12.03-.19.03h-.32c-.29,0-.59.06-.74.16-.06.03-.09.05-.11.05-.08,0-.15-.18-.15-.4,0-.47.13-.86.44-1.29-.11-.09-.15-.13-.25-.23-.04-.05-.08-.08-.1-.09l-.14-.08s-.08-.06-.08-.08c0-.07.19-.25.42-.4.25-.16.45-.24.63-.24.21,0,.33.05.59.29.19.16.31.24.4.24.06,0,.13-.04.19-.12.04-.06.07-.13.07-.19,0-.25-.3-.67-.63-.89-.25-.16-.51-.25-.78-.25-.36,0-.67.18-.81.47l-.14.3c-.03.07-.08.11-.12.11-.08,0-.13-.04-.42-.38l-.34-.39c-.1-.12-.17-.24-.21-.34-.03-.1-.05-.15-.07-.17,0-.02-.06-.05-.13-.11-.26-.19-.45-.55-.56-1.08,0-.04-.02-.1-.04-.17-.32-.39-.51-.88-.51-1.3,0-.06,0-.08.03-.18-.19-.19-.21-.23-.35-.73-.1-.35-.17-.51-.3-.68-.03-.05-.05-.08-.05-.1,0-.07.11-.13.3-.16.18-.03.19-.03.26-.03l.26.02-.02-.36c0-.21.02-.35.07-.59.03-.12.04-.21.04-.27,0-.02,0-.1-.03-.22,0-.1-.03-.16-.04-.2-.02-.05-.03-.09-.03-.11,0-.04.03-.06.08-.06.04,0,.09.02.17.06.23.11.41.23.56.34.45.35.8.89.8,1.23v.1c-.02.12-.03.18-.03.19,0,.06.03.13.09.21l.14.2c.13.17.21.38.21.51,0,.12-.03.18-.24.48-.16.23-.22.4-.22.58,0,.24.09.53.26.82.15.27.33.42.5.42.29,0,.42-.26.46-.95.02-.36.06-.69.1-.99v-.18c.01-.08-.01-.13-.12-.25l-.39-.45c-.37-.44-.48-.66-.48-.97,0-.36.24-.61.58-.61h.16v-.09c0-.08.02-.2.07-.35.08-.28.19-.49.24-.49.02,0,.06.02.13.07.02,0,.1.04.24.09.07.03.12.05.26.13.06-.22.11-.33.21-.46.17-.22.36-.39.43-.39.04,0,.12.06.21.16l.25.26s.09.13.14.25l.05.12c.07-.04.12-.07.16-.09.1-.06.17-.1.21-.12.16-.08.24-.11.25-.12.07-.04.11-.07.13-.07.04,0,.07.08.17.51.07.3.08.36.09.57.42.06.61.3.61.74s-.21.84-.65,1.31c-.12.13-.15.19-.15.31,0,1.15.4,1.52,1.85,1.67.89.09,1.15.15,2.21.47.56.17.88.24,1.09.24.25,0,.38-.09.38-.25,0-.24-.17-.32-1.21-.54-2.41-.51-3.36-1.33-3.36-2.93,0-1.14.85-1.99,1.98-1.99.5,0,.95.15,1.65.56.66.38.79.45.94.45.18,0,.24-.11.24-.39,0-.18.06-.27.17-.27.1,0,.26.11.4.27.22.26.3.39.3.74,0,.47-.25.78-.74.92-.05.06-.09.1-.12.13-.27.3-.5.4-.93.4-.37,0-.84-.15-1.16-.38l-.63-.44c-.27-.19-.47-.27-.66-.27-.27,0-.43.16-.43.43s.17.48.46.56l.59.18c.21.07.31.11.56.23.15-.02.21-.03.29-.03.36,0,.76.1,1.1.27.11.06.19.09.23.11l.33.09c.74.21,1.34,1.03,1.34,1.84,0,.92-.6,1.49-1.56,1.49h-.3v.06Z"/><path class="cls-2" d="m12.97,40.99l.08-.16.18-.2c.15-.16.24-.4.24-.67,0-.13-.02-.28-.07-.42-.03-.1-.05-.19-.05-.23,0-.08.06-.16.12-.16.03,0,.06.02.1.07l.2.22c.12.14.16.16.31.2v-.18l.03-.21c0-.31-.11-.66-.29-.88-.1-.13-.15-.21-.15-.26s.03-.09.07-.09c.01,0,.03,0,.05.03.13.09.19.13.22.13.06,0,.12-.16.12-.33,0-.25-.1-.53-.27-.73-.08-.1-.14-.17-.16-.19-.02-.03-.03-.05-.03-.07,0-.06.05-.1.11-.1.05,0,.08.01.16.07.04.03.07.04.1.04.1,0,.14-.14.14-.53v-.16l-.02-.24c-.01-.28-.04-.32-.16-.32h-.1c-.64,0-.93-.4-1.1-1.49-.12-.78-.41-1.34-.77-1.46-.21-.07-.29-.12-.29-.17,0-.04.06-.07.12-.07.05,0,.16.03.25.07.52.21.96.31,1.34.31.62,0,1.12-.46,1.12-1.04,0-.45-.21-.9-.59-1.26-.1-.1-.22-.17-.33-.2h-.03l-.07.02.03.19.05.13v.05s-.01.05-.05.05-.07-.02-.1-.05l-.23-.35c-.19-.28-.59-.51-.9-.51-.11,0-.17.05-.17.12,0,.04.04.1.08.15.07.08.12.17.12.21v.05s-.05.05-.07.05h-.01c-.06,0-.09-.03-.38-.35-.23-.27-.71-.52-.96-.52-.04,0-.07.02-.1.04-.02.02-.03.04-.03.05,0,.04.03.09.09.15.08.07.14.16.14.2,0,.03-.03.05-.07.05-.07,0-.24-.11-.55-.35-.49-.38-.7-.74-.7-1.16,0-.5.36-.9.82-.9.27,0,.63.13.87.31l.64.48c.29.22.65.34,1.03.34.08,0,.16-.02.23-.05.06-.03.09-.06.09-.09,0-.02-.05-.04-.12-.06-.23-.05-.42-.13-.55-.23l-.65-.49c-.24-.18-.41-.3-.51-.35-.34-.18-.41-.22-.41-.26,0-.02.03-.04.07-.04.03,0,.07,0,.11.03l.34.14c.11.05.29.15.55.33.7.47,1.05.62,1.46.62s.68-.28.68-.65c0-.07-.02-.16-.05-.23l-.07-.13s-.06-.08-.08-.07l-.04.05-.04.27s-.02.04-.04.09c-.02.05-.06.1-.09.13-.07.07-.13.09-.24.09-.2,0-.43-.11-1.04-.5-.62-.39-1.17-.6-1.62-.6-.94,0-1.69.76-1.69,1.69,0,1.3.8,1.89,3.3,2.44.95.21,1.37.49,1.37.91,0,.39-.31.63-.81.63-.15,0-.27,0-.35-.03-.08-.02-.53-.14-1.34-.37-.56-.15-1.19-.24-1.74-.24-.98,0-1.64.29-2.09.92-.05.07-.1.12-.14.12-.03,0-.07-.02-.11-.05l-.18-.14c-.13-.1-.33-.18-.47-.18-.1,0-.19.04-.28.11-.06.06-.11.09-.13.09-.07,0-.21-.16-.31-.38-.15-.31-.22-.61-.22-.89,0-.13.04-.22.1-.22.05,0,.08.03.1.1l.1.38c.06.21.18.38.27.38.04,0,.11-.06.19-.16.05-.06.08-.12.11-.18.08-.24.1-.27.17-.27.08,0,.12.05.17.29.01.04.02.11.09.22.05.1.11.18.16.23.04.04.09.07.13.07.11,0,.22-.19.22-.4v-.06l-.02-.24c0-.09.01-.12.07-.12.03,0,.05.02.09.06.06.07.13.13.22.18.08.04.14.07.19.07.04,0,.08-.02.13-.07.04-.03.05-.07.05-.1,0-.04-.05-.1-.19-.24-.07-.08-.16-.25-.26-.52-.04-.1-.09-.17-.12-.17-.01,0-.04,0-.09.03l-.17.06-.12.05h-.04c-.06,0-.1-.03-.1-.08s.12-.19.26-.31c.1-.09.17-.21.17-.35,0-.22.05-.39.09-.39l.04-.46c.02-.23.11-.66.2-.9.02-.05.04-.08.05-.08.04,0,.07.1.07.21v.2c-.01.17.02.25.07.25.06,0,.12-.08.18-.23l.12-.3c.03-.09.05-.17.05-.24,0-.25-.15-.44-.36-.44l-.09.02c-.05.02-.08.03-.09.03-.07,0-.13-.08-.13-.16v-.45l-.05-.27v-.13l-.13.06-.14.12-.21.17-.17.14s-.06.04-.1.04c-.1,0-.11-.03-.11-.23v-.05c0-.16-.07-.29-.34-.61-.02-.02-.04-.04-.07-.08l-.05.09-.14.23-.14.36-.03.23c0,.07-.03.12-.06.12s-.07-.03-.12-.09c-.2-.23-.26-.27-.56-.38l-.03.09c-.05.15-.07.25-.08.27v.35s-.01.08-.01.08c0,.07-.03.11-.07.11h0s-.03-.03-.08-.07c-.03-.03-.09-.04-.16-.04-.24,0-.4.13-.4.34,0,.16.05.27.29.64.11.16.23.29.28.29.03,0,.06-.09.06-.19l-.02-.16c-.02-.07-.04-.14-.04-.2,0-.07.02-.11.06-.11.12,0,.24.34.29.81l.05.48c.02.17.07.35.16.52.12.24.24.41.34.48.13.09.2.17.2.22,0,.04-.03.08-.07.08,0,0-.09-.03-.26-.09l-.11-.02c-.26,0-.35.15-.35.6,0,.54.37,1.32.77,1.65l.6.48c.3.24.53.65.53.94,0,.38-.42.76-1.13,1.02l-.43.16c-.33.12-.47.34-.6.96.17-.05.25-.07.36-.07h.25c.17,0,.3-.11.3-.25v-.12s.05-.08.12-.12l.18-.09.14-.12s.05-.03.07-.03c.04,0,.07.04.07.08,0,.03,0,.07-.03.12-.04.12-.07.27-.07.45,0,.32.05.49.21.73.01-.09.03-.14.04-.17.03-.07.1-.18.22-.35.2-.28.34-.61.34-.79v-.06l-.04-.3c0-.05.02-.11.07-.14.03-.02.06-.04.09-.04.06,0,.09.03.13.13.03.07.07.12.09.12.05,0,.14-.12.19-.26.04-.1.07-.2.07-.28,0-.05-.01-.1-.04-.17s-.04-.12-.04-.15.01-.05.05-.09c.02-.02.04-.03.07-.03s.05.01.08.03l.12.08s.08.04.1.04c.05,0,.13-.06.18-.14.11-.17.18-.32.18-.37,0-.03-.02-.06-.09-.11-.26-.18-.43-.46-.43-.7,0-.06.01-.12.04-.19l.13-.35c.07-.18.1-.27.1-.27h.04s.07.02.07.09c0,.04-.01.09-.03.15-.03.09-.05.19-.05.25,0,.09.05.14.14.14.06,0,.14-.02.22-.05.39-.17.71-.26.89-.26s.29.04.47.17c.05.03.09.05.12.05.02,0,.05-.02.08-.05.02-.02.03-.05.03-.06,0-.05-.03-.11-.08-.17-.07-.08-.09-.13-.09-.18,0-.04.03-.07.07-.07.2,0,.52.65.83,1.67.24.81.31.89,1.08,1.33.65.37.9.74.9,1.33s-.16,1.34-.5,2.32c-.11.31-.15.52-.15.69,0,.14.03.27.13.62.05.17.08.27.09.3.01.04.05.1.1.2h.02Z"/><path class="cls-2" d="m9.94,39.16c.08-.18.1-.22.25-.44.21-.32.29-.49.29-.64v-.21c0-.2.04-.29.11-.29.03,0,.05.01.07.04l.07.1s.05.05.09.05.11-.05.15-.11c.09-.14.15-.32.15-.47v-.14l-.03-.15c0-.08.03-.11.11-.11.05,0,.07.02.12.12.03.06.07.1.1.1.04,0,.08-.03.11-.08l.1-.16.08-.12.02-.06s-.03-.07-.1-.12c-.24-.17-.35-.44-.36-.93-.01-.37-.03-.61-.07-.72,0-.02-.09-.21-.24-.56-.06-.14-.11-.29-.16-.47-.03-.12-.07-.16-.16-.16-.36,0-.62.3-.62.7,0,.24.1.61.28,1.06.25.63.32.86.32,1.08,0,.48-.19.69-.85.92-.75.27-1.1.65-1.23,1.34.06-.02.1-.04.13-.05.08-.03.14-.05.18-.07l.21-.05c.18-.04.32-.15.35-.25l.05-.18s.04-.07.08-.09l.12-.05.12-.05.03.05-.05.17c-.02.06-.03.16-.03.3,0,.29.06.45.22.66h0v.04Z"/><path class="cls-2" d="m2.94,27.1c.02.07.03.12.03.15,0,.04-.02.15-.05.34l-.02.26c0,.23.04.48.11.69.07.19.08.25.08.3v.05s-.04.09-.06.09c-.03,0-.07-.03-.13-.08-.15-.13-.31-.2-.48-.2-.05,0-.13,0-.22.03l.07.14.2.48.27.42.29.2s.05.04.08.08.04.07.04.09-.02.04-.05.04h-.26s-.07.04-.07.07c0,.04.04.18.11.39l.13.38.22.21.23.17c.07.05.11.11.11.15s-.02.07-.05.07h-.13s-.07.05-.07.12c0,.1.09.27.26.51.2.27.34.37.57.37h.2c.09,0,.15.05.15.12,0,.06-.04.1-.13.12-.18.04-.23.07-.23.16,0,.03.02.08.07.14l.11.14c.09.12.18.2.25.2.04,0,.12-.04.19-.12.12-.13.25-.24.42-.29.45-.11.55-.16.55-.27,0-.04-.02-.09-.05-.15-.14-.26-.2-.43-.2-.64,0-.16-.04-.28-.1-.28-.02,0-.06.04-.11.11-.11.16-.29.27-.46.27-.45,0-.99-.71-1.26-1.64-.06-.22-.1-.47-.1-.7s.03-.52.1-.8c.09-.38.13-.6.14-.64l.02-.18c0-.32-.3-.74-.76-1.06h-.01Z"/><path class="cls-2" d="m3.88,28.92c-.1.18-.18.59-.18.85,0,.15.05.27.11.27.02,0,.05-.02.07-.07l.14-.26s.05-.09.09-.16c.05-.08.09-.15.09-.19,0-.15-.14-.35-.33-.44h0Z"/><path class="cls-2" d="m5.31,34.8s.05.05.07.07c.06.06.09.09.1.1.25.26.29.29.41.29.11,0,.35-.06.48-.13.06-.03.09-.06.09-.09,0-.02-.05-.07-.13-.14l-.14-.13c-.11-.1-.27-.19-.35-.19-.15,0-.3.07-.54.23h0Z"/><path class="cls-2" d="m8.34,37.15c.14.06.19.08.26.13.12.08.19.12.21.13.04.02.11.03.21.03.06,0,.11,0,.16-.03l.27-.1.26-.09c.07-.03.12-.06.12-.1,0-.02-.06-.05-.14-.07-.06-.02-.12-.04-.2-.06-.32-.13-.37-.15-.48-.15-.26,0-.51.12-.67.32h0Z"/><path class="cls-2" d="m11.64,39.77c.09-.21.15-.25.44-.26.33-.02.65-.62.65-1.02,0-.04-.01-.07-.03-.07s-.05.02-.09.04c-.09.06-.16.1-.19.12l-.38.17c-.25.11-.47.45-.47.71,0,.09.02.16.07.32h0Z"/><path class="cls-6" d="m6.01,28.45l.13.18s.25.2.28.2c.04,0,.06-.03.08-.11l.05-.2v-.22c.01-.17-.06-.24-.42-.33-.09-.02-.12-.02-.18-.07-.05-.04-.13-.08-.16-.08s-.05.02-.05.04v.06l.08.19.18.33h0Z"/><path class="cls-6" d="m7.4,28.45l-.17.3s-.06.07-.07.07h-.01c-.07,0-.14-.16-.14-.32l-.02-.26c.02-.11.08-.15.25-.18.13-.02.22-.05.26-.08.12-.09.19-.14.21-.14h.02s.06.02.06.06v.02l-.09.22-.29.31h0Z"/><path class="cls-6" d="m7.06,29.33l.21-.1s.07-.03.1-.03c.1,0,.18.08.18.21,0,.15-.12.35-.28.64-.17.31-.3.52-.44.52-.19,0-.45-.3-.71-.8-.06-.12-.1-.26-.1-.36,0-.16.07-.25.21-.25.06,0,.11,0,.15.04l.12.08c.1.07.22.1.33.1.08,0,.16-.02.23-.05h0Z"/><path class="cls-2" d="m6.92,29.62s.12.03.12.11v.04l-.04.19c-.04.26-.1.42-.19.42-.04,0-.08-.02-.1-.06-.13-.19-.24-.43-.24-.56,0-.09.04-.14.12-.14h.02l.14.03.16-.03h.01Z"/></g><g id="Lion_top_right"><path class="cls-6" d="m37.26,8.64l.05.2c.05.18.08.32.11.42.16.74.3.94.66.94.21,0,.38-.11.43-.29l.08-.26c.02-.06.06-.09.12-.09.14,0,.22.16.23.47,0,.12.03.33.08.64.04.22.05.42.05.6,0,.13-.02.21-.08.37l.03.16c.04.26.05.36.05.48,0,.56-.03.72-.16.94.05.21.07.31.07.47,0,.1,0,.24-.04.46l-.05.39v.23c.05.09.07.14.07.16,0,.04-.02.07-.05.07l-.26-.1-.29-.16c-.09-.05-.16-.1-.3-.23-.25.22-.29.24-.59.33-.43.12-.59.17-.68.24-.08.06-.15.09-.18.09-.1,0-.17-.2-.17-.48,0-.42.02-.63.09-.8-.25-.09-.38-.12-.47-.12-.03,0-.06,0-.19.03h-.06s-.06-.04-.06-.12c0-.13.09-.38.21-.6.16-.29.43-.53.64-.57l.47-.09c.28-.05.44-.2.44-.4s-.12-.31-.41-.41l-.55-.2c-.18-.07-.36-.15-.52-.25-.14-.08-.23-.14-.29-.17-.05-.03-.1-.04-.14-.04-.12,0-.19.08-.19.22,0,.22.17.4.38.4.05,0,.09,0,.13-.03.06-.03.1-.04.12-.04.06,0,.1.06.1.14,0,.23-.15.63-.3.82l-.16.2-.12.16c-.04.34-.37.82-.7,1.03-.08.05-.13.09-.14.1s-.05.07-.1.18c-.03.05-.11.15-.26.31-.11.12-.22.22-.33.3-.15.11-.23.19-.26.24l-.13.22s-.06.07-.1.07c-.12,0-.22-.12-.29-.33-.05-.15-.09-.2-.19-.2-.05,0-.13,0-.23.04l-.18.03h-.46c-.25,0-.58.06-.73.13-.06.03-.1.04-.13.04-.07,0-.1-.07-.1-.2,0-.41.32-1.04.73-1.45-.06-.24-.19-.4-.35-.44-.15-.04-.23-.06-.23-.07-.02,0-.04-.04-.04-.06,0-.08.09-.17.3-.26.37-.17.48-.21.69-.21.24,0,.44.08.68.27.35.27.45.33.62.33.28,0,.54-.25.54-.52,0-.18-.1-.38-.34-.69-.35-.44-.47-.73-.47-1.11,0-.25.05-.39.27-.75.04-.06.05-.11.05-.14,0-.07-.12-.14-.25-.14-.14,0-.31.05-.55.16-.39.18-.63.35-.63.45,0,.04.02.08.07.11l.13.09s.03.03.03.05-.02.07-.05.1-.11.14-.26.34c-.18.24-.36.42-.55.57-.07.05-.11.1-.13.13l-.1.2c-.09.16-.34.43-.56.59-.1.07-.16.12-.18.14-.03.03-.07.09-.12.18-.13.24-.34.53-.48.68l-.35.37c-.1.1-.24.41-.38.81-.11.32-.18.46-.22.46-.02,0-.06-.03-.1-.08-.25-.29-.48-.47-.59-.47-.03,0-.08.02-.15.07-.1.06-.22.11-.35.13l-.47.09c-.39.08-.55.16-.73.39-.05.06-.08.09-.1.09-.05,0-.08-.07-.08-.16v-.11s.04-.13.08-.35c.07-.37.16-.68.26-.85l.24-.4c.04-.07.07-.15.07-.21,0-.3-.28-.54-.7-.61-.09,0-.13-.04-.13-.09,0-.06.1-.17.26-.3.28-.21.58-.34.8-.34.14,0,.34.05.6.16l.29.12c.11.04.21.07.29.07.3,0,.6-.28.96-.9.16-.28.23-.49.23-.67,0-.33-.15-.53-.41-.53-.2,0-.39.09-.55.25-.14.14-.22.29-.22.42v.2c.01.11-.03.15-.1.15-.1,0-.21-.1-.44-.37-.09-.11-.22-.25-.37-.43-.4-.46-.48-.65-.5-1.12-.44-.56-.55-.88-.55-1.2l.02-.27c-.32-.38-.38-.53-.38-.9,0-.17,0-.21.08-.35-.16-.23-.21-.33-.25-.51l-.07-.27c-.05-.19-.11-.35-.21-.48-.12-.17-.13-.19-.13-.24,0-.14.13-.22.46-.31l.1-.03c-.02-.13-.03-.22-.03-.29,0-.08,0-.15.04-.31l.09-.48c.03-.19.05-.33.05-.43,0-.11-.02-.2-.08-.41-.04-.13-.08-.23-.13-.3s-.08-.13-.08-.17.04-.08.1-.08c.03,0,.09.02.13.04.44.24.92.62,1.26,1,.29.33.39.6.46,1.33.4.3.55.57.55.99,0,.25-.08.49-.26.77-.16.24-.25.38-.26.4-.08.13-.12.28-.12.44,0,.24.07.46.25.77.19.35.37.5.58.5.34,0,.65-.59.65-1.24v-.48l.04-.31.03-.38.03-.31v-.17c.01-.13-.02-.17-.42-.59-.44-.47-.65-.87-.65-1.25,0-.35.3-.64.66-.64.08,0,.14,0,.28.05v-.43l.09-.34c.06-.27.09-.32.18-.32l.06.02.24.21.29.18.08.08c.02-.16.03-.2.17-.37.07-.08.13-.17.18-.25l.13-.2.08-.12c.05-.08.07-.1.11-.1s.06.05.1.19c.02.06.06.12.12.17l.17.14c.14.12.23.29.29.53.1-.13.15-.17.26-.24l.21-.12c.08-.04.12-.07.14-.07s.04.03.06.08c.03.07.06.13.1.2.17.27.18.31.18.49v.27c.42.12.59.34.59.81,0,.35-.16.71-.5,1.12-.22.27-.26.35-.26.55,0,.92.69,1.48,1.86,1.49h.86c.56.02.91.08,1.42.25.6.2.8.25.98.25.13,0,.24-.07.24-.16,0-.19-.32-.33-1.37-.63-2.15-.61-3.06-1.48-3.06-2.9,0-1.1.92-1.95,2.11-1.95.37,0,.96.1,1.29.22l.53.2c.1.04.19.05.28.05.18,0,.25-.12.28-.46,0-.15.06-.22.16-.22.14,0,.4.21.6.48.2.27.34.64.34.87,0,.28-.14.49-.46.66-.29.45-.65.65-1.14.65-.37,0-1-.25-1.8-.72-.31-.18-.45-.23-.62-.23-.23,0-.39.13-.39.34,0,.19.14.31.53.44.62.22.75.29.93.51.66.12.95.23,1.37.55,1.19.38,1.85,1.12,1.85,2.06,0,.86-.58,1.48-1.39,1.48-.22,0-.33,0-.63-.08h-.01Z"/><path class="cls-2" d="m38.55,14.34c-.03-.12-.04-.18-.04-.24v-.18c.05-.24.06-.36.06-.51,0-.1-.03-.17-.09-.26l-.16-.21c-.1-.14-.14-.24-.14-.36,0-.08.02-.1.07-.1h.06s.05.04.12.08c.05.03.1.04.13.04.08,0,.12-.12.12-.37,0-.34-.06-.5-.26-.66l-.18-.14s-.05-.07-.05-.11c0-.06.04-.1.1-.1.04,0,.09,0,.15.03l.14.04h.06s.06-.02.06-.1v-.05l-.04-.27c-.04-.28-.09-.39-.17-.39h-.02l-.34.07h-.06c-.41,0-.89-.38-1.01-.81l-.25-.85c-.07-.25-.29-.53-.63-.8-.11-.08-.2-.13-.27-.14l-.23-.03s-.07-.03-.07-.06c0-.05.05-.08.14-.08.33,0,.68.07,1.16.22.43.14.66.19.87.19.65,0,1.05-.34,1.05-.9,0-.28-.1-.64-.25-.86-.13-.2-.34-.4-.61-.57-.04-.03-.08-.04-.1-.04-.04,0-.07.03-.07.07v.19c0,.06-.03.12-.07.12-.07,0-.15-.08-.23-.26-.24-.51-.63-.82-1.03-.82-.09,0-.14.03-.14.08,0,.04.02.1.07.17.04.07.08.14.12.23.02.05.03.09.03.11s-.02.04-.06.04c-.06,0-.15-.05-.22-.12-.13-.14-.2-.21-.2-.21l-.17-.26c-.13-.2-.28-.33-.52-.46l-.33-.17c-.07-.03-.12-.05-.17-.05-.04,0-.06.02-.06.06s.02.09.06.15c.07.1.12.21.12.26,0,.04-.03.08-.07.08-.09,0-.25-.16-.48-.48-.17-.23-.25-.48-.25-.73,0-.55.42-.98.97-.98.28,0,.63.12.97.33l.63.38c.22.14.53.23.72.23.1,0,.13,0,.37-.07.07-.02.12-.04.17-.06.03-.02.05-.05.05-.08,0-.05-.03-.07-.11-.08-.29-.02-.89-.26-1.29-.51-.23-.15-.38-.23-.43-.25-.11-.04-.18-.09-.18-.14,0-.02.02-.03.06-.03h.08l.57.22.55.2c.27.1.69.18.88.18.25,0,.42-.17.42-.42,0-.12-.03-.27-.08-.36-.08-.16-.18-.29-.23-.29s-.08.05-.08.14v.07l.02.17c0,.18-.1.29-.25.29-.06,0-.13,0-.21-.04l-.85-.27c-.74-.24-1.02-.3-1.38-.3-1.02,0-1.8.69-1.8,1.61,0,1.04.71,1.69,2.54,2.32,1.77.62,2.01.76,2.01,1.22,0,.27-.25.48-.57.48-.12,0-.22,0-.31-.03-.08-.02-.37-.09-.89-.21-.54-.13-1.01-.18-1.62-.18-1.29,0-1.92.2-2.59.82-.16.15-.22.17-.39.17h-.09l-.21-.02c-.16,0-.27.07-.37.24l-.21.35s-.09.08-.15.08c-.14,0-.21-.09-.33-.4-.07-.17-.16-.3-.26-.39l-.27-.23s-.06-.07-.06-.1.02-.07.06-.13c.04-.05.08-.11.12-.18s.06-.13.07-.16v-.12s.06-.06.11-.06c.09,0,.1.06.1.38,0,.08.03.2.1.35l.14.31s.06.07.12.07c.14,0,.31-.32.35-.65.04-.28.07-.37.12-.37s.08.03.19.26c.03.07.09.14.16.2.06.05.12.09.16.09h.01c.11,0,.14-.07.17-.31v-.31s-.03-.13-.03-.13c0-.08.03-.13.08-.13.03,0,.06.02.1.05l.13.13c.09.09.18.13.26.13.11,0,.18-.05.18-.13,0-.07,0-.1-.13-.29,0-.02-.04-.08-.09-.17-.12-.22-.17-.27-.27-.27h-.13l-.17.08s-.09.03-.1.03c-.02,0-.04-.02-.04-.05,0-.12.08-.3.22-.53.09-.14.16-.49.22-1.02l.07-.61c.04-.38.08-.51.16-.51.03,0,.05,0,.05.03l.04.2v.16c0,.19.02.34.04.34.06,0,.14-.06.22-.18.06-.08.1-.17.13-.26.04-.14.07-.25.07-.34,0-.3-.13-.43-.54-.54-.04,0-.07-.03-.08-.04v-.34s-.04-.16-.04-.16l-.05-.13-.07-.14-.1.06c-.27.17-.33.22-.42.33-.12.15-.16.19-.21.19-.04,0-.06-.02-.06-.06l.05-.22v-.04c0-.29-.16-.56-.44-.77l-.09.1-.09.13-.16.18c-.09.11-.14.25-.14.39v.08c0,.1-.02.14-.06.14h-.03l-.1-.14-.13-.16-.23-.14-.12-.09c-.13.27-.13.3-.13.65v.11c0,.12-.04.19-.1.19-.03,0-.09-.02-.16-.06-.06-.03-.13-.05-.19-.05-.19,0-.33.16-.33.38,0,.24.05.4.21.66.1.17.24.31.3.31,0,0,.02-.12.04-.28l-.04-.22v-.1c0-.08.02-.14.07-.14.07,0,.12.08.16.3l.1.48.1.61c.03.16.08.34.16.52.1.25.18.4.22.46.14.19.16.21.16.25,0,.03-.03.06-.06.06s-.07,0-.12-.04c-.05-.02-.1-.04-.16-.05h-.1c-.22,0-.26.16-.26,1.02,0,.54.11,1.26.25,1.61l.27.69c.04.11.07.22.07.32,0,.95-1.29,2.48-2.65,3.13-.53.25-.68.52-.73,1.24.23-.11.32-.14.46-.18.38-.11.47-.16.52-.34l.05-.17c.02-.07.07-.11.34-.25.1-.05.17-.11.21-.17.07-.11.12-.17.15-.17.04,0,.06.03.06.07v.02l-.15.37-.02.09c0,.27.15.5.43.64.02-.07.03-.12.04-.16.05-.2.09-.33.13-.39l.25-.37c.09-.13.11-.22.11-.56v-.41l-.02-.1c0-.07.03-.1.09-.1.05,0,.08.02.09.04l.04.25s.06.09.13.09c.13,0,.29-.16.46-.46.07-.12.09-.2.09-.31,0-.08-.02-.26-.04-.41v-.08c0-.06.03-.11.09-.11.03,0,.06,0,.06.02l.09.3c.03.1.1.17.17.17.2,0,.41-.41.43-.85.01-.28.05-.37.13-.37.03,0,.06,0,.06.03l.05.17c.02.06.06.1.09.1s.1-.06.18-.16c.05-.06.09-.11.12-.17.03-.05.04-.09.04-.14,0-.07-.01-.08-.12-.16-.1-.07-.14-.16-.14-.27,0-.19.08-.39.31-.8.21-.37.24-.41.29-.41s.09.05.09.11c0,.04,0,.08-.03.11-.03.08-.05.13-.05.16,0,.05.05.09.1.09.06,0,.14-.03.24-.08.06-.03.17-.08.35-.14.24-.09.39-.14.44-.16.08-.03.17-.04.27-.04.08,0,.15,0,.23.03.15.03.25.05.3.05.12,0,.21-.09.21-.21,0-.05-.04-.15-.08-.23-.07-.11-.11-.17-.12-.18-.06-.06-.08-.09-.08-.12v-.05s.06-.05.09-.05c.1,0,.3.21.49.51,1.02,1.67,1.52,2.2,2.27,2.42.78.24.97.4.97.87,0,.25-.13.55-.41.93-.52.72-.7,1.15-.7,1.63v.11c.06-.03.11-.05.14-.07.11-.05.18-.09.21-.09l.32-.06c.1-.02.18-.14.18-.27v-.03l-.03-.29v-.05c0-.16.08-.29.17-.29.04,0,.08.03.1.08l.21.44c.08.18.18.27.46.39h0l-.02.07Z"/><path class="cls-2" d="m27.86,5.4v.21l-.02.13c0,.21.03.3.11.3.09,0,.22-.16.28-.34.04-.11.07-.26.07-.35,0-.06-.02-.12-.07-.25-.06-.14-.12-.21-.19-.21-.11,0-.16.14-.19.51h.01Z"/><path class="cls-2" d="m26.96,2.99l.18.18c.27.27.45.81.45,1.33v.22l-.05.61v.51c-.01,1.7.48,2.86,1.21,2.86.18,0,.41-.17.56-.42.03-.05.08-.09.1-.09.04,0,.06.03.06.11l.03.29.03.25c.01.12.03.21.04.27.03.13.04.21.04.26,0,.13-.03.15-.34.19-.12,0-.24.06-.36.14-.2.13-.32.22-.34.26l-.14.3s-.05.06-.08.06c-.08,0-.18-.12-.32-.37-.13-.23-.19-.36-.19-.42,0-.04.03-.06.11-.06h.19s.12,0,.12,0l.11-.03s.08-.05.08-.1c0-.03-.02-.06-.05-.07l-.59-.25c-.14-.06-.29-.21-.43-.43-.15-.24-.24-.45-.24-.57,0-.09.04-.15.1-.15.02,0,.06,0,.1.03.07.03.13.05.15.05s.05,0,.07-.03c.03-.02.04-.04.04-.06,0-.04-.04-.09-.1-.13-.49-.35-.78-.77-.78-1.11,0-.1.02-.15.07-.15h.1c.07.02.16.04.18.04.07,0,.12-.04.12-.1,0-.04-.05-.09-.12-.12-.33-.16-.41-.26-.61-.72-.16-.35-.24-.5-.38-.68.17-.08.26-.11.41-.11.18,0,.29.12.42.43.08.2.17.33.22.33.02,0,.03-.04.03-.15,0-.13-.02-.26-.05-.39-.03-.12-.05-.22-.04-.29l-.03-.18-.14-.08c-.13-.07-.22-.24-.22-.43,0-.08,0-.16.03-.24,0-.02.03-.11.08-.3.06-.21.09-.43.09-.55v-.11l.12.13-.04.03Z"/><path class="cls-2" d="m28.53,12.39c-.27-.05-.32-.06-.62-.19-.21-.09-.35-.13-.49-.13-.21,0-.36.07-.55.22l.12.09.26.18.25.2c.06.05.14.08.22.08.26,0,.47-.12.82-.44h-.01Z"/><path class="cls-2" d="m33.55,14.76c.07-.16.11-.21.26-.34.36-.31.53-.54.53-.73v-.29c0-.17.03-.22.11-.22.04,0,.07.02.08.04l.07.16s.06.06.11.06c.09,0,.16-.07.32-.33.07-.11.1-.18.1-.26,0-.05,0-.1-.03-.15,0-.02-.04-.09-.09-.21-.03-.07-.05-.16-.05-.2,0-.09.04-.14.12-.14.04,0,.07.02.09.04l.1.13s.03.05.07.05c.05,0,.13-.05.17-.11l.1-.21s.04-.09.04-.12c0-.04-.04-.09-.11-.12l-.18-.08c-.21-.09-.39-.46-.39-.81,0-.04,0-.1.04-.17l.08-.22c.03-.07.04-.15.04-.22,0-.13-.04-.25-.13-.4s-.14-.24-.16-.27c-.08-.19-.12-.26-.18-.26-.05,0-.09.02-.17.06l-.13.08-.18.21-.18.09c-.11.06-.21.29-.21.49,0,.28.06.43.49,1.19.18.32.27.56.27.74,0,.53-.54.97-1.43,1.15-1.06.22-1.29.39-1.41,1.07.18-.09.26-.11.58-.11h.22c.17,0,.2,0,.31-.17.13-.18.25-.29.43-.36l.21-.09.17-.09h.05s.07,0,.07.04-.04.12-.12.22c-.13.15-.2.31-.2.43,0,.17.03.26.13.42h0Z"/><path class="cls-2" d="m31.9,12.74c.15.09.3.23.39.35.12.17.14.18.27.18.05,0,.12,0,.19-.03l.12-.03c.22-.04.29-.07.29-.13,0-.04-.02-.07-.05-.1l-.16-.13-.14-.13c-.09-.08-.27-.14-.41-.14-.16,0-.29.04-.49.16h-.01Z"/><path class="cls-2" d="m36.13,13.45h.08l.13-.03h.1l.07.02c.13,0,.2,0,.26-.06.08-.06.16-.16.25-.3.03-.06.05-.11.05-.15,0-.09-.08-.14-.22-.14-.36,0-.58.2-.72.65h0Z"/><path class="cls-6" d="m31.26,4.44c.01.12.08.22.14.22s.14-.19.28-.42c.18-.31.34-.58.34-.74,0-.06-.03-.1-.06-.1h-.01l-.14.14c-.08.08-.26.17-.43.23s-.21.11-.21.22l.02.11.11.23-.02.11h-.02Z"/><path class="cls-6" d="m30.12,3.47s-.11-.07-.15-.07c-.06,0-.08.03-.08.09v.04c.01.07.03.15.05.22.06.21.14.33.17.36l.2.33c.09.1.23.16.28.18h0s.06-.02.07-.05l.04-.26.06-.24v-.06c0-.06-.03-.12-.09-.15l-.22-.12-.35-.29.02.02Z"/><path class="cls-6" d="m30.98,5.13h-.22s-.06-.04-.16-.1c-.06-.03-.12-.05-.18-.05-.12,0-.19.07-.19.2,0,.1.06.29.17.54.05.11.1.25.17.42.14.36.29.52.49.52.17,0,.3-.14.41-.42l.14-.59c.07-.18.24-.26.24-.39,0-.15-.17-.29-.31-.29h-.08l-.2.15h-.29.01Z"/><path class="cls-2" d="m30.97,5.49h-.16s-.05,0-.07.04c-.03.04-.04.06-.04.07l.07.31.05.27c.03.15.05.21.17.21.13,0,.24-.09.25-.25l.03-.29c.02-.19.03-.29.03-.3,0-.03-.01-.06-.04-.08-.02-.02-.04-.03-.07-.03h-.01l-.21.04h0Z"/></g><g id="Lion_top_left"><path class="cls-6" d="m12.94,8.64l.05.2c.05.18.08.32.1.42.16.74.3.94.66.94.21,0,.38-.11.43-.29l.08-.26c.02-.06.06-.1.12-.1.14,0,.21.15.21.47,0,.09.03.31.09.64.03.2.05.39.05.57,0,.17-.01.24-.08.41.04.26.08.6.08.8,0,.32-.06.62-.16.78.05.22.07.3.07.49,0,.14-.01.29-.04.43-.06.31-.07.39-.07.45s.01.12.03.18c.03.08.04.13.04.16,0,.04-.02.07-.04.07l-.26-.1-.29-.16c-.09-.05-.16-.1-.3-.23-.25.23-.33.26-.99.44-.13.03-.23.08-.29.12-.08.06-.14.09-.17.09-.11,0-.17-.18-.17-.55,0-.28.03-.53.08-.73-.19-.07-.36-.12-.47-.12-.02,0-.09,0-.2.03h-.05s-.07-.05-.07-.12c0-.05.04-.18.08-.28l.13-.31c.05-.11.16-.24.31-.38.13-.11.25-.18.34-.2l.47-.09c.28-.05.45-.2.45-.4s-.13-.31-.41-.41l-.56-.2c-.14-.05-.32-.13-.51-.25-.31-.18-.36-.21-.44-.21-.11,0-.18.08-.18.23,0,.23.15.39.37.39.04,0,.09,0,.13-.03.06-.03.11-.04.13-.04.06,0,.09.03.09.1v.06l-.03.22c-.02.19-.14.42-.42.78l-.12.16c-.11.42-.37.8-.7,1.03-.09.06-.13.09-.14.1s-.05.07-.1.18c-.03.05-.11.15-.26.31-.11.12-.22.22-.33.3-.15.11-.23.19-.26.24l-.13.22s-.06.06-.11.06c-.11,0-.22-.12-.29-.33-.05-.15-.09-.2-.19-.2-.05,0-.13,0-.23.04l-.18.03h-.47c-.23,0-.57.06-.72.13-.06.03-.11.04-.13.04-.03,0-.05-.02-.09-.08-.02-.04-.03-.06-.03-.1,0-.24.17-.69.39-1.04.14-.23.19-.28.35-.42-.05-.22-.19-.39-.36-.44l-.22-.07s-.05-.04-.05-.06c0-.07.11-.16.3-.26.25-.13.51-.21.72-.21s.43.09.67.27c.35.28.45.33.62.33.28,0,.54-.26.54-.52,0-.18-.09-.37-.34-.69-.36-.47-.47-.71-.47-1.06,0-.21.07-.49.15-.61l.13-.19s.04-.09.04-.13c0-.09-.1-.15-.24-.15-.21,0-.6.15-.92.34-.16.1-.26.21-.26.28,0,.04.02.08.05.1l.14.09s.03.03.03.05-.02.06-.05.1l-.26.34c-.13.18-.34.39-.55.57-.07.06-.11.1-.13.13,0,0-.04.07-.1.2-.09.17-.34.43-.57.59-.1.07-.16.11-.18.14-.02.02-.05.08-.1.18-.03.06-.09.16-.17.27-.13.19-.23.32-.31.4l-.37.37c-.11.11-.21.33-.36.81-.09.29-.18.46-.22.46-.02,0-.06-.03-.1-.08-.26-.29-.48-.47-.6-.47-.03,0-.08.02-.15.07-.1.06-.21.11-.35.13l-.48.09c-.36.07-.51.15-.72.39-.05.06-.09.09-.11.09-.04,0-.07-.06-.07-.15v-.12l.08-.35c.07-.38.16-.66.26-.85l.22-.4c.04-.08.07-.15.07-.21,0-.3-.31-.58-.69-.61-.1,0-.13-.03-.13-.08,0-.07.11-.2.25-.31.26-.2.6-.34.82-.34.13,0,.34.06.59.16l.29.12c.11.04.2.07.29.07.3,0,.6-.28.96-.9.16-.28.23-.49.23-.67,0-.33-.16-.53-.41-.53-.2,0-.41.09-.56.25-.13.13-.2.27-.2.4v.17c0,.12-.04.19-.11.19-.12,0-.3-.18-.81-.8-.38-.46-.47-.66-.48-1.12-.44-.56-.55-.8-.55-1.2l.02-.27c-.31-.37-.39-.57-.39-.91,0-.12.02-.2.09-.34-.16-.23-.21-.33-.25-.51l-.07-.27c-.04-.19-.11-.35-.21-.48-.12-.17-.13-.19-.13-.25,0-.15.1-.21.56-.32-.02-.13-.03-.22-.03-.29,0-.08,0-.15.04-.31l.09-.48c.04-.19.06-.33.06-.42s0-.15-.1-.42c-.05-.15-.08-.25-.12-.3-.04-.07-.08-.15-.08-.18,0-.05.03-.07.09-.07.13,0,.47.21.82.5.75.62.9.87,1,1.62,0,.06.02.15.04.26.36.26.55.58.55.92,0,.27-.1.58-.26.84l-.26.4c-.08.12-.12.27-.12.43,0,.25.07.47.25.78.2.35.37.5.58.5.34,0,.64-.6.64-1.28v-.33c0-.13,0-.26.03-.43.02-.2.04-.33.04-.38v-.31l.02-.21c0-.07-.04-.15-.14-.25l-.29-.31c-.42-.45-.64-.88-.64-1.2,0-.4.28-.69.67-.69.08,0,.14,0,.28.05v-.09c0-.57.12-1,.28-1l.06.02.24.21.29.18.08.08c0-.16,0-.18.17-.37.04-.04.1-.13.18-.25.07-.1.11-.16.13-.2.02-.03.04-.07.07-.12.03-.07.07-.1.11-.1s.07.05.11.19c.03.09.05.11.27.31.08.07.13.13.16.17.02.04.06.12.11.26,0,.02.02.06.04.11.1-.12.14-.17.26-.24l.2-.12c.07-.04.12-.07.14-.07s.04.03.06.08c.02.05.06.11.1.2.14.24.19.36.19.47v.29c.43.13.59.36.59.82,0,.33-.17.71-.51,1.11-.22.27-.25.32-.25.51,0,.96.67,1.52,1.85,1.54h.87c.56.02.9.08,1.42.25.62.2.8.25.98.25.06,0,.12-.02.17-.05s.08-.08.08-.12c0-.18-.32-.33-1.37-.63-2.15-.61-3.06-1.47-3.06-2.9,0-1.1.91-1.95,2.1-1.95.38,0,.97.1,1.3.22l.53.2c.1.04.19.05.28.05.18,0,.27-.15.28-.46,0-.16.04-.22.15-.22.15,0,.38.19.59.48.21.3.35.63.35.86,0,.3-.14.5-.46.68-.29.45-.65.65-1.14.65-.38,0-.91-.21-1.8-.72-.31-.18-.47-.23-.63-.23-.23,0-.38.13-.38.34,0,.19.15.31.53.44.56.2.7.27.93.51.66.12.95.23,1.37.55,1.14.36,1.85,1.14,1.85,2.04s-.59,1.5-1.41,1.5c-.19,0-.31,0-.62-.08h.03Z"/><path class="cls-2" d="m14.23,14.34c-.04-.16-.05-.24-.05-.31v-.1l.05-.21v-.17c.01-.18-.02-.31-.08-.39l-.16-.21c-.05-.07-.1-.15-.13-.25-.02-.05-.03-.08-.03-.11,0-.06.04-.1.09-.1.03,0,.05,0,.17.08.05.03.09.04.13.04.08,0,.12-.13.12-.35,0-.25-.02-.39-.08-.45l-.2-.22-.17-.14s-.07-.08-.07-.11c0-.06.04-.1.11-.1.06,0,.18.03.29.07h.06c.05,0,.07-.02.07-.1v-.05l-.04-.27-.08-.29c-.03-.09-.04-.11-.1-.11h-.03l-.32.07h-.05c-.43,0-.88-.36-1.02-.81l-.26-.85c-.08-.26-.28-.51-.63-.8-.11-.09-.2-.14-.26-.14l-.24-.03s-.07-.03-.07-.07c0-.05.05-.08.16-.08l.43.04c.16,0,.39.08.7.18.39.13.65.19.87.19.65,0,1.04-.35,1.04-.94,0-.4-.21-.86-.53-1.15-.18-.16-.37-.29-.43-.29-.04,0-.07.03-.07.07v.19c.01.07-.03.12-.08.12-.07,0-.14-.09-.22-.26-.25-.51-.64-.82-1.04-.82-.07,0-.12.03-.12.07,0,.03.02.09.06.19l.1.23c.03.06.04.1.04.12,0,0-.03.03-.06.03-.06,0-.16-.05-.22-.12l-.19-.21-.17-.26c-.14-.21-.25-.3-.53-.46-.16-.09-.27-.14-.31-.17-.06-.03-.12-.05-.16-.05s-.07.02-.07.07c0,.04.02.09.05.14.1.15.13.22.13.26s-.03.08-.07.08c-.1,0-.31-.2-.5-.48-.15-.23-.24-.49-.24-.73,0-.56.41-.98.96-.98.29,0,.65.12.98.33l.61.38c.21.13.53.23.71.23.08,0,.25-.03.38-.07.06-.02.11-.04.16-.06.04-.02.06-.05.06-.07,0-.03-.01-.05-.04-.06l-.08-.03-.29-.05c-.07,0-.19-.06-.35-.13-.34-.16-.56-.27-.65-.33-.21-.14-.36-.22-.43-.25-.11-.04-.17-.08-.17-.12s.02-.06.06-.06.09.02.14.05c.19.12.36.18.48.18l.56.2c.28.1.68.18.87.18.24,0,.43-.19.43-.43,0-.15-.09-.38-.23-.57-.03-.04-.06-.07-.09-.07-.05,0-.08.04-.08.1v.11l.03.16c0,.17-.11.3-.26.3-.05,0-.12,0-.21-.04l-.85-.27c-.71-.23-1.04-.3-1.39-.3-1.01,0-1.79.7-1.79,1.61,0,1.04.73,1.71,2.53,2.32,1.77.61,2.02.76,2.02,1.21,0,.26-.27.5-.56.5-.12,0-.22,0-.31-.03-.06,0-.36-.08-.89-.21-.54-.13-1.02-.18-1.62-.18-1.28,0-1.99.22-2.6.82-.15.15-.2.17-.38.17h-.09l-.18-.02h-.02c-.15,0-.27.07-.37.23-.14.22-.21.34-.22.35-.04.05-.09.08-.15.08-.12,0-.19-.09-.32-.4-.06-.15-.16-.29-.27-.39l-.26-.23s-.07-.07-.07-.1.02-.07.05-.12c.13-.18.17-.26.18-.34.03-.17.04-.18.11-.18.08,0,.1.08.11.38,0,.09.04.21.11.35l.14.31s.06.07.12.07c.13,0,.31-.32.35-.65.04-.28.07-.37.12-.37.02,0,.05,0,.06.03.01.02.05.1.12.23.03.07.09.14.17.2.07.06.13.09.16.09h.02c.11,0,.14-.07.17-.31v-.31s-.03-.13-.03-.13c0-.08.03-.13.08-.13.03,0,.06.02.1.05l.13.13c.09.09.17.13.26.13.11,0,.17-.04.17-.12,0-.06-.02-.12-.12-.3l-.09-.17c-.1-.2-.19-.27-.29-.27h-.13l-.16.08c-.05.02-.08.03-.1.03s-.04-.02-.04-.05c0-.12.08-.3.22-.53.1-.17.17-.52.21-1.02.04-.68.14-1.12.23-1.12.07,0,.09.05.09.2v.3c-.01.12.02.22.05.22.11,0,.24-.17.35-.44.04-.11.07-.2.07-.27v-.06l-.27-.48-.26-.08s-.08-.04-.09-.06v-.32l-.03-.16-.05-.13-.06-.14c-.29.15-.42.26-.52.39-.1.14-.16.19-.21.19-.03,0-.06-.03-.06-.07,0-.03.01-.1.04-.21v-.07c0-.28-.16-.56-.44-.73l-.08.1-.09.13-.16.18c-.05.06-.09.15-.13.26-.02.06-.03.11-.03.15v.07c0,.11-.01.14-.06.14h-.03l-.09-.14-.14-.16-.22-.14-.12-.09s-.04.09-.05.12c-.04.09-.06.16-.06.21v.21l-.03.22v.04c0,.11-.03.16-.1.16-.02,0-.09-.03-.15-.07-.06-.03-.12-.05-.19-.05-.2,0-.33.14-.33.36,0,.26.08.51.21.68l.17.22c.05.06.13.11.14.08l.03-.27-.04-.22v-.1c0-.08.02-.14.07-.14.07,0,.12.08.17.3l.1.48.11.61c.03.16.08.34.16.52.1.25.18.4.22.46.15.19.16.21.16.25,0,.03-.03.06-.06.06s-.07,0-.12-.04c-.05-.02-.1-.04-.16-.05h-.1c-.21,0-.25.16-.25,1.03,0,.53.11,1.25.25,1.6l.27.69c.04.11.07.22.07.32,0,.95-1.26,2.44-2.65,3.13-.52.25-.68.5-.72,1.07v.17c.2-.11.28-.15.43-.18.39-.1.46-.15.52-.34l.05-.17c.02-.06.05-.09.35-.25.1-.05.17-.11.21-.17.07-.11.12-.17.15-.17s.05.02.05.04v.05l-.14.37-.02.09c0,.28.15.5.43.64.05-.3.08-.4.17-.55l.23-.37c.09-.14.12-.3.12-.56,0-.15-.01-.3-.03-.41v-.1c0-.07.03-.1.08-.1s.08.02.09.04l.05.25s.06.09.13.09c.13,0,.29-.16.46-.46.06-.11.1-.23.1-.35l-.02-.18-.04-.19v-.04c0-.09.04-.15.11-.15.03,0,.05,0,.06.03l.08.3c.03.1.1.17.17.17.09,0,.24-.15.33-.33.08-.16.12-.33.12-.53,0-.28.03-.36.13-.36.03,0,.06,0,.06.03l.05.17c.02.06.06.1.09.1.05,0,.2-.16.3-.33.03-.04.04-.09.04-.12,0-.06-.04-.11-.12-.18-.14-.11-.14-.13-.14-.3s.03-.25.14-.46c.06-.11.12-.22.17-.31.16-.32.22-.41.28-.41.05,0,.1.05.1.11,0,.03,0,.07-.03.11-.04.07-.05.13-.05.15,0,.05.04.09.1.09s.14-.03.23-.08c.03-.02.16-.07.36-.14l.43-.16c.07-.03.16-.04.26-.04.08,0,.16,0,.23.03.15.03.25.05.3.05.12,0,.22-.1.22-.22,0-.09-.09-.26-.21-.4-.04-.05-.07-.09-.07-.12l.02-.05s.04-.05.07-.05c.09,0,.29.22.48.51,1.12,1.77,1.52,2.19,2.28,2.42.77.23.97.41.97.87,0,.25-.13.54-.41.93-.57.79-.7,1.11-.7,1.64v.1c.06-.03.11-.05.14-.07.11-.05.18-.09.21-.09l.33-.06c.1-.02.19-.15.19-.27v-.03l-.04-.29v-.04c0-.1.05-.22.12-.28.02-.02.04-.03.07-.03.04,0,.08.03.1.08l.21.44c.09.18.18.27.46.39h0l.03.07Z"/><path class="cls-2" d="m3.72,4.89c-.1,0-.14.08-.15.26l-.03.25c-.03.23-.03.26-.03.32,0,.19.06.32.13.32.08,0,.21-.16.28-.34.04-.11.06-.21.06-.3s-.02-.19-.06-.29c-.05-.13-.12-.21-.2-.21h0Z"/><path class="cls-2" d="m2.64,2.99l.18.18c.3.3.44.79.44,1.49,0,.15,0,.26-.04.67-.02.22-.03.4-.03.54,0,1.62.53,2.84,1.22,2.84.22,0,.36-.1.57-.42.03-.05.09-.09.12-.09.04,0,.06.03.06.11l.03.29.03.25.03.27.04.25v.03c0,.07-.03.11-.09.12l-.23.04c-.12.02-.24.07-.36.14-.2.12-.31.21-.34.26l-.14.3s-.05.06-.08.06c-.08,0-.2-.13-.34-.37-.12-.2-.19-.36-.19-.43,0-.04.03-.06.11-.06h.41s.08-.06.08-.1c0-.03-.02-.07-.05-.08l-.59-.25c-.18-.08-.34-.23-.44-.43-.16-.31-.24-.49-.24-.59,0-.08.04-.13.11-.13.02,0,.05,0,.09.03.06.03.13.05.17.05.05,0,.1-.04.1-.08s-.05-.1-.1-.14c-.49-.36-.77-.76-.77-1.12,0-.1.02-.15.08-.15h.09l.17.04h0c.06,0,.11-.04.11-.1,0-.04-.04-.09-.11-.12-.12-.07-.19-.1-.21-.12-.07-.05-.13-.11-.18-.18-.02-.03-.1-.17-.22-.42l-.18-.35c-.07-.13-.11-.21-.12-.22,0-.02-.04-.05-.08-.1.17-.08.26-.11.41-.11.18,0,.29.12.42.43.08.2.17.33.21.33.02,0,.03-.04.03-.15,0-.13-.02-.26-.05-.39-.03-.12-.05-.22-.04-.29l-.03-.18-.16-.08s-.08-.06-.12-.13c-.07-.11-.1-.21-.1-.3,0-.06,0-.14.04-.24.13-.5.17-.69.17-.85v-.11l.12.13v.03Z"/><path class="cls-2" d="m4.21,12.39c-.18-.03-.27-.05-.38-.09-.03,0-.11-.05-.25-.1-.21-.09-.37-.13-.5-.13-.2,0-.36.07-.54.22l.12.09.26.18.25.2c.06.05.14.08.21.08.26,0,.48-.12.83-.44h0Z"/><path class="cls-2" d="m9.22,14.76c.07-.16.11-.21.26-.34.36-.31.53-.54.53-.73v-.29c0-.17.03-.22.12-.22.04,0,.07.02.08.04l.06.16s.06.06.11.06.13-.06.19-.15l.13-.18c.07-.09.09-.17.09-.25,0-.05-.01-.1-.03-.15-.01-.03-.04-.09-.09-.21-.03-.07-.05-.16-.05-.2,0-.09.04-.14.12-.14.04,0,.07.02.09.04l.1.13s.06.05.1.05c.05,0,.1-.05.14-.11l.1-.21s.04-.09.04-.12c0-.04-.04-.08-.12-.12l-.17-.08c-.22-.1-.39-.46-.39-.84,0-.05.01-.1.03-.14l.09-.22c.03-.06.04-.13.04-.21,0-.14-.04-.27-.13-.4-.1-.16-.16-.25-.17-.27-.08-.21-.12-.26-.18-.26l-.07.02-.09.05-.14.08-.17.21-.18.09c-.11.05-.21.29-.21.48,0,.34.04.43.48,1.2.17.3.27.56.27.74,0,.53-.48.91-1.44,1.14l-.6.14c-.44.11-.7.41-.8.93.18-.09.25-.11.58-.11h.22c.17,0,.2,0,.31-.17.13-.18.26-.29.43-.36l.21-.09.17-.09h.05s.07,0,.07.04c0,.05-.05.14-.12.22-.15.17-.21.31-.21.5,0,.13.03.2.14.34h.01Z"/><path class="cls-2" d="m7.58,12.74c.15.09.3.23.39.35.12.17.14.18.27.18.05,0,.12,0,.19-.03l.12-.03c.22-.04.29-.07.29-.13,0-.03-.02-.07-.07-.11l-.14-.13-.14-.13c-.09-.08-.27-.15-.43-.15s-.25.03-.47.16h0v.02Z"/><path class="cls-2" d="m11.81,13.45h.08l.12-.03h.12l.06.02c.29,0,.57-.25.57-.5,0-.09-.08-.14-.23-.14-.35,0-.57.2-.71.65h-.01Z"/><path class="cls-6" d="m6.94,4.44c.01.12.08.22.14.22.05,0,.12-.14.25-.37.18-.31.36-.62.36-.78,0-.06-.03-.1-.07-.1h-.01l-.14.13c-.1.09-.19.14-.44.23-.15.06-.2.11-.2.22l.02.1.07.18.03.16h-.01Z"/><path class="cls-6" d="m6.15,3.76l.22.12c.06.03.09.07.09.13l-.02.08c-.03.11,0,.23,0,.28-.01.23-.19.23-.26.23-.04,0-.02-.03-.12-.14l-.29-.33c-.09-.1-.17-.33-.2-.59v-.03c0-.07.02-.1.08-.1.03,0,.1.03.14.07l.35.29h0Z"/><path class="cls-6" d="m6.66,5.13h-.22s-.06-.04-.16-.1c-.06-.03-.12-.05-.19-.05-.12,0-.19.07-.19.16,0,.11.05.29.17.58l.17.42c.15.37.29.52.48.52.17,0,.19-.17.31-.46.26-.66.41-.75.41-.98,0-.16-.03-.2-.18-.2l-.12-.03-.21.13h-.27Z"/><path class="cls-2" d="m6.64,5.49h-.17s-.05,0-.07.04l-.03.07.06.31.05.27c.03.15.08.21.2.21.13,0,.21-.09.22-.25l.03-.29c.02-.19.03-.29.03-.3,0-.03-.01-.06-.04-.08-.02-.02-.04-.03-.07-.03h-.01l-.21.04h.01Z"/></g></g><path class="cls-6" d="m23.64,17.19c-.11-.28-.39-.47-.71-.47s-.59.2-.71.47h-1.11c-.11-.28-.39-.47-.71-.47s-.59.2-.71.47h-1.11c-.11-.28-.39-.47-.71-.47s-.59.2-.71.47h-1.44v6.76h1.28v2.59h1.5v-2.59h3.78v2.59h1.5v-2.59h1.28v-6.76h-1.44.02Z"/><rect class="cls-2" x="17.3" y="24.53" width=".78" height="1"/><rect class="cls-2" x="17.3" y="25.76" width=".78" height=".32"/><rect class="cls-2" x="22.58" y="24.53" width=".78" height="1"/><rect class="cls-2" x="22.58" y="25.76" width=".78" height=".32"/><rect class="cls-4" x="16.27" y="17.74" width="8.29" height=".31"/><rect class="cls-4" x="16.27" y="18.34" width="8.29" height="5.08"/><path class="cls-2" d="m17.54,17.53c0-.2.16-.36.36-.36s.36.16.36.36v.93c0,.2-.16.36-.36.36s-.36-.16-.36-.36v-.93Z"/><path class="cls-2" d="m20.06,17.53c0-.2.16-.36.36-.36s.36.16.36.36v.93c0,.2-.16.36-.36.36s-.36-.16-.36-.36v-.93Z"/><path class="cls-2" d="m22.58,17.53c0-.2.16-.36.36-.36s.36.16.36.36v.93c0,.2-.16.36-.36.36s-.36-.16-.36-.36v-.93Z"/><path class="cls-2" d="m18.43,20.93c.53.67,1.21,1,2.04,1,.77,0,1.3-.28,1.93-1-.62-.64-1.2-.91-1.97-.91s-1.52.33-2,.91h0Z"/><path class="cls-6" d="m20.41,20.33c-.57,0-1.04.18-1.59.61.46.45.99.68,1.58.68.66,0,1.1-.18,1.59-.67-.57-.45-1-.62-1.58-.62Zm-.02.76c-.31,0-.57-.08-.9-.29.28-.15.58-.22.91-.22s.63.08.94.22c-.29.2-.59.29-.96.29h0Z"/><path class="cls-6" d="m23.67,22.97c-.25,0-.45-.2-.45-.45s.2-.45.45-.45.45.2.45.45-.2.45-.45.45Z"/><path class="cls-2" d="m23.67,22.18c-.19,0-.34.15-.34.34s.15.34.34.34.34-.15.34-.34-.15-.34-.34-.34Z"/><path class="cls-6" d="m17.17,22.97c-.25,0-.46-.2-.46-.45s.2-.45.45-.45.45.2.45.45-.19.45-.43.45h-.01Z"/><path class="cls-2" d="m17.16,22.18c-.19,0-.34.15-.34.34s.16.34.36.34c.18,0,.33-.15.33-.34s-.15-.34-.34-.34h-.01Z"/><path class="cls-6" d="m17.16,19.88c-.25,0-.45-.2-.45-.45s.2-.45.45-.45.45.2.45.45-.2.45-.45.45Z"/><path class="cls-2" d="m17.16,19.09c-.19,0-.34.15-.34.34s.15.34.34.34.34-.15.34-.34-.15-.34-.34-.34Z"/><path class="cls-6" d="m23.67,19.88c-.25,0-.45-.2-.45-.45s.2-.45.45-.45.45.2.45.45-.2.45-.45.45Z"/><path class="cls-2" d="m23.67,19.09c-.19,0-.34.15-.34.34s.15.34.34.34.34-.15.34-.34-.15-.34-.34-.34Z"/></g></g></g></svg>