<?xml version="1.0" encoding="UTF-8"?><svg id="Layer_2" xmlns="http://www.w3.org/2000/svg" viewBox="0 0 105.52 98.77"><defs><style>.cls-1{fill:#fff;}</style></defs><g id="Layer_1-2"><g><path class="cls-1" d="M105.52,50.01c-.33,2.16-.53,4.35-1,6.48-3.06,13.96-10.86,24.46-23.21,31.61-.14,.08-.3,.13-.59,.26,.52-2.63,.24-5.08-.67-7.18,2.61-2.3,5.26-4.33,7.56-6.71,5.92-6.13,9.4-13.52,10.59-21.97,.04-.31-.25-.83-.54-1.01-2.16-1.33-4.36-2.61-6.54-3.9-.29-.17-.56-.35-.94-.59,2.52-1.49,4.92-2.94,7.36-4.33,.6-.34,.75-.66,.64-1.38-1.27-8.56-4.92-15.96-10.93-22.15-6.03-6.22-13.34-10.12-21.91-11.59-2.04-.35-2.05-.31-3.12,1.5-1.05,1.77-2.09,3.55-3.14,5.32-.17,.29-.37,.55-.62,.95-1.42-2.41-2.83-4.67-4.11-7.01-.51-.93-1.07-1.1-2.04-.93-10.98,1.89-19.76,7.33-26.36,16.29-.24,.33-.48,.66-.71,.99-1.7-1.58-3.38-3.13-5.23-4.86,1.78-2.02,3.53-4.23,5.51-6.2C32.29,6.89,40.38,2.54,49.75,.85c13.53-2.44,25.97,.36,36.98,8.64,10.26,7.72,16.3,18.09,18.31,30.78,.2,1.25,.32,2.51,.48,3.76v5.98Z"/><path class="cls-1" d="M61.54,98.77c-5.32-.21-10.07-1.84-14.67-3.99-9.58-4.48-17.76-10.9-25.17-18.35-6.31-6.33-11.82-13.29-16.05-21.19C2.86,50.01,.63,44.57,.08,38.58c-.33-3.63,.34-6.89,3.26-9.41,1.43-1.23,2.69-2.65,4.13-3.87,3.49-2.98,6.99-3.16,10.55-.3,3.45,2.77,6.01,6.31,7.7,10.41,1.29,3.12,.58,5.92-1.67,8.36-.91,.99-1.82,1.97-2.8,2.89-1.21,1.14-1.65,2.53-1.06,4.02,.72,1.8,1.51,3.62,2.6,5.21,3.94,5.76,8.91,10.61,14.04,15.3,2.64,2.41,5.4,4.68,8.58,6.36,.78,.41,1.62,.75,2.46,1.02,1.69,.54,3.14,.21,4.39-1.15,.95-1.03,1.99-1.99,3.05-2.92,2.38-2.09,5.1-2.64,8.04-1.42,4.26,1.77,7.94,4.4,10.72,8.09,2.5,3.32,2.37,6.59-.31,9.79-1.72,2.04-3.64,3.93-5.56,5.78-1.89,1.82-4.37,1.98-6.65,2.03Z"/><path class="cls-1" d="M44.88,51.7h10.91v5.46h-17.99c-.91-4.44,.23-8.18,3.66-11.12,1.61-1.38,3.39-2.57,5.08-3.86,.46-.35,.93-.72,1.33-1.13,.93-.96,1.11-2,.6-3-.46-.89-1.64-1.44-2.8-1.33-1.69,.16-2.63,1.33-3.61,2.7-1.54-1.03-3.06-2.05-4.66-3.11,.62-1.5,1.68-2.6,2.88-3.56,3.35-2.7,8.95-2.77,12.3-.17,3.38,2.62,3.91,7.88,.98,11.31-1.12,1.31-2.57,2.36-3.94,3.43-1.13,.89-2.41,1.58-3.54,2.47-.55,.43-.93,1.09-1.39,1.64,.07,.09,.13,.18,.2,.27Z"/><path class="cls-1" d="M76.4,45.57h3.03v5.27h-2.97v6.29h-6.34v-6.21h-11.62c.14-1.94-.26-3.71,.95-5.49,3-4.43,5.77-9,8.61-13.54,.37-.58,.75-.85,1.47-.83,2.25,.05,4.51,.02,6.87,.02v14.49Zm-6.27-.05v-7.97c-1.59,2.52-3.29,5.19-5.05,7.97h5.05Z"/></g></g></svg>