<?xml version="1.0" encoding="UTF-8"?><svg id="Layer_2" xmlns="http://www.w3.org/2000/svg" viewBox="0 0 88.3 91.37"><defs><style>.cls-1{fill:#fff;}</style></defs><g id="Layer_1-2"><g><path class="cls-1" d="M6.09,25.89c0-.99,.02-1.84,0-2.7-.04-1,.4-1.59,1.36-1.9,2.08-.66,4.14-1.38,6.26-2.09,0-3.45,0-6.88,0-10.3,0-.79-.03-1.6,.09-2.37C14.42,2.63,17.5,.01,21.48,0,32.17,0,42.86,0,53.54,0c4.35,0,8.69,0,13.04,0,4.76,0,8.01,3.24,8.02,8,0,3.71,0,7.42,0,11.2,2,.67,3.97,1.32,5.95,1.99,1.46,.49,1.66,.78,1.66,2.34,0,.75,0,1.51,0,2.36,1.44,0,2.79,0,4.14,0,1.43,0,1.94,.52,1.94,1.96,0,15.45,0,30.9,0,46.34,0,1.42-.52,1.94-1.96,1.94-3.87,0-7.73,0-11.74,0,0,.34,0,.65,0,.95,0,2.22,.02,4.44,0,6.66-.05,4.28-3.35,7.6-7.63,7.61-15.19,.02-30.38,.02-45.58,0-4.33,0-7.63-3.34-7.67-7.67-.02-2.47,0-4.94,0-7.55-.38,0-.71,0-1.05,0-3.55,0-7.1,0-10.66,0-1.49,0-2-.51-2-2,0-15.42,0-30.83,0-46.25,0-1.49,.5-1.99,2-2,1.33,0,2.65,0,4.09,0Zm3.04,43.62c5.48-2.08,10.95-3.57,16.74-3.58,5.81-.01,11.28,1.53,16.68,3.52,.05-.25,.07-.31,.07-.37,0-14.84,0-29.69,.02-44.53,0-.54-.24-.7-.67-.84-1.66-.53-3.31-1.09-4.96-1.64-5.52-1.82-11.18-2.4-16.88-1.27-3.4,.67-6.69,1.88-10.04,2.81-.73,.2-.97,.52-.97,1.31,.03,14.5,.02,28.99,.02,43.49,0,.31,0,.62,0,1.11Zm36.56,.09c11.16-4.84,22.28-4.83,33.47,0v-1.43c0-14.27-.02-28.55,.03-42.82,0-1.13-.36-1.55-1.38-1.89-4.82-1.61-9.63-3.1-14.79-3.2-6.09-.11-11.74,1.66-17.32,3.74v45.61Zm21.28-52.17c0-2.79,.02-5.55-.01-8.31-.01-.93-.64-1.49-1.62-1.5-2.98-.02-5.96-.02-8.94,0-.96,0-1.5,.58-1.6,1.54-.29,2.96-2.03,4.54-5.02,4.54-3.71,0-7.42,0-11.13,0-3.14,0-4.8-1.48-5.17-4.6-.1-.88-.58-1.46-1.46-1.47-3.08-.04-6.15-.03-9.23,0-.84,0-1.44,.53-1.45,1.35-.05,2.82-.02,5.63-.02,8.51,.36-.03,.63-.07,.91-.07,2.5,0,5.01-.11,7.5,.04,4.15,.24,8.08,1.54,11.94,2.98,1.7,.64,3.2,.65,4.91,.01,3.89-1.44,7.85-2.78,12.03-3,2.74-.15,5.5-.03,8.36-.03ZM16.84,76.17c-.51,3.82,1.42,6.05,5.17,6.05,14.8,0,29.6,0,44.4,0,3.62,0,5.65-2.42,5.03-6.05H16.84ZM71.51,18.29c.02-.33,.04-.61,.04-.89,0-3.17,0-6.34,0-9.51,0-2.92-1.92-4.84-4.82-4.84-15.06,0-30.12,0-45.18,0-2.89,0-4.8,1.94-4.81,4.85,0,3.17,0,6.34,0,9.51,0,.27,.03,.55,.04,.9,.52-.12,.97-.22,1.48-.33,0-2.91,0-5.76,0-8.61,.01-2.85,1.93-4.79,4.76-4.8,2.92-.01,5.83-.01,8.75,0,2.69,.01,4.53,1.74,4.75,4.43,.1,1.14,.62,1.65,1.77,1.65,3.9,.01,7.8,.01,11.7,0,1.16,0,1.67-.51,1.76-1.65,.2-2.65,2.09-4.42,4.76-4.43,2.92-.01,5.83-.01,8.75,0,2.79,.01,4.73,1.94,4.75,4.72,.02,2.57,0,5.14,0,7.7,0,.34,0,.68,0,1.01,.56,.11,.99,.19,1.48,.29ZM16.75,83.71c.02,.39,.02,.58,.05,.76,.42,2.3,2.25,3.84,4.63,3.84,15.16,0,30.31,0,45.47,0,.16,0,.32,0,.48-.01,2.32-.2,4.17-2.2,4.09-4.54-2.01,1.57-4.32,1.53-6.66,1.52-14.05-.02-28.1-.02-42.14,0-2.07,0-4.05-.19-5.92-1.57ZM3.11,28.97v44.08H7.11c-1.08-.62-1.03-1.48-1.03-2.34,0-13.53,0-27.06,0-40.6v-1.15H3.11Zm79.1,0v1.22c0,13.31,0,26.62,0,39.93,0,1.03,.23,2.12-.84,2.91h3.83V28.97h-2.99Zm-39.01,44.1c-11.52-5.41-23.15-5.36-34.63,0H43.19Zm1.98-.02h34.49c-11.42-5.38-23.05-5.35-34.49,0Z"/><path class="cls-1" d="M24.79,30.46c4.1,.02,7.91,.6,11.62,1.76,.41,.13,.86,.3,1.17,.58,.55,.5,.65,1.16,.25,1.81-.41,.66-1.01,.87-1.8,.69-2.12-.51-4.23-1.08-6.38-1.42-5.09-.8-10.1-.27-15.02,1.2-1.51,.45-2.33,.23-2.63-.74-.32-1.04,.2-1.68,1.78-2.17,3.66-1.14,7.4-1.68,11.01-1.7Z"/><path class="cls-1" d="M24.38,36.54c4.47,.03,8.25,.59,11.93,1.73,.24,.07,.49,.14,.72,.24,.83,.36,1.21,1.16,.92,1.93-.29,.79-1.03,1.14-1.92,.94-2.13-.49-4.23-1.08-6.38-1.42-4.96-.78-9.85-.31-14.66,1.1-.36,.11-.73,.23-1.09,.32-.88,.22-1.66-.18-1.91-.96-.26-.85,.12-1.72,1.05-1.93,2.71-.63,5.42-1.22,8.16-1.72,1.24-.22,2.52-.18,3.18-.23Z"/><path class="cls-1" d="M24.98,42.64c3.86,.03,7.63,.58,11.32,1.72,.24,.07,.49,.14,.72,.24,.83,.35,1.22,1.15,.95,1.92-.28,.79-1.03,1.16-1.91,.96-2.13-.49-4.23-1.08-6.38-1.42-5.02-.79-9.98-.3-14.84,1.14-.27,.08-.54,.17-.82,.24-.96,.25-1.75-.11-2.01-.91-.29-.88,.14-1.66,1.12-1.99,3.85-1.27,7.81-1.88,11.86-1.91Z"/><path class="cls-1" d="M24.95,48.73c3.96,.02,7.83,.59,11.59,1.81,.5,.16,1.1,.53,1.3,.96,.19,.41,.11,1.21-.18,1.53-.33,.36-1.07,.59-1.57,.5-1.74-.32-3.43-.89-5.17-1.21-5.52-1.02-10.97-.59-16.34,1.03-1.47,.45-2.32,.19-2.6-.8-.28-1.02,.23-1.64,1.74-2.11,3.66-1.14,7.4-1.68,11.23-1.71Z"/><path class="cls-1" d="M24.7,54.82c4.16,.02,7.97,.59,11.69,1.74,.36,.11,.74,.23,1.04,.45,.63,.47,.83,1.13,.46,1.85-.38,.74-1,.99-1.83,.8-2.12-.5-4.23-1.09-6.38-1.42-5.06-.8-10.04-.29-14.93,1.17-.21,.06-.42,.13-.64,.19-1.03,.28-1.83-.05-2.11-.88-.3-.91,.15-1.66,1.2-2.01,3.82-1.27,7.75-1.85,11.49-1.88Z"/><path class="cls-1" d="M63.27,30.37c3.93,.1,7.77,.67,11.51,1.86,.49,.15,1.11,.43,1.3,.83,.22,.46,.24,1.28-.04,1.63-.31,.39-1.11,.66-1.62,.57-2.14-.38-4.24-1.04-6.39-1.38-5.12-.81-10.16-.28-15.12,1.21-.21,.06-.42,.14-.64,.19-.93,.23-1.71-.16-1.97-.99-.25-.8,.18-1.66,1.11-1.9,2.14-.55,4.29-1.12,6.46-1.5,1.77-.31,3.59-.35,5.39-.51Z"/><path class="cls-1" d="M63.36,36.45c3.9,.12,7.71,.69,11.42,1.86,.46,.15,1.07,.38,1.25,.74,.23,.46,.27,1.18,.08,1.66-.27,.67-.95,.86-1.69,.67-1.72-.43-3.42-.93-5.16-1.25-5.49-1.02-10.91-.59-16.25,1-.24,.07-.48,.16-.73,.22-.93,.24-1.71-.16-1.97-.99-.25-.8,.18-1.66,1.11-1.9,2.14-.55,4.29-1.12,6.46-1.5,1.8-.31,3.65-.36,5.48-.52Z"/><path class="cls-1" d="M63.34,42.54c3.9,.11,7.71,.69,11.42,1.85,.44,.14,1.04,.33,1.2,.66,.24,.5,.35,1.23,.16,1.73-.27,.71-.99,.86-1.77,.67-2.12-.51-4.23-1.08-6.38-1.42-5.09-.8-10.1-.26-15.02,1.21-.21,.06-.42,.13-.64,.19-.94,.24-1.71-.14-1.99-.96-.26-.8,.16-1.68,1.08-1.92,2.14-.56,4.29-1.13,6.46-1.5,1.8-.31,3.65-.36,5.48-.52Z"/><path class="cls-1" d="M76.37,52.16c-.03,1.04-.92,1.64-2,1.39-2.12-.49-4.23-1.08-6.38-1.42-5.09-.8-10.1-.27-15.02,1.21-.21,.06-.42,.14-.64,.19-.97,.25-1.79-.17-2.03-1.03-.22-.8,.24-1.62,1.19-1.86,2.02-.53,4.03-1.12,6.09-1.45,5.88-.94,11.68-.44,17.36,1.35,.82,.26,1.44,.66,1.44,1.63Z"/><path class="cls-1" d="M63.36,54.73c3.9,.12,7.71,.69,11.42,1.86,.46,.15,1.07,.38,1.25,.74,.23,.46,.27,1.18,.08,1.66-.27,.67-.95,.86-1.69,.67-1.72-.43-3.42-.93-5.16-1.25-5.49-1.02-10.91-.59-16.25,1-.24,.07-.48,.16-.73,.22-.93,.24-1.71-.16-1.97-.98-.25-.8,.18-1.66,1.11-1.9,2.14-.55,4.29-1.12,6.46-1.5,1.8-.31,3.65-.36,5.48-.52Z"/><path class="cls-1" d="M39.64,77.7h9v2.94h-9v-2.94Z"/><path class="cls-1" d="M39.62,9.09v-2.93h2.94v2.93h-2.94Z"/><path class="cls-1" d="M48.66,9.12h-2.91v-2.96h2.91v2.96Z"/></g></g></svg>