<?xml version="1.0" encoding="UTF-8"?><svg id="Layer_2" xmlns="http://www.w3.org/2000/svg" viewBox="0 0 341.33 437.67"><defs><style>.cls-1{fill:#fff;}.cls-2{fill:#a51c30;}</style></defs><g id="Layer_1-2"><g><g><path d="M32.43,404.39h-14.97l-4.7,22.69H30.87l-3.46,9.75H0l14.92-70.2h26.44l-2.12,9.75h-15.83l-3.84,18.27h14.99l-2.14,9.75Z"/><path d="M79.39,363.57l-12.37,58.18c-1.78,8.29-2.45,11.94-2.97,15.08h-10.33c.09-1.56,.13-2.7,.47-4.29-2.32,3.22-4.73,5.13-9.67,5.13-8.95,0-10.12-8.46-8.02-18.31l4.45-20.66c1.88-8.58,4.95-17.11,14.64-17.11,3.9,0,7.21,1.47,8.37,4l4.62-22.02h10.8Zm-27.72,35.16l-4.61,21.54c-.82,3.87-.9,8.1,3.06,8.1,4.22,0,5.85-3.82,7.21-10.24l3.84-17.93c1.32-5.99,1.22-9.78-3.34-9.78-3.56,0-5.12,3.32-6.17,8.3Z"/><path d="M106.88,420.94c-1.72,8-2.77,13.09-3.18,15.89h-10.42c.1-1.12,.35-2.91,.68-4.58-3.25,4.58-5.86,5.42-10.26,5.42s-10.41-2.36-7.5-15.94l8.33-39.3h10.62l-8.3,38.8c-1.03,5-.22,7.14,2.9,7.14,3.44,0,5.5-2.71,7.04-9.88l7.61-36.06h10.72l-8.22,38.51Z"/><path class="cls-2" d="M127.28,417.93l-6.44,18.9h-11.18c1.01-2.67,24.41-67.22,25.54-70.2h15.91l-3.87,70.2h-10.71l1.26-18.9h-10.51Zm11.17-9.84c.84-10.71,1.72-23.95,2.35-31.71h-.4c-1.61,6.23-6.19,20.79-9.74,31.71h7.78Z"/><path class="cls-2" d="M168.54,363.57h10.62l-4.82,22.29c2.27-2.6,5.07-4.26,9.25-4.26,7.82,0,10.53,6.54,8.23,17.53l-4.32,20.34c-2.41,11.27-6.17,18.18-14.94,18.18-5.18,0-7.23-2.77-8.07-5.39-.22,1.29-.75,3.33-1.18,4.58h-10.23c.8-3.66,1.67-8.52,2.88-14.01l12.6-59.24Zm8.34,56.02l4.52-21c1.02-4.88,.85-8.16-3.26-8.16s-5.56,3.18-6.83,9.24l-4.21,20.08c-1.23,5.75-.38,8.61,3.43,8.61,2.82,0,4.85-1.63,6.35-8.76Z"/><path class="cls-2" d="M199.6,400.86c1.88-9.03,3.13-14.51,3.76-18.43h10.05c-.1,1.29-.49,4.07-1.37,8.05,2.94-6.72,7.97-8.84,12.92-8.87l-2.8,12.54c-7.13-.02-11.29,2.95-13.53,13.53l-6.05,29.13h-10.62l7.63-35.96Z"/><path class="cls-2" d="M256.76,399.74l-4.35,20.59c-2.42,11.57-6.28,17.34-17.74,17.34-10.81,0-15.53-6.61-13.1-18.03l4.65-21.74c2.14-10.19,6.83-16.3,17.59-16.3s15.25,7.08,12.95,18.15Zm-19.82-1.85l-5.04,23.65c-.97,4.44,.16,7.31,3.84,7.31,3.38,0,4.75-2.74,5.74-7.41l5.03-23.48c.86-4.13,.62-7.55-3.68-7.55-3.84,0-4.96,3.19-5.89,7.48Z"/><path class="cls-2" d="M287.91,423.4c-.88,4.32-2.46,11.63-2.69,13.43h-10.33c.12-1.03,.34-2.75,.66-4.41-2.55,3.59-5.21,5.25-9.64,5.25-8.53,0-9.78-8.14-8-16.51,2.76-12.65,8.92-15.96,21.66-17.87,.72-.1,1.37-.21,2.1-.32l1.44-6.6c.82-3.83,.5-6.42-2.76-6.42s-3.99,2.77-4.92,6.56l-.4,1.66h-10.51l.2-.9c1.47-6.78,3.31-15.68,16.45-15.68,10.91,0,14.33,5.73,12.48,14.57l-5.73,27.24Zm-7.81-12.15c-.55,.1-1.1,.21-1.65,.31-5.6,1.21-8.4,3-9.84,9.08-.82,3.69-.94,7.73,2.89,7.73s5.72-3.75,7.3-11.17l1.3-5.96Z"/><path class="cls-2" d="M339.25,363.57l-12.37,58.18c-1.78,8.29-2.45,11.94-2.97,15.08h-10.33c.09-1.56,.13-2.7,.47-4.29-2.32,3.22-4.73,5.13-9.67,5.13-8.95,0-10.12-8.46-8.02-18.31l4.45-20.66c1.88-8.58,4.95-17.11,14.64-17.11,3.9,0,7.21,1.47,8.37,4l4.62-22.02h10.8Zm-27.72,35.16l-4.61,21.54c-.82,3.87-.9,8.1,3.06,8.1,4.22,0,5.85-3.82,7.21-10.24l3.84-17.93c1.32-5.99,1.22-9.78-3.34-9.78-3.56,0-5.12,3.32-6.17,8.3Z"/></g><path class="cls-2" d="M341.33,82.15v174.33c0,45.38-36.79,82.17-82.17,82.17H84.84c-45.38,0-82.17-36.78-82.17-82.17V82.15c0-17.85,5.69-34.38,15.37-47.84,7.5-10.47,17.41-19.09,28.91-25.07C58.27,3.33,71.17,0,84.84,0h174.33c4.5,0,8.91,.36,13.22,1.06,39.09,6.32,68.95,40.22,68.95,81.09Z"/><g><g><path class="cls-1" d="M171.94,184.55c-3.85-1.1-7.73-2.2-11.61-3.31-36.13-10.39-72.26-20.79-108.39-31.19-.51-.15-1.11-.18-1.49-.49-.8-.65-2.06-1.47-2.04-2.18,.03-.76,1.2-1.89,2.08-2.15,8.66-2.61,17.37-5.08,26.07-7.58,30.99-8.91,61.97-17.84,92.98-26.68,1.5-.43,3.33-.44,4.83-.01,39.29,11.22,78.55,22.53,117.81,33.82,.59,.17,1.3,.2,1.74,.56,.69,.55,1.73,1.38,1.66,1.98-.1,.8-.98,1.89-1.76,2.14-3.92,1.29-7.92,2.35-11.89,3.49-36.05,10.36-72.1,20.72-108.15,31.08-.59,.17-1.17,.34-1.85,.53Z"/><path class="cls-1" d="M97.8,166.47c6.62,1.91,13.02,3.75,19.42,5.59,16.62,4.78,33.27,9.42,49.82,14.41,4.4,1.33,8.3,.45,12.36-.73,23.63-6.83,47.26-13.65,70.9-20.47,.92-.26,1.85-.49,3.06-.8,0,5.12,0,10.03,0,14.93,0,10.82-.16,21.65,.07,32.47,.11,5.19-2.01,8.96-5.88,12.02-7.5,5.93-16.34,8.97-25.45,11.05-32.1,7.33-64.23,7.4-96.16-.88-6.47-1.68-12.62-4.77-18.72-7.63-2.46-1.15-4.79-3.14-6.45-5.31-1.56-2.05-2.99-4.83-3.04-7.31-.27-15.39-.14-30.79-.14-46.19,0-.26,.09-.51,.2-1.15Z"/><path class="cls-1" d="M55.38,153.79q7.02,1.12,7.03,7.57c0,8.1-.07,16.19,.06,24.29,.03,1.86,.62,3.75,1.22,5.54,.86,2.58,2.15,5.02,2.93,7.61,1,3.33-.35,6.59-3.18,8.53-2.82,1.93-6.37,1.94-9.16,.02-2.79-1.91-4.08-5.22-3.18-8.56,.46-1.69,.97-3.43,1.83-4.93,2.19-3.82,2.6-7.86,2.5-12.17-.18-8.27-.05-16.54-.05-24.82,0-.95,0-1.9,0-3.08Z"/></g><g><path class="cls-1" d="M95.19,242.24c-4.26,0-7.35-1.43-8.95-4.14-2.74-4.63-1.1-12.47,4.88-23.32l1.83,.9c-5.57,12.77-5.04,18.03-3.63,20.2,.91,1.38,2.49,2.05,4.85,2.05,19.97,0,81.32-48.23,104.41-66.38,4.64-3.64,7.99-6.28,9.58-7.42,.81-.71,2.42-2.01,4.51-3.7,10.3-8.34,31.73-25.69,38.52-37.06,.36-.57,.63-1.07,.86-1.57l.33-.72,.6,.11,4.8-6.5,.06,2.99c.03,1.47-.33,3.12-1.08,5.05-.23,.6-.53,1.25-.87,1.94-.31,.62-.67,1.29-1.08,1.97l-.22,.4c-14.86,21.07-35.56,37.24-55.57,52.88-4.45,3.48-8.89,6.95-13.24,10.45l-.76,.57c-22.16,16.51-45.08,33.58-70.48,45.7-7.67,3.67-14.35,5.61-19.34,5.61Z"/><path class="cls-2" d="M256.81,117.69c.02,1.3-.3,2.83-1.01,4.65-.22,.59-.52,1.21-.84,1.87-.3,.59-.64,1.23-1.03,1.9-.07,.12-.15,.27-.22,.39-18,25.51-44.59,43.76-68.58,63.06-22.58,16.82-45.46,33.93-71.04,46.14-7.59,3.63-14.08,5.51-18.9,5.51-10.12,0-12.92-8.26-3.19-25.95-7.45,17.09-5.42,23.68,2.16,23.68,24.15,0,104.69-66.88,114.58-73.99,5.2-4.51,35.01-27.18,43.31-41.07,.37-.59,.66-1.13,.91-1.67,.08,.01,.16,.02,.23,.02,.16,0,.3-.06,.44-.25,1.06-1.43,2.12-2.88,3.18-4.31m1.92-6.01l-3.56,4.8c-.54,.72-1.07,1.45-1.61,2.19-.35,.48-.7,.95-1.05,1.42l-.71-.11-.69,1.41c-.21,.46-.46,.92-.78,1.44-6.73,11.26-28.06,28.53-38.32,36.84-2.01,1.63-3.61,2.92-4.53,3.72-1.63,1.18-4.96,3.79-9.53,7.39-23.02,18.1-84.17,66.16-103.79,66.16-2.95,0-3.74-1.2-4-1.59-1.05-1.6-1.96-6.23,3.71-19.24l-3.65-1.8c-6.16,11.19-7.79,19.37-4.86,24.33,1.25,2.12,3.97,4.64,9.83,4.64,5.14,0,11.98-1.98,19.78-5.71,25.49-12.17,48.45-29.27,70.65-45.81l.73-.54c4.4-3.54,8.92-7.07,13.28-10.48,20.08-15.69,40.83-31.91,55.74-53.04l.04-.06,.04-.07c.05-.08,.1-.18,.15-.27l.07-.13c.39-.66,.77-1.34,1.11-2.03,.33-.69,.67-1.38,.92-2.07,.79-2.02,1.17-3.8,1.14-5.41l-.11-5.98h0Z"/></g><path class="cls-1" d="M276.19,98.31c-.22,.81-.54,1.6-.94,2.34-1.45,2.61-3.28,5-5.29,7.19-.69,.76-.84,1.45-.69,2.44,.91,5.89,1.72,11.79,2.66,17.66,.17,1.08-.3,1.67-1.03,2.34-2.22-5.39-4.41-10.71-6.65-16.15-.2,.2-.34,.32-.49,.47-2.66,2.59-5.32,5.17-7.95,7.76-.27,.27-.54,.52-.81,.79-.12,.15-.22,.47-.17,.64,.05,.15,.1,.3,.15,.44,.59,1.95,1.21,3.87,1.8,5.81,.07,.22,.02,.47,.02,.71-.07,0-.15,.02-.22,.05-.86-1.58-1.75-3.13-2.63-4.68-.27-.47-.54-.96-.81-1.43-.3,.12-.57,.22-.99,.37,.1-.42,.15-.71,.22-1.03-.1-.05-.2-.07-.3-.12-2.04-.79-4.11-1.63-6.18-2.41,.07-.47,.35-.42,.64-.37,2.14,.37,4.28,.74,6.43,1.11h.02c.27,.05,.47,.05,.66-.22,1.06-1.43,2.12-2.88,3.18-4.31,1.4-1.95,2.83-3.87,4.24-5.79,.07-.1,.12-.2,.25-.37-5.66-1.45-11.28-2.88-16.92-4.33,.32-.44,.62-.86,.91-1.26,.1-.05,.2-.1,.32-.15,.81,.05,1.62,.1,2.44,.1,5.74,.05,11.47,.07,17.21,.15,.39,0,.64-.1,.89-.42,2.17-2.51,4.43-4.95,7.12-6.94,.62-.44,1.31-.84,2.02-1.13,.69-.32,1.13,.05,.91,.76Z"/></g></g></g></svg>