<?xml version="1.0" encoding="UTF-8"?><svg id="Layer_2" xmlns="http://www.w3.org/2000/svg" viewBox="0 0 87.48 193.98"><defs><style>.cls-1{fill:#fff;}.cls-2{fill:#adc95a;}.cls-3{fill:#88cff2;}.cls-4{fill:#e37d5d;}</style></defs><g id="Layer_2-2"><g id="_1KjFs4"><rect class="cls-1" x="15.71" width="15.55" height="99.95"/><path class="cls-4" d="m87.48,178.36v15.6c-1.38,0-2.76-.04-4.15.02-.86.03-1.62-.19-2.34-.6-1.95-1.1-3.95-2.07-5.94-3.09-3.57-1.83-7.04-3.88-10.63-5.69-1.81-.91-3.53-1.97-5.37-2.83-2.2-1.04-4.26-2.38-6.4-3.56-2.11-1.15-4.29-2.18-6.35-3.41-4.74-2.85-9.68-5.36-14.39-8.26-2.74-1.68-5.44-3.42-7.98-5.37-5.78-4.44-10.78-9.61-14.6-15.88-1.5-2.45-2.84-4.97-3.92-7.61-1.02-2.49-1.98-5.02-2.63-7.64-.98-3.95-1.84-7.95-2.2-12.02-.36-4.15-.49-8.32-.49-12.49,0-11.94.07-23.89-.01-35.84C-.04,51.85.07,34.01,0,16.18c-.01-.96.24-1.21,1.19-1.2,4.45.05,8.89.05,13.33,0,.94-.01,1.2.22,1.2,1.18-.03,23.67-.02,47.33-.02,71v1.27c2.26-5.07,5.82-6.81,10.92-5.2.53.31,1.05.62,1.58.94.86.75,1.63,1.57,2.28,2.53.25.36.31.7.33,1.08.01.22.07.43.31.4.15-.01.23-.2.23-.38-.01-.23,0-.46,0-.69.01-16.8.02-33.59.03-50.38,0-.32-.07-.66.12-.96,1.18.01,2.36.03,3.55.03,3.98.02,7.96.04,11.93.06.01,20.88.04,41.77.01,62.65-.01,4.57.51,9.02,1.87,13.4.71,2.26,1.68,4.35,2.91,6.27l-13.29,10.39c-1.37-1.99-2.55-4.13-3.5-6.42-2.52-6-3.49-12.33-3.61-18.81-.02-1.58-.03-3.16-.05-4.74.04-1.06.1-2.13.1-3.2,0-.56.25-1.16-.16-1.69-.25-.3.2-.69-.27-1.11-.42,1.08-.81,2.12-1.56,2.94-.31.34-.86.55-.78,1.16-.29.18-.58.36-.87.54-.32-.03-.54.2-.81.3-.59.23-1.09.75-1.74.77-1.45.03-2.91.23-4.34-.19-.27-.51-.85-.56-1.3-.78-1.6-.76-2.52-2.13-3.37-3.57-.19-.31.08-.81-.58-1.09.05,2.05-.12,4.03.1,6.01-.01,1.85-.02,3.69-.03,5.53-.02,4,.04,8,.7,11.94.82,4.94,1.94,9.79,4.05,14.4,1.36,2.96,2.9,5.77,4.74,8.39,1.01,1.44,2.1,2.83,3.3,4.15.23.26.47.51.71.76,3.24,3.39,6.88,6.27,10.89,8.71,4.33,2.64,8.73,5.14,13.19,7.55,2.5,1.41,4.94,2.93,7.52,4.2.52.48,1.09.86,1.8.97v.02s.07.11.1.16c.56.26,1.01.74,1.68.75.4.73,1.23.81,1.85,1.12,1.67.84,3.2,1.96,5,2.51l.07.07c.75.76,1.76,1.07,2.71,1.48,1.73.89,3.46,1.77,5.19,2.65.63.62,1.37,1.05,2.22,1.3.28.01.53.12.75.3.94.87,2.14,1.25,3.3,1.71.62.41,1.28.77,2,1Z"/><polygon class="cls-1" points="52.58 139.18 87.48 160.19 87.48 183.03 45.29 156.02 52.58 139.18"/><path class="cls-3" d="m69.72,35.93c-.18-.2-.42-.16-.64-.16-7.14,0-14.27,0-21.41,0-.23,0-.45.05-.68.08-3.98-.02-7.96-.03-11.94-.05-1.18,0-2.37-.03-3.55-.04.02-3.38.04-6.77.05-10.15,0-2.27.05-4.54-.02-6.8-.03-.94.24-1.21,1.19-1.21,16.77.03,33.55.02,50.32.02,1.48,0,2.96-.01,4.44-.02v18.17c-.76,0-1.51,0-2.27,0-3.97.01-7.95.03-11.92.04-1.19-.05-2.39-.1-3.58.11Z"/><path class="cls-3" d="m62.67,85.17c-.02-.39-.06-.79-.06-1.18,0-9.63,0-19.26-.02-28.89,0-.9.22-1.19,1.14-1.15,1.71.07,3.42.02,5.13.02.32,0,.66.07.95-.16,1.31.25,2.62.25,3.93,0,.18.06.37.16.55.16,4.4,0,8.8-.02,13.19-.03v15.8c-2.1-.01-4.2-.04-6.29-.04-.88,0-2-.37-2.58.14-.65.57-.22,1.73-.23,2.63-.05,4.23-.05,8.46-.07,12.68-5.21,0-10.43,0-15.64.01Z"/><path class="cls-2" d="m62.67,85.17c5.21,0,10.43,0,15.64-.01.08,2.38-.11,4.77.12,7.15-.26.16-.12.25.05.34.07,1.89.71,3.56,1.89,5.04,1.87,2.34,4.45,3.66,7.11,4.84v21.13c-3.12-1.45-6.08-3.2-9.1-4.85-2.93-1.6-5.91-3.13-8.5-5.28-2.64-2.19-4.61-4.84-5.79-8.12-1.02-2.84-1.48-5.71-1.45-8.7.04-3.84.02-7.69.03-11.53Z"/><path class="cls-3" d="m11.61.02c.25.6.88.76,1.32,1.14,1.49,1.26,2.35,2.84,2.45,4.8.04.82.07,1.65-.01,2.47-.12,1.07-.44,2.16-.99,3.05-.79,1.27-1.85,2.35-3.37,2.87-4.14,1.4-8.19-.01-10.03-3.53C-.96,7.08.33,2.54,3.92.39c.2-.12.39-.25.58-.37,2.37,0,4.74,0,7.11,0Z"/><path class="cls-3" d="m28.2,84.17c-.53-.31-1.05-.63-1.58-.94.61.17,1.31.2,1.58.94Z"/><path class="cls-3" d="m58.82,144.92c-.18.06-.45.06-.54.19-.97,1.5-2.05,2.92-2.9,4.5-1.25,2.32-2.52,4.63-3.82,6.93-.8,1.41-.66,2.49.87,2.8.35.07.89.17.85.78-4.45-2.42-8.85-4.92-13.18-7.55-4.02-2.44-7.65-5.32-10.89-8.71-3.73-3.9-6.5-8.4-8.75-13.3-2.11-4.61-3.23-9.46-4.06-14.4-.66-3.95-.72-7.95-.7-11.94,0-1.84.02-3.68.03-5.53,1.46,0,2.93,0,4.39.03.45,0,.78-.06.76-.6,1.43.42,2.89.22,4.33.19.66-.01,1.15-.54,1.75-.77.27-.1.49-.33.8-.3-.17.79-.99.63-1.58,1.07,1.77.19,3.47-.12,5.12.3.02,1.58.03,3.16.05,4.74.11,6.48,1.08,12.81,3.6,18.81,2.18,5.19,5.46,9.62,9.7,13.34,4.01,3.52,8.57,6.2,13.21,8.77.33.19.76.26.94.67Z"/><path class="cls-3" d="m31.26,93.7c-.79,1.07-1.2,2.46-2.61,2.99-.08-.61.47-.82.78-1.16.76-.83,1.14-1.86,1.56-2.94.47.42.02.81.27,1.11Z"/><path class="cls-4" d="m73.29,35.82c.42.48,1.05.45,1.58.61,4.27,1.28,6.41,5.9,5.79,9.85-.49,3.11-2.1,5.37-4.87,6.83-.65.34-1.37.46-2.05.69-1.31.26-2.62.25-3.93,0-3.59-.8-5.9-3.14-6.9-6.5-.84-2.79-.3-5.59,1.64-7.97,1.15-1.41,2.53-2.46,4.27-3.02.31-.1.6-.26.89-.39,1.19-.21,2.38-.15,3.58-.11Z"/><path class="cls-3" d="m78.43,92.3c.12.1.12.21.05.34-.18-.09-.32-.18-.05-.34Z"/><rect class="cls-1" x="26.62" y=".02" width="60.86" height="17.58"/><rect class="cls-2" x="31.36" y="35.85" width="15.62" height="29.1"/><path class="cls-2" d="m87.48,141.82v18.37c-1.88-.73-3.59-1.8-5.36-2.74-4.12-2.17-8.27-4.27-12.32-6.57-2.1-1.18-4.25-2.27-6.37-3.43-1.53-.84-3-1.81-4.61-2.52-.17-.41-.6-.49-.94-.67-4.63-2.57-9.19-5.25-13.2-8.77-2.37-2.08-4.45-4.39-6.2-6.92l13.29-10.39c1.32,2.1,2.93,4,4.76,5.74,2.23,2.12,4.86,3.8,7.56,5.32,6.03,3.41,12.09,6.79,18.22,10.01,1.71.89,3.33,1.95,5.17,2.57Z"/></g></g></svg>