<?xml version="1.0" encoding="UTF-8"?><svg id="Layer_2" xmlns="http://www.w3.org/2000/svg" viewBox="0 0 320.85 77.1"><defs><style>.cls-1{fill:#fff;}.cls-2{fill:#a61d31;}.cls-3{fill:#231f20;}.cls-4{fill:#010101;}</style></defs><g id="Layer_1-2"><g id="Layer_1-2"><path class="cls-2" d="m77.1,18.7v39.69c0,10.33-8.38,18.71-18.71,18.71H18.71c-10.33,0-18.71-8.37-18.71-18.71V18.7c0-4.06,1.3-7.83,3.5-10.89,1.71-2.38,3.96-4.35,6.58-5.71C12.66.76,15.6,0,18.71,0h39.69c1.02,0,2.03.08,3.01.24,8.9,1.44,15.7,9.16,15.7,18.46h0Z"/><path class="cls-1" d="m38.54,42.02c-.88-.25-1.76-.5-2.64-.75-8.23-2.37-16.45-4.73-24.68-7.1-.12-.03-.25-.04-.34-.11-.18-.15-.47-.33-.46-.5,0-.17.27-.43.47-.49,1.97-.59,3.95-1.16,5.94-1.73,7.06-2.03,14.11-4.06,21.17-6.07.34-.1.76-.1,1.1,0,8.95,2.55,17.88,5.13,26.82,7.7.13.04.3.05.4.13.16.13.39.31.38.45-.02.18-.22.43-.4.49-.89.29-1.8.54-2.71.79-8.21,2.36-16.41,4.72-24.62,7.08-.13.04-.27.08-.42.12h0Z"/><path class="cls-1" d="m21.66,37.9c1.51.43,2.96.85,4.42,1.27,3.78,1.09,7.57,2.14,11.34,3.28,1,.3,1.89.1,2.81-.17,5.38-1.55,10.76-3.11,16.14-4.66.21-.06.42-.11.7-.18v3.4c0,2.46-.04,4.93.02,7.39.03,1.18-.46,2.04-1.34,2.74-1.71,1.35-3.72,2.04-5.79,2.52-7.31,1.67-14.62,1.68-21.89-.2-1.47-.38-2.87-1.09-4.26-1.74-.56-.26-1.09-.71-1.47-1.21-.36-.47-.68-1.1-.69-1.66-.06-3.5-.03-7.01-.03-10.52,0-.06.02-.12.05-.26h0Z"/><path class="cls-1" d="m12,35.01c1.07.17,1.6.74,1.6,1.72,0,1.84-.02,3.69.01,5.53,0,.42.14.85.28,1.26.2.59.49,1.14.67,1.73.23.76-.08,1.5-.72,1.94-.64.44-1.45.44-2.09,0-.64-.43-.93-1.19-.72-1.95.1-.38.22-.78.42-1.12.5-.87.59-1.79.57-2.77-.04-1.88-.01-3.77-.01-5.65,0-.22,0-.43,0-.7Z"/><path class="cls-1" d="m21.06,55.15c-.97,0-1.67-.33-2.04-.94-.62-1.05-.25-2.84,1.11-5.31l.42.2c-1.27,2.91-1.15,4.1-.83,4.6.21.31.57.47,1.1.47,4.55,0,18.51-10.98,23.77-15.11,1.06-.83,1.82-1.43,2.18-1.69.18-.16.55-.46,1.03-.84,2.34-1.9,7.22-5.85,8.77-8.44.08-.13.14-.24.2-.36l.08-.16.14.03,1.09-1.48v.68c.02.33-.06.71-.23,1.15-.05.14-.12.28-.2.44-.07.14-.15.29-.25.45l-.05.09c-3.38,4.8-8.1,8.48-12.65,12.04-1.01.79-2.02,1.58-3.01,2.38l-.17.13c-5.05,3.76-10.26,7.65-16.05,10.4-1.75.84-3.27,1.28-4.4,1.28h0Z"/><path class="cls-2" d="m57.86,26.79c0,.3-.07.64-.23,1.06-.05.13-.12.28-.19.43-.07.13-.15.28-.23.43-.02.03-.03.06-.05.09-4.1,5.81-10.15,9.96-15.61,14.36-5.14,3.83-10.35,7.72-16.17,10.5-1.73.83-3.21,1.25-4.3,1.25-2.3,0-2.94-1.88-.73-5.91-1.7,3.89-1.23,5.39.49,5.39,5.5,0,23.83-15.23,26.09-16.85,1.18-1.03,7.97-6.19,9.86-9.35.08-.13.15-.26.21-.38.02,0,.04,0,.05,0,.04,0,.07-.01.1-.06.24-.33.48-.66.72-.98m.44-1.37l-.81,1.09c-.12.16-.24.33-.37.5-.08.11-.16.22-.24.32l-.16-.03-.16.32c-.05.1-.1.21-.18.33-1.53,2.56-6.39,6.5-8.72,8.39-.46.37-.82.66-1.03.85-.37.27-1.13.86-2.17,1.68-5.24,4.12-19.16,15.06-23.63,15.06-.67,0-.85-.27-.91-.36-.24-.36-.45-1.42.84-4.38l-.83-.41c-1.4,2.55-1.77,4.41-1.11,5.54.28.48.9,1.06,2.24,1.06,1.17,0,2.73-.45,4.5-1.3,5.8-2.77,11.03-6.66,16.08-10.43l.17-.12c1-.81,2.03-1.61,3.02-2.39,4.57-3.57,9.3-7.26,12.69-12.08h0s0-.03,0-.03c.01-.02.02-.04.03-.06l.02-.03c.09-.15.18-.31.25-.46.08-.16.15-.31.21-.47.18-.46.27-.87.26-1.23l-.03-1.36h0Z"/><path class="cls-1" d="m62.27,22.38c-.05.18-.12.36-.21.53-.33.59-.75,1.14-1.2,1.64-.16.17-.19.33-.16.56.21,1.34.39,2.68.61,4.02.04.25-.07.38-.23.53-.51-1.23-1-2.44-1.51-3.68-.05.05-.08.07-.11.11-.61.59-1.21,1.18-1.81,1.77-.06.06-.12.12-.18.18-.03.03-.05.11-.04.15.01.03.02.07.03.1.13.44.28.88.41,1.32.02.05,0,.11,0,.16-.02,0-.03,0-.05.01-.2-.36-.4-.71-.6-1.07-.06-.11-.12-.22-.18-.33-.07.03-.13.05-.23.08.02-.1.03-.16.05-.23-.02-.01-.05-.02-.07-.03-.46-.18-.94-.37-1.41-.55.02-.11.08-.1.15-.08.49.08.97.17,1.46.25h0c.06.01.11.01.15-.05.24-.33.48-.66.72-.98.32-.44.64-.88.97-1.32.02-.02.03-.05.06-.08-1.29-.33-2.57-.66-3.85-.99.07-.1.14-.2.21-.29.02-.01.05-.02.07-.03.18.01.37.02.56.02,1.31.01,2.61.02,3.92.03.09,0,.15-.02.2-.1.49-.57,1.01-1.13,1.62-1.58.14-.1.3-.19.46-.26.16-.07.26.01.21.17h0Z"/><path class="cls-4" d="m112.56,32.34h-10.16l-3.19,15.4h12.29l-2.35,6.62h-18.61l10.13-47.66h17.95l-1.44,6.62h-10.75l-2.61,12.4h10.18l-1.45,6.62h0Z"/><path class="cls-4" d="m144.44,4.63l-8.4,39.5c-1.21,5.63-1.66,8.11-2.02,10.24h-7.01c.06-1.06.09-1.83.32-2.91-1.58,2.19-3.21,3.48-6.56,3.48-6.08,0-6.87-5.74-5.44-12.43l3.02-14.03c1.28-5.82,3.36-11.62,9.94-11.62,2.65,0,4.89,1,5.68,2.72l3.14-14.95h7.34Zm-18.82,23.87l-3.13,14.62c-.56,2.63-.61,5.5,2.08,5.5,2.86,0,3.97-2.59,4.89-6.95l2.61-12.17c.9-4.07.83-6.64-2.27-6.64-2.42,0-3.48,2.25-4.19,5.63h0Z"/><path class="cls-4" d="m163.1,43.57c-1.17,5.43-1.88,8.89-2.16,10.79h-7.07c.07-.76.24-1.98.46-3.11-2.21,3.11-3.98,3.68-6.97,3.68s-7.07-1.6-5.09-10.82l5.66-26.68h7.21l-5.63,26.34c-.7,3.39-.15,4.85,1.97,4.85,2.34,0,3.73-1.84,4.78-6.71l5.17-24.48h7.28l-5.58,26.14h-.01Z"/><path class="cls-2" d="m176.95,41.53l-4.37,12.83h-7.59c.69-1.81,16.57-45.63,17.34-47.66h10.8l-2.63,47.66h-7.27l.86-12.83h-7.14,0Zm7.58-6.68c.57-7.27,1.17-16.26,1.6-21.53h-.27c-1.09,4.23-4.2,14.11-6.61,21.53h5.29Z"/><path class="cls-2" d="m204.96,4.63h7.21l-3.27,15.13c1.54-1.77,3.44-2.89,6.28-2.89,5.31,0,7.15,4.44,5.59,11.9l-2.93,13.81c-1.64,7.65-4.19,12.34-10.14,12.34-3.52,0-4.91-1.88-5.48-3.66-.15.88-.51,2.26-.8,3.11h-6.95c.54-2.48,1.13-5.78,1.96-9.51l8.55-40.22h-.01Zm5.66,38.03l3.07-14.26c.69-3.31.58-5.54-2.21-5.54s-3.77,2.16-4.64,6.27l-2.86,13.63c-.84,3.9-.26,5.85,2.33,5.85,1.91,0,3.29-1.11,4.31-5.95h0Z"/><path class="cls-2" d="m226.05,29.94c1.28-6.13,2.12-9.85,2.55-12.51h6.82c-.07.88-.33,2.76-.93,5.47,2-4.56,5.41-6,8.77-6.02l-1.9,8.51c-4.84-.01-7.66,2-9.19,9.19l-4.11,19.78h-7.21l5.18-24.41h0Z"/><path class="cls-2" d="m264.85,29.18l-2.95,13.98c-1.64,7.85-4.26,11.77-12.04,11.77-7.34,0-10.54-4.49-8.89-12.24l3.16-14.76c1.45-6.92,4.64-11.07,11.94-11.07s10.35,4.81,8.79,12.32h0Zm-13.46-1.26l-3.42,16.06c-.66,3.01.11,4.96,2.61,4.96,2.29,0,3.22-1.86,3.9-5.03l3.41-15.94c.58-2.8.42-5.13-2.5-5.13-2.61,0-3.37,2.17-4,5.08h0Z"/><path class="cls-2" d="m286,45.24c-.6,2.93-1.67,7.9-1.83,9.12h-7.01c.08-.7.23-1.87.45-2.99-1.73,2.44-3.54,3.56-6.54,3.56-5.79,0-6.64-5.53-5.43-11.21,1.87-8.59,6.06-10.84,14.7-12.13.49-.07.93-.14,1.43-.22l.98-4.48c.56-2.6.34-4.36-1.87-4.36s-2.71,1.88-3.34,4.45l-.27,1.13h-7.14l.14-.61c1-4.6,2.25-10.64,11.17-10.64,7.41,0,9.73,3.89,8.47,9.89l-3.89,18.49h0Zm-5.3-8.25c-.37.07-.75.14-1.12.21-3.8.82-5.7,2.04-6.68,6.16-.56,2.51-.64,5.25,1.96,5.25s3.88-2.55,4.96-7.58l.88-4.05h0Z"/><path class="cls-2" d="m320.85,4.63l-8.4,39.5c-1.21,5.63-1.66,8.11-2.02,10.24h-7.01c.06-1.06.09-1.83.32-2.91-1.58,2.19-3.21,3.48-6.56,3.48-6.08,0-6.87-5.74-5.44-12.43l3.02-14.03c1.28-5.82,3.36-11.62,9.94-11.62,2.65,0,4.89,1,5.68,2.72l3.14-14.95h7.34Zm-18.82,23.87l-3.13,14.62c-.56,2.63-.61,5.5,2.08,5.5,2.86,0,3.97-2.59,4.89-6.95l2.61-12.17c.9-4.07.83-6.64-2.27-6.64-2.42,0-3.48,2.25-4.19,5.63h0Z"/></g><path class="cls-3" d="m92.7,70.46h-2.16v-10.31h4.22c2.37,0,3.73,1.25,3.73,3.29,0,1.32-.69,2.46-1.87,2.93l2.17,4.09h-2.44l-1.92-3.77h-1.73v3.77Zm0-5.33h1.86c1.09,0,1.72-.62,1.72-1.64s-.67-1.64-1.74-1.64h-1.84v3.28Z"/><path class="cls-3" d="m106.8,70.46h-2.01v-1.38h-.04c-.38.96-1.14,1.52-2.29,1.52-1.66,0-2.76-1.08-2.76-2.86v-4.94h2.09v4.5c0,1.02.51,1.56,1.43,1.56s1.51-.66,1.51-1.68v-4.39h2.09v7.66Z"/><path class="cls-3" d="m108.16,62.81h2.01v1.36h.04c.41-.95,1.21-1.51,2.39-1.51,1.7,0,2.66,1.07,2.66,2.86v4.93h-2.09v-4.5c0-1-.47-1.57-1.41-1.57s-1.53.69-1.53,1.68v4.39h-2.09v-7.66Z"/><path class="cls-3" d="m121.63,69.15h-.04v1.31h-2.06v-10.31h2.09v3.98h.04c.42-.91,1.27-1.45,2.36-1.45,1.93,0,3.11,1.48,3.11,3.95s-1.18,3.95-3.11,3.95c-1.12,0-1.98-.54-2.4-1.44Zm-.02-2.51c0,1.39.69,2.27,1.7,2.27s1.69-.87,1.69-2.27-.66-2.28-1.69-2.28-1.7.91-1.7,2.28Z"/><path class="cls-3" d="m128.23,73.28v-1.61c.06.01.44.01.52.01.76,0,1.14-.24,1.29-.85,0-.03.08-.34.06-.36l-2.66-7.66h2.29l1.63,5.98h.04l1.63-5.98h2.2l-2.64,7.83c-.66,1.96-1.61,2.66-3.57,2.66-.07,0-.72,0-.79-.02Z"/><path class="cls-3" d="m145.85,70.46v-4.34h-4.64v4.34h-2.16v-10.31h2.16v4.19h4.64v-4.19h2.16v10.31h-2.16Z"/><path class="cls-3" d="m149.09,68.27c0-1.39,1.07-2.2,2.98-2.31l1.93-.11v-.51c0-.71-.5-1.13-1.29-1.13s-1.27.39-1.37.95h-1.91c.08-1.49,1.34-2.51,3.37-2.51s3.24,1.01,3.24,2.56v5.26h-2.01v-1.17h-.04c-.43.81-1.38,1.29-2.34,1.29-1.46,0-2.56-.94-2.56-2.32Zm4.91-.61v-.56l-1.61.1c-.78.06-1.22.41-1.22.95,0,.57.47.93,1.18.93.91,0,1.66-.59,1.66-1.42Z"/><path class="cls-3" d="m157.4,62.81h2.01v1.38h.04c.27-.97.92-1.5,1.82-1.5.24,0,.45.04.59.08v1.84c-.17-.07-.46-.12-.76-.12-1.03,0-1.63.63-1.63,1.71v4.28h-2.09v-7.66Z"/><path class="cls-3" d="m167.09,70.46h-2.36l-2.65-7.66h2.24l1.59,5.81h.04l1.59-5.81h2.18l-2.63,7.66Z"/><path class="cls-3" d="m169.97,68.27c0-1.39,1.07-2.2,2.98-2.31l1.93-.11v-.51c0-.71-.5-1.13-1.29-1.13s-1.27.39-1.37.95h-1.91c.08-1.49,1.34-2.51,3.37-2.51s3.24,1.01,3.24,2.56v5.26h-2.01v-1.17h-.04c-.43.81-1.38,1.29-2.34,1.29-1.46,0-2.56-.94-2.56-2.32Zm4.91-.61v-.56l-1.61.1c-.78.06-1.22.41-1.22.95,0,.57.47.93,1.18.93.91,0,1.66-.59,1.66-1.42Z"/><path class="cls-3" d="m178.27,62.81h2.01v1.38h.04c.27-.97.92-1.5,1.82-1.5.24,0,.45.04.59.08v1.84c-.17-.07-.46-.12-.76-.12-1.03,0-1.63.63-1.63,1.71v4.28h-2.09v-7.66Z"/><path class="cls-3" d="m183.06,66.62c0-2.43,1.21-3.94,3.13-3.94,1.11,0,1.96.59,2.34,1.44h.04v-3.96h2.09v10.31h-2.06v-1.31h-.04c-.37.84-1.26,1.44-2.39,1.44-1.91,0-3.12-1.51-3.12-3.96Zm2.14.01c0,1.41.64,2.27,1.69,2.27s1.7-.87,1.7-2.27-.66-2.28-1.7-2.28-1.69.88-1.69,2.28Z"/><path class="cls-3" d="m192.27,67.19v-1.82h4.69v1.82h-4.69Z"/><path class="cls-3" d="m198.38,65.31c0-3.32,1.89-5.33,4.88-5.33,2.48,0,4.36,1.57,4.53,3.88h-2.1c-.2-1.26-1.17-2.09-2.43-2.09-1.63,0-2.68,1.36-2.68,3.53s1.04,3.56,2.69,3.56c1.28,0,2.2-.75,2.43-1.97h2.1c-.24,2.3-2.01,3.76-4.53,3.76-3,0-4.88-2.01-4.88-5.33Z"/><path class="cls-3" d="m208.62,68.27c0-1.39,1.07-2.2,2.98-2.31l1.93-.11v-.51c0-.71-.5-1.13-1.29-1.13s-1.27.39-1.37.95h-1.91c.08-1.49,1.34-2.51,3.37-2.51s3.24,1.01,3.24,2.56v5.26h-2.01v-1.17h-.04c-.43.81-1.38,1.29-2.34,1.29-1.46,0-2.56-.94-2.56-2.32Zm4.91-.61v-.56l-1.61.1c-.78.06-1.22.41-1.22.95,0,.57.47.93,1.18.93.91,0,1.66-.59,1.66-1.42Z"/><path class="cls-3" d="m216.92,62.81h2.01v1.39h.04c.32-.92,1.14-1.53,2.19-1.53,1.11,0,1.88.57,2.14,1.57h.04c.34-.96,1.26-1.57,2.38-1.57,1.5,0,2.51,1.03,2.51,2.57v5.23h-2.09v-4.71c0-.89-.44-1.37-1.25-1.37s-1.31.58-1.31,1.43v4.65h-2.01v-4.77c0-.82-.46-1.31-1.24-1.31s-1.33.6-1.33,1.46v4.62h-2.09v-7.66Z"/><path class="cls-3" d="m231.7,69.15h-.04v1.31h-2.06v-10.31h2.09v3.98h.04c.42-.91,1.27-1.45,2.36-1.45,1.93,0,3.11,1.48,3.11,3.95s-1.18,3.95-3.11,3.95c-1.12,0-1.98-.54-2.4-1.44Zm-.02-2.51c0,1.39.69,2.27,1.7,2.27s1.69-.87,1.69-2.27-.66-2.28-1.69-2.28-1.7.91-1.7,2.28Z"/><path class="cls-3" d="m238.29,62.81h2.01v1.38h.04c.27-.97.92-1.5,1.82-1.5.24,0,.45.04.59.08v1.84c-.17-.07-.46-.12-.76-.12-1.03,0-1.63.63-1.63,1.71v4.28h-2.09v-7.66Z"/><path class="cls-3" d="m243.58,60.89c0-.61.49-1.08,1.11-1.08s1.11.47,1.11,1.08-.49,1.08-1.11,1.08-1.11-.48-1.11-1.08Zm.07,1.92h2.09v7.66h-2.09v-7.66Z"/><path class="cls-3" d="m246.84,66.62c0-2.43,1.21-3.94,3.13-3.94,1.11,0,1.96.59,2.34,1.44h.04v-3.96h2.09v10.31h-2.06v-1.31h-.04c-.37.84-1.26,1.44-2.39,1.44-1.91,0-3.12-1.51-3.12-3.96Zm2.14.01c0,1.41.64,2.27,1.69,2.27s1.7-.87,1.7-2.27-.66-2.28-1.7-2.28-1.69.88-1.69,2.28Z"/><path class="cls-3" d="m255.79,71.01h2.04c.16.53.76.89,1.56.89,1.08,0,1.68-.6,1.68-1.49v-1.34h-.04c-.36.81-1.26,1.37-2.36,1.37-1.87,0-3.11-1.44-3.11-3.83s1.2-3.92,3.14-3.92c1.1,0,1.96.58,2.36,1.46h.04v-1.34h2.06v7.55c0,1.83-1.53,2.99-3.82,2.99-2.01,0-3.38-.98-3.54-2.34Zm5.29-4.38c0-1.38-.66-2.26-1.71-2.26s-1.68.87-1.68,2.26.64,2.21,1.68,2.21,1.71-.83,1.71-2.21Z"/><path class="cls-3" d="m271.5,68.12c-.23,1.5-1.6,2.51-3.49,2.51-2.36,0-3.77-1.51-3.77-3.96s1.43-4.03,3.69-4.03,3.63,1.51,3.63,3.84v.64h-5.28v.13c0,1.09.69,1.84,1.76,1.84.76,0,1.35-.38,1.54-.96h1.91Zm-5.19-2.29h3.25c-.04-.98-.68-1.65-1.61-1.65s-1.57.69-1.64,1.65Z"/><path class="cls-3" d="m281.67,67.97h-3.62l-.79,2.5h-2.21l3.58-10.31h2.53l3.58,10.31h-2.29l-.79-2.5Zm-3.16-1.61h2.69l-1.32-4.22h-.05l-1.32,4.22Z"/><path class="cls-3" d="m285.68,60.16h2.09v10.31h-2.09v-10.31Z"/><path class="cls-3" d="m296.24,70.46h-2.01v-1.38h-.04c-.38.96-1.14,1.52-2.29,1.52-1.66,0-2.76-1.08-2.76-2.86v-4.94h2.08v4.5c0,1.02.51,1.56,1.43,1.56s1.51-.66,1.51-1.68v-4.39h2.08v7.66Z"/><path class="cls-3" d="m297.6,62.81h2.01v1.39h.04c.32-.92,1.14-1.53,2.18-1.53,1.11,0,1.88.57,2.13,1.57h.04c.34-.96,1.26-1.57,2.38-1.57,1.5,0,2.51,1.03,2.51,2.57v5.23h-2.09v-4.71c0-.89-.44-1.37-1.25-1.37s-1.31.58-1.31,1.43v4.65h-2.01v-4.77c0-.82-.46-1.31-1.24-1.31s-1.33.6-1.33,1.46v4.62h-2.09v-7.66Z"/><path class="cls-3" d="m310.23,62.81h2.01v1.36h.04c.41-.95,1.21-1.51,2.39-1.51,1.7,0,2.66,1.07,2.66,2.86v4.93h-2.09v-4.5c0-1-.47-1.57-1.41-1.57s-1.53.69-1.53,1.68v4.39h-2.09v-7.66Z"/><path class="cls-3" d="m318.62,60.89c0-.61.49-1.08,1.11-1.08s1.11.47,1.11,1.08-.49,1.08-1.11,1.08-1.11-.48-1.11-1.08Zm.07,1.92h2.08v7.66h-2.08v-7.66Z"/></g></svg>