<?xml version="1.0" encoding="UTF-8"?><svg id="Layer_2" xmlns="http://www.w3.org/2000/svg" xmlns:xlink="http://www.w3.org/1999/xlink" viewBox="0 0 511.03 334.3"><defs><style>.cls-1{fill:url(#New_Gradient_Swatch);}.cls-2{fill:url(#New_Gradient_Swatch-2);}</style><linearGradient id="New_Gradient_Swatch" x1="48.32" y1="-65.57" x2="565.65" y2="580.2" gradientUnits="userSpaceOnUse"><stop offset="0" stop-color="#e3b95d"/><stop offset=".03" stop-color="#dfb459"/><stop offset=".07" stop-color="#d5a54b"/><stop offset=".11" stop-color="#c38c33"/><stop offset=".15" stop-color="#ac6e29"/><stop offset=".17" stop-color="#995524"/><stop offset=".19" stop-color="#995524"/><stop offset=".22" stop-color="#b2762a"/><stop offset=".26" stop-color="#c99945"/><stop offset=".3" stop-color="#ddb55f"/><stop offset=".33" stop-color="#e8c46f"/><stop offset=".36" stop-color="#edcb76"/><stop offset=".38" stop-color="#d69f35"/><stop offset=".39" stop-color="#d69f35"/><stop offset=".42" stop-color="#fbf4db"/><stop offset=".52" stop-color="#f5e182"/><stop offset=".59" stop-color="#f4c665"/><stop offset=".6" stop-color="#edbf5f"/><stop offset=".61" stop-color="#deae53"/><stop offset=".63" stop-color="#c39138"/><stop offset=".64" stop-color="#b07c2b"/><stop offset=".65" stop-color="#bf933e"/><stop offset=".67" stop-color="#d4b25a"/><stop offset=".68" stop-color="#e2c96f"/><stop offset=".7" stop-color="#edda7e"/><stop offset=".72" stop-color="#f3e385"/><stop offset=".74" stop-color="#f5e688"/><stop offset=".83" stop-color="#f4f1ac"/><stop offset=".86" stop-color="#f5f3d6"/><stop offset=".88" stop-color="#f2f3f9"/><stop offset=".91" stop-color="#d39729"/><stop offset=".95" stop-color="#fbeda3"/><stop offset="1" stop-color="#f8c95e"/></linearGradient><linearGradient id="New_Gradient_Swatch-2" x1="33.45" y1="-53.66" x2="550.78" y2="592.12" xlink:href="#New_Gradient_Swatch"/></defs><g id="Layer_1-2"><path class="cls-1" d="m0,109.67v-8.47c.15.35.31.69.53,1.2.41-1.36.85-2.48,1.49-3.51,1.99-3.17,4.92-5.05,8.35-6.4,21-8.25,41.98-16.55,62.96-24.85,30.1-11.9,60.2-23.82,90.29-35.73,21.17-8.38,42.34-16.76,63.52-25.14,5.1-2.02,10.12-4.26,15.56-5.27,2.07-.38,4.12-.8,6.22-1.07-.79-.28-1.66,0-2.4-.45h19.96c-1.06.76-2.36-.11-3.48.49.37.33.8.31,1.19.35,3.65.39,7.23,1.16,10.66,2.47,6.95,2.64,13.86,5.39,20.78,8.13,22.26,8.79,44.53,17.59,66.79,26.4,19.82,7.85,39.64,15.71,59.46,23.56,24.42,9.67,48.85,19.33,73.26,29.03,3.12,1.24,6.37,2.19,9.29,3.93,4.71,2.82,7.36,8.45,6.42,13.84-.95,5.44-4.23,8.96-9.28,10.96-19.71,7.8-39.41,15.6-59.12,23.4-16.11,6.38-32.22,12.76-48.34,19.14-26.9,10.64-53.8,21.27-80.69,31.91-11.67,4.62-23.33,9.26-35.01,13.85-7.74,3.04-15.77,4.59-24.11,4.46-7.57-.12-14.84-1.76-21.85-4.53-14.62-5.76-29.21-11.57-43.82-17.35-20.1-7.95-40.2-15.87-60.3-23.82-18.97-7.51-37.94-15.04-56.91-22.56-1.34-.53-1.43-.48-1.45.91,0,.33,0,.66,0,1,0,24.3.01,48.6-.03,72.91,0,1.4.46,2.26,1.54,3.12,6.93,5.52,10.33,12.84,10.09,21.63-.2,7.35-3.3,13.56-8.71,18.55-.77.71-1.03,1.41-.82,2.41,2.53,12.15,5.08,24.29,7.55,36.45.86,4.26,2.22,8.41,2.13,12.86-.19,9.64-7.59,18.53-17.14,20.07-5.98.96-12.05.96-18.02.14-12.18-1.67-20.1-13.07-17.7-25.15,1.16-5.86,2.5-11.68,3.68-17.55,1.81-9.07,3.76-18.12,5.67-27.18.16-.75.02-1.23-.56-1.74-12.41-10.96-12.06-29.78.78-40.29,1.21-.99,1.71-2,1.71-3.57-.04-28.21-.03-56.41-.03-84.62q0-2.36-2.2-3.22c-8.89-3.5-17.79-6.99-26.68-10.52-2.08-.83-4.19-1.64-5.97-3.06-2.19-1.77-3.76-3.97-4.54-6.7-.09-.31,0-1.04-.7-.44Z"/><path class="cls-2" d="m414.51,217.97c0,12.26,0,24.51,0,36.77,0,4.46-.27,8.9-1.64,13.17-2.02,6.31-5.46,11.81-9.88,16.72-9.21,10.23-20.68,17.26-32.97,23.09-12.52,5.94-25.62,10.22-39.06,13.5-9.12,2.22-18.32,4.12-27.64,5.31-8.77,1.12-17.57,2.05-26.4,2.65-9.88.68-19.77.84-29.66.61-9.09-.22-18.17-.8-27.22-1.84-7.01-.81-14.04-1.51-20.99-2.76-11.71-2.1-23.29-4.72-34.63-8.36-11.67-3.74-22.98-8.3-33.64-14.4-8.45-4.84-16.27-10.5-22.78-17.83-5.1-5.74-9.04-12.11-10.63-19.73-.6-2.85-.84-5.76-.84-8.66-.05-26.01-.03-52.01-.04-78.02,0-.25,0-.5,0-.75-.01-1.06.41-1.29,1.4-.89,3.69,1.51,7.41,2.97,11.12,4.44,18.75,7.4,37.5,14.79,56.24,22.21,18.55,7.35,37.07,14.75,55.62,22.09,6.54,2.59,13.16,4.94,20.14,6.05,11.19,1.78,22.35,1.65,33.43-.94,6.58-1.54,12.84-4,19.1-6.49,15.18-6.03,30.38-12.01,45.56-18.02,15.42-6.1,30.83-12.22,46.25-18.33,9.27-3.67,18.55-7.34,27.82-11.01,1.17-.46,1.33-.3,1.33,1.29,0,13.38,0,26.75,0,40.13h0Z"/></g></svg>