<?xml version="1.0" encoding="UTF-8"?><svg id="Layer_2" xmlns="http://www.w3.org/2000/svg" viewBox="0 0 1917.55 331.91"><defs><style>.cls-1{fill:#fff;}</style></defs><g id="Layer_1-2"><g><g><path class="cls-1" d="M2.93,331.11c-1.07,0-2.11-.34-2.6-1.74-1.04-2.92,.5-4.8,3.14-6.73,1.73-1.26,3.18-2.81,4.73-4.45,1.82-1.94,3.71-3.95,6.08-5.44,1.57-.99,1.14-3.06,.61-4.93-3.06-10.69-3.41-21.74-3.51-32.13-.02-2.57,1.15-4.89,3.21-6.37,2.21-1.58,5.13-1.96,7.82-1.03,3.4,1.18,7.03,1.01,10.2-.48,4.3-2.01,8.47-1.25,12.51-.52,1.22,.22,2.48,.45,3.72,.6,2.19,.27,2.87,2.38,3.37,3.92,.68,2.15,1.3,4.24,1.44,6.36,.31,4.43,3.4,6.39,6.68,8.45,.44,.28,.87,.55,1.3,.83,.49,.32,.92,.37,1.04,.28,.08-.06,.19-.38-.02-1.13-.23-.81-.22-1.67-.22-2.49,0-.34,0-.68-.01-1.01v-.09s.03-.09,.03-.09c.59-1.73,.57-3.18-.05-4.55l-.04-.17-.14-1.81c-.04-.26-.14-.57-.24-.91-.35-1.15-.88-2.9,1.57-3.69l.38-.12,1.42,2.37c.17,.54,.21,1.1,.25,1.64,.06,.8,.11,1.56,.61,2.17l.09,.11,.02,.14c.61,4.49,2.19,8.8,3.73,12.96,1,2.73,2.04,5.55,2.8,8.41,.67,2.49,1.56,3.97,2.79,4.64,1.04,.57,2.35,.59,4.01,.07,.91-.29,1.87-.04,2.81,.2,.24,.06,.47,.12,.71,.17,1.78,.38,3.21,.13,4.15-.72,1.06-.97,1.51-2.73,1.25-4.95-.59-5.22-.68-10.59-.76-15.78v-.85c-.05-1.88,.02-3.78,.09-5.62,.11-3.13,.23-6.36-.16-9.54-.81-6.79,.77-9.73,7.03-13.12,.41-.22,.82-.45,1.23-.68,1.01-.57,2.05-1.15,3.12-1.67,5.28-2.58,6.08-4.47,4.24-10.13-2.69-8.27-1.4-16.62,3.82-24.79,1.32-2.08,3.13-3.27,5.22-3.46,2.74-.24,5.83,1.26,8.47,4.12,3.16,3.43,4.62,7.41,6.04,11.26,.51,1.39,1.04,2.83,1.64,4.22,.85,1.96,.38,3.89-.27,6.03-.95,3.13-1.02,5.13-.22,6.5,.82,1.39,2.6,2.28,5.94,2.99,1.22,.26,2.33,.48,3.34,.69,10.52,2.14,10.64,2.25,12.74,12.01,.22,1.03,.46,2.16,.75,3.43,.23,1.06,.55,2.13,.86,3.17,.14,.49,.29,.97,.43,1.46,.16,.28,.31,.57,.45,.86,.02-.92,.13-1.85,.41-2.8l.07-.15c.72-1,1.44-2.01,2.06-2.9l.8-1.12,.41,.31c3.55,2.71,3.68,6.55,3.81,10.25,.03,.92,.06,1.86,.15,2.78,.34,3.71,1.03,7.45,1.7,11.08,.25,1.32,.49,2.65,.72,3.97,.45,2.64,.47,2.74,4.76,3.48-.02-.5-.02-.99-.02-1.47,0-2.09,0-4.07-1.7-5.71-1.4-1.37-.48-2.43,.13-3.14,.57-.65,.9-1.09,.71-1.72-.67-2.27-.76-4.66-.84-6.96-.13-3.52-.25-6.84-2.22-9.94-.68-1.07-.16-2.14,.33-3.17,.43-.89,.87-1.81,.63-2.81-.68-2.78-.93-5.64-1.18-8.41-.28-3.18-.58-6.47-1.5-9.69-.08-.28-.17-.58-.26-.89-1.14-3.77-3.04-10.07,2.91-13.6,.02-.1,.02-.28,.02-.41,0-.25,0-.51,.06-.74,.07-.31,.18-.6,.35-1.08,.1-.28,.23-.63,.39-1.09l.54-1.54,.42,1.58c.68,2.58,1.52,4.09,2.98,5.42,.28,.25,.6,.5,.93,.75,1.13,.87,2.41,1.85,2.5,3.29,.06,.9-.36,1.81-1.27,2.78,1.2,3.7,1.41,7.61,1.62,11.4,.29,5.29,.59,10.77,3.62,15.58,.72,1.14,.21,2.28-.24,3.28-.41,.91-.8,1.77-.46,2.71,.76,2.08,1.03,4.29,1.28,6.42,.36,2.96,.73,6.02,2.43,8.81,.6,.98,.27,2.42-.11,4.09-.35,1.52-.74,3.24-.4,4.68,.23,.98,2.1,2.5,4.25,3.46,1.6,.71,3.04,.95,3.66,.61,.86-.47,.77-1.09,.53-2.15-.07-.31-.14-.6-.16-.88-.17-1.92-.44-3.86-.71-5.73-.48-3.39-.97-6.89-.89-10.41v-.28s.25-.14,.25-.14c1.44-.85,1.3-1.98,1.13-3.41-.08-.69-.17-1.4-.06-2.1-.1-3.75,2.4-5.29,4.82-6.78,.95-.59,1.85-1.14,2.6-1.83,.22-.16,.38-.28,.55-.4l.42-.3c.65-.8,1.5-.37,1.97-.14,.63,.31,.67,.29,.85-.04,.45-1.14,1.4-1.75,2.33-2.34,.27-.17,.55-.35,.8-.54,.93-.56,1.84-.63,2.73-.25,3.84-1.71,5.03-6.36,4.62-9.02-1.66-10.67,4.37-16.75,10.69-22.06,.5-.48,1.13-.82,1.73-1.15,.8-.43,1.56-.84,2.01-1.6l.06-.11,.35-.16c1.33-.18,1.75-1.2,2.23-2.38l.28-.6c.92-1.05,.73-2.24,.52-3.61-.19-1.22-.41-2.6,.34-3.85-.11-.32-.21-.79,.09-1.15,.36-.43,.98-.35,1.49-.22l.44,.1-.06,.44c-.76,6.12,2.64,8.7,7.54,11.68l1.34,.81c6.52,3.92,13.9,8.37,14.54,18.04,.1,1.47-.14,2.86-.36,4.19-.18,1.05-.35,2.04-.36,3.07-.03,2.06,.25,3.49,1.72,3.8,1.99,.42,3.34,.25,3.94-1.89,.53-1.92,2.3-3.15,3.86-4.23,.22-.15,.43-.3,.64-.45,.08-.1,.15-.21,.21-.33,.23-.37,.51-.83,1.04-.95,.36-.09,.75,0,1.19,.29l.1,.06,.06,.1c.68,1.12,1.65,1.98,2.68,2.89,1.41,1.25,2.87,2.54,3.56,4.54,.12,.34,.39,.65,.67,.98,.7,.81,1.67,1.92,.09,3.93-.21,.27-.27,.48-.17,.62,.26,.37,1.29,.58,2.23,.28,.82-.22,1.63-.28,2.41-.33,.61-.04,1.19-.08,1.75-.19l.11-.02,.11,.03c1.31,.34,1.8,1.36,2.24,2.26,.28,.57,.54,1.11,.98,1.44l2.27,.71c.29-.18,.58-.25,.86-.21,.36,.05,.68,.28,.95,.67l.08,.11,.48,7.61c.44,6.84,.89,13.92,1.27,20.89v.26c.06,.91,.1,1.94,.56,2.36,.19,.17,.46,.25,.84,.22,.38-.02,.65-.12,.79-.29,.28-.34,.17-1.08,.08-1.73-.05-.36-.1-.69-.1-1.01,.02-7.14,.07-14.28,.13-21.42,.15-19.42,.31-39.51-.38-59.23-.16-4.63-.39-9.35-.61-13.91-.31-6.35-.62-12.91-.76-19.37-.06-2.38,.65-4.56,1.33-6.67,.28-.85,.56-1.74,.79-2.61,.91-3.5,2.39-6.89,3.82-10.17,2.75-6.3,5.6-12.81,4.36-20.2-.41-2.4,.02-4.75,1.27-6.99,3.93-7.12,5.49-13.02,5.03-19.15-.14-1.96,.73-3.21,2.34-3.35l.25-.02,.17,.19c.64,.73,.61,1.58,.59,2.32-.02,.58-.04,1.09,.24,1.5l.1,.15-.02,.18c-.53,5.04,1.26,9.59,3.31,14.18,2.58,5.76,3.72,11.24,3.58,17.24-.09,3.87,.29,9.47,4.58,13.38,.38,.34,.45,.9,.51,1.39,.03,.24,.06,.49,.12,.67,4.6,13.1,6.17,25.92,4.66,38.11-2.14,17.18-1.98,34.69-1.82,51.63,.08,8.77,.17,17.83-.07,26.75-.02,.91-.03,1.82-.04,2.73-.01,1.69-.02,3.43-.15,5.14-.09,1.24,.16,2.21,.74,2.88,.65,.74,1.72,1.16,3.18,1.25,.96,.06,1.63-.14,2.02-.59,.5-.59,.58-1.72,.23-3.25-.99-4.28-.67-8.62-.36-12.81,.27-3.62,.54-7.35-.02-11.05-.39-2.52-.1-5.45,.17-8.27,.17-1.72,.34-3.5,.36-5.18,.03-2.22-.26-4.5-.54-6.7-.19-1.52-.4-3.08-.49-4.64-.17-2.59,1.46-4.49,2.9-6.17l.09-.08c.92-.66,1.87-.61,2.67,.14,3.67,3.11,3.44,7.1,3.22,10.96-.04,.67-.08,1.34-.1,2.01-.03,1.04-.08,2.07-.14,3.1-.23,4.4-.47,8.94,1.32,13.42,.95,2.37,.64,5.21,.34,7.96-.1,.9-.2,1.83-.25,2.71v.21c-.13,1.99-.23,3.88,.84,5.71,.04-.03,.08-.06,.11-.08,.12-.09,.28-.21,.37-.28-.41-5.88,.39-11.75,1.16-17.42,.59-4.34,1.2-8.83,1.26-13.3,.02-1.38,0-2.81,0-4.25-.05-4.73-.09-9.62,.98-13.91,1.59-6.36,1.77-12.86,1.94-19.14,.13-4.73,.26-9.62,1-14.4,1.12-7.23,1.38-12.87,.82-18.28-.15-1.34,.48-2.21,1.91-2.65,5.91-1.85,5.83-6.62,5.75-11.66v-.33c-.04-2.12-.42-4.46-1.16-7.14-.39-1.43-.75-2.77-.1-3.82,.44-.72,1.28-1.18,2.62-1.46,11.46-2.37,21.14-3.14,31.15,.79,4.99,1.96,4.3,5.04,3.68,7.75-.24,1.07-.47,2.08-.38,3.01,.13,1.36-.2,2.73-.52,4.05-.18,.77-.37,1.56-.47,2.33-.44,3.48-.44,6.24,3.8,7.42,1.29,.36,3.35,1.56,2.61,5.62l-.04,.21c-.92,5.02-1.87,10.21-1.04,15.54,.3,1.93-.12,3.93-.53,5.87-.33,1.55-.66,3.15-.62,4.67,.09,2.92-.19,5.89-.46,8.75-.37,3.84-.71,7.47-.24,11.04,.46,3.54-.09,6.99-.63,10.32-.66,4.11-1.34,8.35-.1,12.74,.62,2.18,.03,4.8-.59,7.57-.47,2.09-.96,4.26-.92,6.28,.02,1.07,.11,2.16,.2,3.22,.2,2.43,.41,4.94-.21,7.47-.04,.15-.09,.32-.15,.51-.14,.44-.34,1.03-.17,1.29,.09,.13,.33,.23,.69,.26,.76,.07,1.8-.06,2.51-1.1,1.75-2.58,3.97-4.76,6.12-6.87,.97-.96,1.98-1.94,2.91-2.94,.92-.98,1.91-1.94,2.87-2.88,1.49-1.45,3.04-2.95,4.36-4.57,.12-.15,.25-.43,.36-.67,.24-.52,.48-1.06,1-1.1,1.61-.15,2.74-.64,3.36-1.47,1.02-1.36,.58-3.54,.24-5.29-.07-.37-.14-.72-.2-1.04-.57-3.48,.91-4.02,2.96-4.77l.24-.09c10.44-3.85,19.22-3.72,27.63,.42,2.77,1.36,2.39,3.49,2.09,5.2-.15,.85-.29,1.66-.11,2.36,.12,.44,.12,.89,.12,1.29,0,.99,.01,1.4,1.16,1.47,4.2,.26,6.47,3.33,8.47,6.04,.49,.66,.95,1.29,1.43,1.85,.88,1.04,2,1.73,3.1,2.41,1.38,.85,2.8,1.74,3.77,3.3,.03,.05,.11,.18,.43,.18h.01c.75,0,2.01-.71,2.7-1.78,2.33-3.58,4.74-7.19,7.07-10.68,2.18-3.27,4.36-6.54,6.52-9.82,1.33-2.03,1.1-4.24,.86-6.58-.17-1.71-.36-3.49,.09-5.24l.07-.27c.45-1.77,.8-3.18,3.28-2.76,2.89,.49,3.95-.98,4.89-3.85,1.38-4.21,2.87-8.46,4.31-12.57,1.14-3.24,2.27-6.47,3.37-9.72,.13-.4,.28-.8,.43-1.19,.69-1.88,1.35-3.65,.78-5.62-1.27-4.36-2.13-9.26,3.72-12.18,.44-.22,.95-1.32,.96-2.1,.13-6.19,1.19-12.33,2.22-18.27,.87-5,1.76-10.17,2.09-15.32,.58-9,1.23-18.14,1.85-26.98,.65-9.29,1.32-18.9,1.93-28.36,.08-1.31,.19-2.63,.29-3.95,.47-6.04,.96-12.29-.48-18.38-.63-2.65,1.12-3.54,2.52-4.27,.59-.3,1.15-.59,1.54-.98,.87-.73,1.76-.74,2.55-.04,4.36,1.37,4.24,4.42,3.67,7.96-1.21,7.61-.63,15.49-.06,23.1l.06,.79c1.48,19.85,2.79,37.75,3.74,55.79,.97,18.49,4.98,37.18,12.26,57.16,2.16,5.92,4.27,11.93,6.08,17.11l.13,.39c.45,1.37,.75,1.96,1.77,1.81,2.2-.32,3.75-.02,4.74,.91,1.48,1.38,1.29,3.84,1.15,5.81-.03,.44-.07,.87-.08,1.27-.14,4.02,.64,6.95,2.61,9.8,4.35,6.31,8.6,12.83,12.24,18.44,.68,1.06,1.25,1.6,1.69,1.61,.6,0,1.35-.92,2-1.84,2.75-3.87,5.19-8.25,4.43-14.04-.22-1.7,.68-3.55,1.47-5.18l.1-.2c2.61-5.34,4.11-11.21,4.6-17.93,.12-1.49,.93-2.6,1.65-3.58l.11-.15c8.44-11.44,20.6-18.06,39.43-21.47,3.63-.66,5.51,3.31,7.01,6.5,.21,.45,.41,.88,.62,1.28,.74,1.49,1.17,3.14,1.58,4.74,.2,.79,.4,1.58,.64,2.35,.09,.28,.17,.57,.25,.86,.56,1.95,1.04,3.63,3.47,4.32,2.85,.81,2.34,4.19,2.12,5.63-.68,4.59,.13,8.93,.98,13.53,.13,.7,.26,1.41,.39,2.12,.26,1.49,.73,2.41,1.42,2.82,.61,.36,1.45,.34,2.55-.04,2.91-1.03,4.26,.22,5.51,2.56,2.63,4.94,5.87,5.82,11.19,3.05,.3-.16,.6-.33,.91-.51,1.24-.73,2.64-1.55,3.92-1.03,.93,.38,1.61,1.39,2.09,3.1,.05,.16,.11,.18,.23,.17,.33-.04,.75-.4,.77-.81,.1-1.47,.5-2.48,1.25-3.08,1.1-.9,2.63-.68,4.11-.48,.31,.04,.61,.08,.91,.12,16.02,1.7,30.06,5.06,42.92,10.26,1.48,.6,2.87,1.41,4.22,2.2,.89,.52,1.81,1.06,2.74,1.52,8.22,4.1,8.17,11.99,8.12,18.96-.02,1.8,.44,3.17,.99,4.7,1.2-.56,1.39-1.71,1.57-2.81l.42-2.38c1.67-9.52,3.4-19.37,3-29.48-.33-8.52-.71-18.17,2-27.45,.88-3.03,2.01-8.92-.36-14.41-.71-1.67-.47-3.02-.21-4.44,.08-.46,.2-.87,.32-1.26,.3-1.03,.59-1.99,.04-2.68-4.26-5.36-1.28-9.29,1.78-12.12,1.28-1.18,1.99-2.97,1.76-4.47-.8-5.33-.49-10.71-.18-15.91,.23-3.89,.47-7.9,.23-11.84-.46-1.64-.33-3.31-.21-4.93,.15-2.04,.29-3.96-.65-5.79-3.4-6.5-1.99-12.15,4.19-16.79,1.3-.96,2.46-.85,3.64,.34,4.64,4.71,5.15,9.72,1.75,17.28-2.27,5.05-2.75,11.22-1.46,18.87,.77,4.59,1.02,9.06,.77,13.27-.15,2.4,.26,3.64,3.03,4.19,1.7,.34,2.78,.28,3.5-.2,.59-.4,1-1.15,1.24-2.29-.2-.6-.16-1.09,.1-1.44,.28-.38,.79-.54,1.5-.5h.12s.11,.07,.11,.07c1.36,.85,2.4,1.11,3.07,.77,.72-.36,1.16-1.47,1.32-3.3l.04-.51,.51,.06c1.95,.23,1.87,1.64,1.81,2.58-.04,.76-.03,1.13,.3,1.33,1.39,1.12,2.4,1.16,3.44,.16l.14-.13h.19c.56-.02,1.19,.01,1.5,.49,.34,.52,.04,1.18-.07,1.4l-.06,.09c-1.11,1.42-.87,2.6,.8,3.93l.08,.08c.69,.85,.75,1.81,.18,2.77-.51,1.55,.21,1.95,1.62,2.58,.35,.16,.7,.31,1.01,.49l.26,.15v.3c-.04,.73-.24,1.24-.61,1.58-.55,.49-1.31,.43-1.97,.37-.9-.07-1.2-.04-1.36,.32-.59,1.78-.48,3.64-.36,5.62,.12,2.07,.25,4.21-.51,6.33-.28,.79,.2,2.51,.86,3.07,5.09,4.25,6.12,10.16,7.12,15.87l.19,1.09c.07,.37,.09,.77,.11,1.16,.08,1.34,.14,2.5,1.72,2.93,1.56,.42,2.86-.18,4.1-1.88,2.69-3.69,6.34-3.64,9.87-3.6,.9,.01,1.83,.02,2.72-.03,.36-.02,1.57-.02,2.2,.75,.22,.27,.45,.75,.25,1.47l-.04,.17c-1.84,6.81-3.75,13.86-10.06,18.25-2.35,1.65-3.44,2.87-3.27,5.35,.04,.69,.1,3.02-1,4.13-3.45,3.47-3.33,7.57-3.2,11.91,.03,1.12,.07,2.28,.03,3.42-.1,3.84-1.35,7.4-2.55,10.84-.32,.9-.63,1.81-.93,2.72l-.07,.14c-.46,.64-1.1,1.53-1.01,1.8,.1,.32,1.33,.75,2.38,1.12,1.42-.33,2.82,.24,3.44,1.42,.79,1.52,1.65,2.38,2.53,2.58,1.28,.28,2.68-.79,4.03-1.82,.4-.31,.79-.61,1.18-.87,9.92-6.77,20.43-14.04,33.09-22.9,1.6-1.12,2.82-1.95,3.85-2.39,2.6-1.12,3.89,.34,6.57,3.74,.17,.22,.33,.45,.5,.68,.48,.7,.94,1.49,1.37,2.24,1.33,2.31,2.59,4.48,4.56,4.6,1.69,.09,3.66-1.59,5.55-3.22,.84-.72,1.71-1.47,2.57-2.07,8.72-6.12,9.15-6.05,15.53,2.34,3,3.94,5.85,8.09,8.61,12.11,.9,1.3,1.79,2.61,2.69,3.91,1.16,1.68,2.42,3.33,3.94,3.5,1.01,.11,2.13-.42,3.43-1.63,.88-.82,1.8-1.2,2.75-1.14,1.06,.07,2.07,.7,3.02,1.87,3.64,4.48,7.3,8.95,10.96,13.42,5.07,6.19,10.31,12.59,15.43,18.93h0c.96,1.2,1.28,2.29,.88,3.09-.38,.76-1.32,1.12-2.81,1.1-.44-.01-.87,0-1.3,0h-.67c-100.22,0-200.44,0-300.66,0-.67,0-1.34-.05-1.99-.09-.33-.02-.65-.04-.98-.06l-.18-.04c-.96-.42-1.58-1-1.84-1.71-.15-.4-.17-.85-.08-1.32-1.74,.6-3.23-.29-4.56-1.09-.24-.15-.48-.29-.72-.42,.72,1.28,1.17,2.7-.07,4.37l-.14,.19h-.24c-.47,.03-.95,.05-1.42,.07-1.15,.05-2.34,.1-3.52,.1-193.91,0-394.43,0-591.65-.06-.4,0-.86,.08-1.36,.16-.51,.08-1.09,.18-1.65,.18Zm16.52-62.33c-1.54,0-3.04,.46-4.28,1.35-1.8,1.29-2.82,3.31-2.8,5.55,.1,10.33,.44,21.29,3.47,31.87,.42,1.49,1.29,4.58-1.04,6.05-2.27,1.42-4.11,3.38-5.89,5.27-1.51,1.6-3.06,3.26-4.87,4.58-2.8,2.04-3.53,3.51-2.78,5.59,.46,1.29,1.5,1.18,3.15,.91,.51-.08,1.04-.17,1.52-.17,197.22,.06,397.74,.06,591.65,.06,1.15,0,2.33-.05,3.47-.1,.39-.02,.79-.04,1.18-.05,.95-1.45,.19-2.63-.69-3.99l-.94-1.5,1.23,.33c.84,.23,1.62,.69,2.38,1.14,1.57,.94,2.93,1.75,4.68,.49l.09-.07v-.36c-.03-1.09-.8-1.66-1.69-2.32-.48-.36-.98-.73-1.37-1.2l.76-.65c.31,.35,.77,.63,1.26,.94,.98,.61,2.17,1.34,2.09,2.83l.53-.38-.72,1.42-.52,2.32c.18,.39,.57,.73,1.18,1.01,.3,.02,.6,.04,.9,.06,.64,.04,1.28,.09,1.92,.09,100.22,0,200.44,0,300.66,0h.66c.45,0,.89-.01,1.34,0,1.03,.01,1.7-.17,1.88-.54,.2-.41-.09-1.18-.77-2.02h0c-5.11-6.33-10.35-12.73-15.42-18.92-3.66-4.47-7.32-8.94-10.97-13.43-.76-.94-1.54-1.45-2.31-1.5-.66-.04-1.33,.25-2,.87-1.52,1.42-2.91,2.03-4.22,1.89-1.94-.21-3.36-2.05-4.65-3.92-.9-1.3-1.8-2.61-2.7-3.91-2.75-4.01-5.6-8.15-8.58-12.07q-5.98-7.86-14.14-2.14c-.83,.58-1.69,1.32-2.51,2.03-2.05,1.76-4.17,3.59-6.27,3.46-2.5-.15-3.95-2.67-5.36-5.1-.43-.74-.87-1.51-1.33-2.18-.15-.22-.31-.44-.47-.64-2.74-3.48-3.56-4.21-5.39-3.43-.94,.4-2.17,1.24-3.67,2.29-12.66,8.86-23.18,16.13-33.09,22.9-.37,.26-.75,.55-1.14,.84-1.54,1.17-3.12,2.4-4.85,2.01-1.2-.27-2.25-1.28-3.2-3.09-.42-.8-1.43-1.17-2.44-.88l-.15,.04-.15-.05c-1.95-.68-2.9-1.04-3.15-1.81-.22-.71,.25-1.43,1.11-2.62,.29-.89,.6-1.78,.91-2.67,1.18-3.37,2.39-6.85,2.49-10.54,.03-1.11,0-2.25-.03-3.36-.13-4.36-.27-8.87,3.49-12.65,.6-.61,.79-2.12,.72-3.36-.23-3.22,1.54-4.73,3.69-6.24,6.01-4.19,7.87-11.06,9.67-17.7l.04-.16c.09-.33,0-.49-.06-.58-.21-.26-.77-.42-1.37-.38-.92,.06-1.87,.04-2.79,.03-3.43-.04-6.66-.09-9.05,3.19-1.5,2.05-3.19,2.79-5.17,2.26-2.27-.62-2.38-2.48-2.45-3.83-.02-.37-.04-.73-.1-1.04l-.19-1.1c-1.01-5.79-1.97-11.26-6.78-15.28-.99-.83-1.58-2.97-1.16-4.17,.68-1.92,.57-3.87,.45-5.93-.12-1.98-.24-4.03,.43-6.04,.49-1.11,1.58-1.03,2.37-.96,.49,.04,1,.08,1.23-.12,.13-.12,.2-.34,.24-.56-.21-.1-.42-.2-.64-.3-1.27-.56-3.01-1.34-2.15-3.87l.05-.1c.37-.6,.36-1.1-.04-1.62-2.03-1.65-2.35-3.41-.95-5.24,.12-.28,.11-.38,.11-.39,0,.02-.09-.03-.44-.03-1.37,1.21-2.9,1.15-4.55-.2-.83-.49-.77-1.44-.73-2.21,.05-.82,.04-1.22-.44-1.41-.24,1.89-.84,3.06-1.81,3.54-1,.5-2.28,.25-3.93-.75-.34,0-.48,.06-.52,.1-.04,.05-.06,.24,.09,.63l.05,.13-.03,.14c-.29,1.49-.84,2.49-1.69,3.06-.96,.64-2.26,.75-4.25,.35-3.42-.68-4-2.51-3.83-5.23,.25-4.14,0-8.53-.75-13.05-1.32-7.85-.82-14.21,1.54-19.45,3.2-7.12,2.75-11.8-1.55-16.16-.83-.84-1.44-.9-2.33-.24-5.81,4.36-7.09,9.44-3.9,15.53,1.07,2.08,.91,4.24,.76,6.32-.12,1.62-.23,3.15,.19,4.63l.02,.11c.25,4.02,0,8.08-.22,12.01-.3,5.15-.62,10.48,.17,15.7,.27,1.84-.54,3.94-2.08,5.35-4.14,3.82-4.64,7.04-1.68,10.76,.88,1.09,.48,2.42,.14,3.59-.12,.39-.22,.75-.29,1.1-.26,1.44-.46,2.54,.14,3.93,2.49,5.77,1.32,11.93,.4,15.08-2.66,9.13-2.29,18.69-1.96,27.13,.41,10.22-1.33,20.12-3.01,29.69l-.41,2.38c-.21,1.24-.52,3.12-2.71,3.77l-.45,.13-.25-.69c-.59-1.65-1.15-3.2-1.13-5.28,.05-7,.1-14.24-7.56-18.06-.96-.48-1.89-1.03-2.8-1.55-1.32-.77-2.68-1.57-4.09-2.14-12.77-5.17-26.72-8.51-42.65-10.2-.31-.03-.62-.08-.94-.12-1.26-.17-2.57-.36-3.34,.26-.52,.42-.8,1.2-.88,2.37-.06,.94-.91,1.66-1.67,1.74-.62,.08-1.12-.28-1.29-.89-.38-1.37-.89-2.2-1.5-2.45-.82-.33-1.95,.33-3.04,.96-.32,.19-.64,.38-.95,.54-5.79,3.01-9.66,1.94-12.53-3.47-1.25-2.35-2.21-2.81-4.29-2.08-1.4,.49-2.51,.48-3.39-.04-.96-.56-1.58-1.71-1.9-3.51-.12-.7-.26-1.41-.39-2.11-.83-4.48-1.69-9.11-.99-13.86,.42-2.77,0-4.12-1.4-4.52-2.96-.84-3.57-2.96-4.15-5.01-.08-.28-.16-.56-.25-.83-.25-.79-.45-1.59-.66-2.4-.4-1.55-.8-3.14-1.5-4.54-.21-.41-.41-.85-.63-1.3-1.43-3.03-3.05-6.46-5.93-5.94-18.56,3.36-30.53,9.86-38.81,21.08l-.11,.15c-.7,.95-1.37,1.85-1.46,3.06-.5,6.85-2.04,12.83-4.7,18.29l-.1,.2c-.73,1.51-1.56,3.21-1.38,4.62,.8,6.14-1.88,10.9-4.61,14.74-1,1.4-1.81,2.26-2.8,2.26h-.04c-.82-.02-1.6-.66-2.51-2.07-3.63-5.61-7.87-12.12-12.22-18.42-2.07-3-2.93-6.2-2.79-10.4,.01-.41,.05-.85,.08-1.31,.14-1.85,.3-3.95-.83-5-.75-.7-2.07-.92-3.92-.65-1.95,.28-2.48-1.32-2.87-2.49l-.13-.38c-1.81-5.17-3.92-11.18-6.08-17.09-7.32-20.07-11.35-38.86-12.32-57.44-.95-18.03-2.25-35.92-3.74-55.77l-.06-.79c-.57-7.67-1.15-15.61,.07-23.33,.65-4,.36-5.85-3.08-6.88l-.12-.04-.09-.08c-.44-.42-.79-.43-1.27-.03-.48,.47-1.13,.8-1.76,1.13-1.52,.78-2.43,1.35-2.01,3.15,1.48,6.24,.98,12.57,.5,18.69-.1,1.31-.21,2.62-.29,3.93-.61,9.46-1.28,19.07-1.93,28.36-.62,8.84-1.26,17.98-1.85,26.98-.33,5.2-1.23,10.4-2.1,15.42-1.02,5.91-2.08,12.02-2.21,18.13-.02,.92-.57,2.5-1.52,2.98-4.67,2.33-4.71,5.8-3.2,11,.66,2.29-.09,4.3-.81,6.24-.14,.39-.29,.78-.42,1.17-1.1,3.25-2.23,6.49-3.37,9.73-1.44,4.1-2.93,8.35-4.31,12.55-.83,2.54-2.05,5.2-6.01,4.53-1.57-.27-1.69,.22-2.14,2.02l-.07,.28c-.4,1.58-.23,3.26-.06,4.89,.25,2.41,.5,4.9-1.02,7.23-2.15,3.29-4.34,6.56-6.52,9.83-2.33,3.49-4.74,7.09-7.07,10.67-.81,1.26-2.37,2.23-3.54,2.23h-.03c-.56,0-1.01-.24-1.27-.65-.85-1.36-2.11-2.14-3.45-2.97-1.16-.72-2.36-1.46-3.33-2.62-.5-.59-.97-1.23-1.47-1.9-1.97-2.65-4-5.4-7.73-5.63-2.08-.13-2.09-1.47-2.1-2.46,0-.36,0-.73-.09-1.04-.24-.92-.07-1.87,.09-2.79,.31-1.73,.55-3.1-1.55-4.13-8.15-4.01-16.68-4.13-26.85-.38l-.25,.09c-2,.74-2.75,1.01-2.31,3.67,.05,.31,.12,.65,.19,1.01,.39,1.94,.87,4.37-.42,6.08-.78,1.04-2.11,1.67-3.98,1.86-.08,.11-.19,.35-.27,.52-.14,.32-.29,.64-.5,.9-1.36,1.66-2.92,3.18-4.44,4.65-.95,.92-1.93,1.88-2.84,2.84-.95,1.01-1.96,2.01-2.94,2.97-2.11,2.07-4.3,4.22-5.99,6.72-.77,1.13-1.99,1.67-3.43,1.54-.68-.06-1.17-.3-1.43-.7-.44-.66-.15-1.52,.06-2.15,.05-.16,.1-.3,.13-.43,.58-2.38,.38-4.81,.19-7.16-.09-1.07-.18-2.18-.2-3.28-.04-2.14,.46-4.37,.94-6.52,.59-2.65,1.15-5.14,.61-7.08-1.31-4.6-.61-8.96,.07-13.17,.52-3.27,1.07-6.64,.62-10.03-.48-3.68-.12-7.54,.24-11.26,.27-2.83,.55-5.76,.46-8.62-.05-1.64,.3-3.3,.64-4.91,.41-1.94,.79-3.77,.52-5.51-.86-5.5,.11-10.77,1.04-15.87l.04-.21c.32-1.72,.24-3.89-1.89-4.48-4.99-1.39-4.97-4.96-4.52-8.5,.1-.82,.3-1.64,.49-2.43,.31-1.3,.61-2.54,.5-3.73-.1-1.09,.15-2.23,.4-3.32,.6-2.66,1.12-4.95-3.07-6.6-9.78-3.84-19.3-3.08-30.59-.75-1.04,.21-1.69,.54-1.97,1-.42,.68-.11,1.83,.21,3.03,.76,2.76,1.15,5.17,1.19,7.38v.33c.09,4.95,.18,10.55-6.45,12.63-.96,.3-1.3,.74-1.21,1.59,.57,5.5,.32,11.22-.82,18.54-.73,4.72-.86,9.58-.99,14.27-.17,6.34-.35,12.89-1.97,19.36-1.05,4.17-1,8.99-.95,13.65,.01,1.45,.03,2.88,0,4.27-.07,4.53-.68,9.05-1.27,13.42-.77,5.66-1.56,11.52-1.14,17.34,.04,.44-.34,.72-.78,1.04-.16,.12-.33,.24-.5,.39l-.42,.36-.32-.45c-1.58-2.25-1.45-4.56-1.32-6.78v-.21c.06-.9,.17-1.85,.26-2.76,.28-2.63,.58-5.34-.28-7.48-1.87-4.68-1.63-9.34-1.39-13.84,.05-1.03,.11-2.05,.14-3.08,.02-.68,.06-1.36,.1-2.04,.22-3.78,.42-7.35-2.89-10.15-.46-.44-.86-.46-1.38-.11-1.36,1.59-2.76,3.24-2.62,5.41,.1,1.52,.3,3.07,.49,4.57,.29,2.23,.58,4.54,.55,6.84-.02,1.72-.2,3.52-.37,5.26-.28,2.89-.55,5.63-.18,8.03,.58,3.81,.3,7.61,.03,11.28-.32,4.3-.62,8.37,.33,12.51,.44,1.88,.29,3.26-.44,4.12-.6,.71-1.55,1.03-2.84,.94-1.74-.11-3.04-.64-3.87-1.59-.77-.88-1.1-2.1-.99-3.62,.13-1.68,.14-3.4,.15-5.07,0-.92,.01-1.83,.04-2.75,.23-8.9,.15-17.96,.07-26.72-.16-16.97-.32-34.52,1.83-51.76,1.49-12.03-.06-24.7-4.62-37.65-.1-.29-.14-.58-.17-.88-.04-.28-.08-.67-.19-.77-4.59-4.19-5-10.08-4.91-14.14,.13-5.84-.98-11.18-3.5-16.8-2-4.49-3.91-9.31-3.41-14.53-.35-.63-.33-1.32-.31-1.92,.02-.54,.03-1.02-.19-1.42-.86,.19-1.25,.94-1.15,2.24,.47,6.25-1.17,12.51-5.15,19.71-1.13,2.03-1.52,4.17-1.15,6.33,1.29,7.68-1.61,14.34-4.43,20.77-1.42,3.24-2.88,6.6-3.77,10.02-.23,.9-.53,1.8-.81,2.67-.66,2.03-1.34,4.12-1.29,6.33,.14,6.45,.46,13,.76,19.34,.22,4.57,.45,9.29,.61,13.92,.68,19.74,.53,39.84,.38,59.27-.06,7.14-.11,14.27-.13,21.41,0,.26,.04,.56,.09,.87,.12,.86,.25,1.83-.3,2.5-.32,.39-.83,.62-1.51,.66-.64,.04-1.17-.13-1.56-.48-.76-.69-.82-1.94-.87-3.05v-.25c-.39-6.96-.84-14.04-1.28-20.88l-.46-7.33c-.1-.12-.17-.14-.19-.14-.06,0-.18,.05-.31,.16l-.21,.17-2.97-.96c-.7-.48-1.04-1.19-1.38-1.88-.37-.77-.7-1.45-1.49-1.7-.59,.1-1.18,.15-1.75,.19-.77,.05-1.5,.11-2.21,.29-1.31,.41-2.78,.12-3.33-.67-.17-.25-.5-.92,.2-1.81,1.07-1.36,.64-1.85-.06-2.65-.32-.37-.68-.78-.86-1.31-.61-1.76-1.91-2.91-3.28-4.12-1.01-.89-2.06-1.82-2.81-3.01-.21-.12-.31-.11-.34-.1-.12,.03-.28,.29-.41,.5-.11,.17-.22,.35-.34,.5l-.09,.08c-.23,.17-.47,.33-.71,.5-1.49,1.03-3.02,2.09-3.46,3.67-.97,3.46-3.87,2.86-5.1,2.6-2.59-.54-2.54-3.42-2.52-4.8,.02-1.1,.2-2.18,.38-3.22,.22-1.28,.44-2.6,.35-3.96-.6-9.16-7.44-13.27-14.06-17.25l-1.35-.81c-4.67-2.84-8.26-5.52-8.13-11.18-.55,.94-.38,2.03-.2,3.17,.22,1.4,.46,2.98-.7,4.36l-.16,.38c-.51,1.23-1.08,2.62-2.82,2.95-.59,.89-1.45,1.35-2.29,1.8-.57,.31-1.11,.6-1.54,1.01-6.13,5.15-11.96,11.01-10.37,21.16,.48,3.11-.88,8.32-5.42,10.18l-.21,.09-.2-.1c-.66-.33-1.28-.31-1.95,.09-.23,.18-.53,.36-.82,.55-.83,.52-1.61,1.02-1.96,1.92-.69,1.26-1.71,.75-2.21,.5-.61-.31-.65-.25-.77-.09l-.12,.11-.47,.34c-.17,.12-.34,.25-.51,.36-.77,.71-1.75,1.32-2.7,1.9-2.28,1.41-4.44,2.74-4.36,6-.1,.65-.02,1.26,.06,1.9,.17,1.37,.38,3.05-1.37,4.24-.05,3.35,.43,6.72,.89,9.99,.27,1.89,.54,3.84,.71,5.78,.02,.24,.08,.49,.14,.75,.23,1.01,.54,2.39-1.02,3.25-1.27,.7-3.39-.06-4.54-.57-2.06-.92-4.45-2.61-4.81-4.14-.39-1.67,.03-3.51,.4-5.13,.32-1.4,.62-2.72,.23-3.35-1.82-2.97-2.2-6.14-2.57-9.21-.26-2.17-.51-4.22-1.23-6.2-.48-1.32,.03-2.45,.48-3.46,.46-1.02,.72-1.68,.3-2.33-3.17-5.03-3.48-10.64-3.77-16.06-.21-3.82-.43-7.77-1.67-11.42l-.1-.29,.22-.22c.84-.83,1.24-1.58,1.2-2.24-.06-.98-1.11-1.78-2.11-2.56-.35-.27-.7-.54-.99-.8-1.3-1.17-2.17-2.52-2.84-4.44-.1,.27-.16,.46-.2,.64-.03,.13-.03,.34-.04,.53,0,.47-.02,.97-.42,1.2-5.38,3.13-3.67,8.77-2.55,12.5,.1,.32,.19,.62,.27,.9,.96,3.31,1.25,6.65,1.54,9.88,.25,2.86,.5,5.56,1.16,8.26,.33,1.34-.22,2.48-.7,3.48-.48,.99-.75,1.63-.39,2.2,2.11,3.33,2.24,6.94,2.37,10.44,.09,2.35,.17,4.57,.8,6.72,.35,1.2-.38,2.04-.92,2.66-.69,.8-.88,1.08-.18,1.76,1.99,1.93,1.99,4.21,2,6.42,0,.67,0,1.36,.06,2.03l.06,.64-.64-.11c-5.2-.89-5.61-.96-6.2-4.4-.23-1.32-.47-2.64-.72-3.96-.68-3.64-1.38-7.41-1.72-11.17-.09-.95-.12-1.91-.15-2.83-.12-3.47-.23-6.76-3.01-9.17l-.19,.26c-.61,.87-1.31,1.85-2.02,2.83-.57,2-.38,3.94,.07,6.23l-.97,.23c-.45-1.63-1.04-3.08-1.8-4.45l-.05-.11c-.14-.5-.29-1-.44-1.5-.31-1.05-.64-2.15-.88-3.24-.28-1.27-.53-2.41-.75-3.44q-1.98-9.21-11.96-11.24c-1.01-.21-2.12-.43-3.35-.69-3.65-.77-5.62-1.8-6.6-3.46-.96-1.63-.92-3.88,.12-7.3,.62-2.01,1.03-3.68,.31-5.34-.61-1.41-1.15-2.87-1.66-4.27-1.44-3.93-2.81-7.64-5.84-10.93-2.43-2.63-5.21-4.02-7.64-3.8-1.8,.16-3.3,1.17-4.47,3-5.05,7.92-6.31,15.97-3.72,23.95,2.01,6.19,1.03,8.52-4.76,11.34-1.04,.5-2.07,1.08-3.06,1.64-.41,.23-.82,.46-1.24,.69-5.87,3.18-7.27,5.78-6.51,12.12,.39,3.25,.27,6.53,.16,9.69-.06,1.83-.13,3.72-.1,5.57v.85c.1,5.17,.18,10.51,.77,15.69,.29,2.55-.27,4.62-1.58,5.81-1.19,1.08-2.93,1.41-5.04,.96-.25-.05-.5-.12-.74-.18-.83-.21-1.62-.41-2.26-.21-1.9,.6-3.52,.55-4.79-.15-1.95-1.07-2.8-3.51-3.27-5.26-.75-2.82-1.78-5.62-2.78-8.33-1.53-4.18-3.12-8.49-3.76-13.04-.62-.83-.68-1.78-.74-2.62-.03-.48-.07-.93-.19-1.35l-.92-1.51c-1.06,.46-.92,1.11-.56,2.31,.11,.35,.22,.72,.27,1.08l.14,1.76c.68,1.55,.71,3.22,.08,5.12,.01,.32,0,.64,0,.97,0,.79,0,1.54,.18,2.22,.3,1.08,.19,1.82-.35,2.21-.63,.46-1.54,.17-2.18-.25-.42-.28-.85-.55-1.29-.82-3.34-2.11-6.8-4.29-7.15-9.23-.13-2.01-.73-4.04-1.39-6.11-.47-1.44-.99-3.06-2.54-3.25-1.27-.15-2.55-.38-3.78-.61-4.06-.74-7.89-1.43-11.9,.44-3.41,1.6-7.3,1.79-10.96,.52-.87-.3-1.76-.45-2.63-.45Zm319.74,9.56s0,0,0,0c0,0,0,0,0,0Zm71.44-20.32s0,0,0,0c0,0,0,0,0,0Zm-182.72-43.42s0,0,0,.02c0,0,0,0,0-.02h0Zm-73.93,72.18v-4.33c0-2.3-.13-4.18-.41-5.92l.98-.18c.27,1.26,.53,2.76,.5,4.29-.01,.21,0,.4,0,.59,.01,.4,.03,.85-.09,1.33l-.99,4.21Z"/><path class="cls-1" d="M455.56,216.88l-1.07-3.23c-.64-1.94-1.93-3.35-3.3-4.84-.38-.41-.76-.82-1.12-1.25-2.67-3.11-1.82-6.78,.21-9.04,2.29-2.55,6.13-1.78,8.73,.3,2.62,2.09,2.73,5.18,.32,8.48-.43,.59-.96,1.13-1.47,1.65-1.26,1.28-2.45,2.49-2.39,4.52l.09,3.4Zm-1.59-18.97c-1.07,0-2.12,.35-2.95,1.28-1.61,1.79-2.63,4.89-.2,7.72,.36,.41,.73,.82,1.1,1.22,1,1.09,2.03,2.21,2.79,3.57,.46-1.45,1.49-2.49,2.43-3.44,.51-.52,.99-1.01,1.38-1.54,1.47-2.02,2.65-4.89-.14-7.11-1.09-.87-2.78-1.69-4.41-1.69Z"/><path class="cls-1" d="M431.71,219.54l-.33-.74c-.43-.97-1.15-1.83-1.85-2.66-1.64-1.95-3.34-3.97-.88-7.05,.71-.89,1.83-1.44,3.05-1.5,1.2-.05,2.3,.36,3.04,1.13,3.37,3.52,.99,6.2-1.32,8.8-.4,.46-.82,.92-1.21,1.39l-.52,.63Zm.2-10.96c-.05,0-.1,0-.16,0-.94,.04-1.78,.45-2.32,1.12-1.95,2.44-.77,3.84,.86,5.78,.58,.69,1.18,1.4,1.65,2.21,.25-.29,.5-.57,.74-.84,2.28-2.56,4.08-4.59,1.35-7.44-.5-.52-1.28-.83-2.12-.83Z"/><path class="cls-1" d="M611.31,330.68h-9.37s.07-.57,.07-.57c.23-1.75-.8-2.9-1.99-4.22-.71-.78-1.44-1.59-1.98-2.61l-.36-.67,.76-.07c2.36-.2,4.19,.91,5.82,1.89,1.7,1.03,3.18,1.92,5.05,1.48l.68-.16-.07,.69c-.12,1.23,.17,2.36,.89,3.46l.51,.77Zm-8.27-1h6.48c-.42-.85-.63-1.75-.64-2.67-1.97,.22-3.59-.76-5.16-1.71-1.34-.81-2.72-1.65-4.37-1.76,.42,.61,.91,1.15,1.39,1.69,1.13,1.26,2.3,2.56,2.28,4.45Z"/><path class="cls-1" d="M468.09,227.16l-.53-.77c-.36-.52-.78-1.03-1.2-1.52-1.64-1.96-3.49-4.18-.76-7.14,.65-.71,1.58-1.11,2.54-1.08,.99,.02,1.93,.49,2.58,1.27,2.35,2.82,.73,4.61-.7,6.18-.63,.69-1.27,1.41-1.58,2.19l-.34,.87Zm-.04-9.52c-.66,0-1.27,.27-1.72,.76-2.13,2.32-.84,3.87,.79,5.82,.25,.3,.51,.61,.76,.93,.39-.63,.89-1.19,1.39-1.73,1.43-1.58,2.46-2.72,.67-4.87-.47-.56-1.13-.89-1.83-.91h-.06Z"/><path class="cls-1" d="M154.23,287.33l-3.11-18.2,2.68-2.94,.16,1.04c.21,1.4,.5,2.82,.78,4.2,.63,3.15,1.29,6.4,1.15,9.74v.12s-.07,.11-.07,.11c-.35,.6-.32,1.32-.27,2.08,.05,.94,.11,2-.62,2.94l-.7,.91Zm-2.04-17.89l2.34,13.69c-.03-.69,0-1.43,.37-2.12,.11-3.18-.53-6.33-1.14-9.39-.21-1.05-.43-2.14-.62-3.22l-.95,1.04Z"/><path class="cls-1" d="M187.34,272.81l-.08-.41c-.69-3.44-.88-6.33-.6-9.1l.06-.62,.6,.2c1.55,.53,1.58,1.68,1.61,2.52,.02,.58,.05,.97,.3,1.26,1.15-.7,1.99-1.79,2.88-2.95,.17-.22,.34-.44,.51-.66,.27-.34,.58-.51,.91-.52h.01c.31,0,.61,.15,.87,.45l1.08,.86-.19,.37c-.76,1.43-2.06,2.38-3.31,3.29-1.74,1.26-3.37,2.45-3.54,4.83l-.03,.46h-1.08Zm.25-8.64c-.14,1.95-.04,3.93,.32,6.2,.71-1.64,2.12-2.66,3.5-3.66,1.1-.79,2.14-1.55,2.81-2.59l-.52-.43c-.08-.1-.13-.13-.15-.14,0,0-.05,.04-.13,.14-.17,.21-.33,.43-.5,.64-.99,1.28-2.01,2.6-3.5,3.39l-.26,.14-.25-.17c-.91-.61-.94-1.52-.97-2.25-.02-.57-.03-.98-.34-1.28Z"/><path class="cls-1" d="M185.76,278.68l.03-.54c.02-.5-.23-1.15-.48-1.78-.39-.99-.83-2.11-.31-3.07,.39-.72,1.26-1.2,2.66-1.48h.3s.45-.02,.45-.02l.05,.45c.06,.51,.45,1.19,.84,1.85,.65,1.12,1.33,2.27,.79,3.25-.45,.82-1.65,1.24-3.78,1.32l-.54,.02Zm1.81-5.82c-.91,.21-1.48,.52-1.69,.92-.3,.54,.02,1.36,.36,2.22,.21,.54,.43,1.1,.51,1.64,1.82-.13,2.32-.53,2.46-.78,.26-.48-.29-1.43-.78-2.26-.34-.58-.68-1.17-.86-1.74Z"/><path class="cls-1" d="M519.15,68.95l-3.03-.07,.23-5.59c.48-1.61,.4-3.26,.32-5-.09-1.94-.18-3.95,.56-5.91l.5-1.32,.44,1.34c1.07,3.21,.94,6.5,.81,9.67-.08,2.08-.17,4.23,.09,6.31l.07,.58Zm-1.99-1.05l.87,.02c-.19-1.97-.11-3.96-.04-5.89,.1-2.46,.2-4.98-.27-7.43-.15,1.18-.1,2.39-.04,3.64,.08,1.73,.16,3.52-.35,5.27l-.17,4.39Z"/><path class="cls-1" d="M744.7,163.21l-.78-1.97c-.91-2.3-.86-4.67-.82-6.97,.02-1.33,.05-2.7-.12-4.02l-.11-.84,.78,.31c1.67,.66,2.28,1.74,1.97,3.52-.31,1.8-.44,3.67-.57,5.48-.05,.79-.11,1.58-.18,2.37l-.19,2.11Zm-.63-12.15c.07,1.08,.05,2.17,.03,3.23-.02,1.12-.04,2.21,.04,3.27,.11-1.49,.24-3.01,.5-4.49,.17-.99,.03-1.58-.58-2.02Z"/><path class="cls-1" d="M768.82,185.27l-.66-.22c-1.33-.45-1.39-1.59-1.43-2.42-.04-.76-.09-1.21-.56-1.45l-.22-.11-.04-.24c-.36-2.02,.31-3.88,2.05-5.71l.86-.9v11.06Zm-1.96-4.85c.79,.54,.83,1.43,.87,2.15,.02,.33,.04,.61,.09,.83v-6.56c-.82,1.17-1.13,2.33-.96,3.58Z"/><path class="cls-1" d="M516.14,66l.19-2.6c.08-1.15-.03-2.37-.15-3.54-.25-2.51-.51-5.11,1.1-7.58l1.31-2.02-.4,2.38c-.23,1.36-.15,2.74-.07,4.19,.12,2.25,.25,4.58-.84,6.83l-1.14,2.35Zm.93-10.21c-.16,1.28-.02,2.6,.11,3.97,0,.02,0,.04,0,.07,.05-.96,0-1.94-.06-2.95-.02-.36-.04-.73-.06-1.09Z"/><path class="cls-1" d="M306.26,108.23h-.02c-.44,0-.82-.16-1.1-.45-.31-.33-.47-.83-.44-1.39,.08-1.53,.2-3.07,.31-4.6l.22-3.05,.79,.95c1.01,1.22,1.04,2.48,1.06,3.6,.02,.95,.03,1.77,.58,2.54,.33,.46,.37,1.08,.11,1.57-.28,.53-.83,.83-1.52,.83Zm-.26-6.24c-.11,1.48-.22,2.97-.3,4.45-.02,.28,.05,.52,.17,.65,.09,.09,.21,.16,.39,.14,.31,0,.53-.1,.63-.3,.09-.17,.07-.37-.04-.53-.72-1.02-.74-2.07-.76-3.09,0-.45-.02-.89-.09-1.32Z"/><path class="cls-1" d="M781.2,199.34c-.32,0-.64-.09-.93-.18-.13-.04-.25-.07-.38-.1-.8-.02-1.59-.09-2.35-.18-1.43-.17-2.78-.33-4.13,.11l-.85,.28,.21-.87c.36-1.52,1.58-1.59,2.48-1.64,.77-.04,1.22-.09,1.45-.56l.18-.37,5.53,1.43v.38c0,.72-.16,1.2-.51,1.46-.21,.16-.45,.22-.7,.22Zm-1.21-1.28h.05c.16,.04,.33,.09,.5,.14,.21,.06,.65,.19,.74,.12,.02-.02,.07-.1,.1-.28l-4.02-1.04c-.39,.49-.95,.65-1.49,.71,.6,.03,1.19,.1,1.77,.17,.79,.09,1.52,.19,2.28,.17h.05Z"/><path class="cls-1" d="M192.44,263.88l.08-.58c.1-.72-.08-1.48-.27-2.29-.35-1.49-.75-3.18,.43-5.16l.44-.72,.43,.73c1.15,1.98,1.08,3.83,1.01,5.46-.03,.7-.06,1.35,0,1.99l.06,.54-2.19,.02Zm.68-6.62c-.43,1.25-.17,2.36,.11,3.52,.13,.53,.26,1.08,.31,1.63,0-.38,.02-.76,.03-1.13,.05-1.29,.11-2.62-.44-4.02Z"/><path class="cls-1" d="M225.95,227.2c-.61,0-1.41-.24-2.46-.73l-.61-.29,3.99-4.44,.15,1.06c.04,.3,.11,.62,.17,.94,.24,1.25,.49,2.54-.3,3.16-.25,.19-.56,.29-.95,.29Zm-1.41-1.36c1.28,.51,1.65,.35,1.74,.28,.31-.24,.1-1.33-.06-2.15l-1.68,1.86Z"/><path class="cls-1" d="M278.99,263.04l-6.55-.43,.86-.79c.45-.42,1.04-.65,1.62-.87,1.3-.51,1.96-.85,1.58-2.35l-.05-.2,.1-.18c.23-.4,.51-.6,.84-.6h0c.33,0,.61,.21,.83,.61,.17,.26,.21,.59,.24,.88,.05,.51,.08,.55,.39,.57l.21,.02,.14,.16c.83,1,.81,2.06-.04,2.99l-.16,.18Zm-3.52-1.23l3.09,.2c.33-.45,.32-.87-.02-1.35-.61-.12-.86-.49-.97-.86-.21,1.19-1.23,1.66-2.1,2.01Z"/><path class="cls-1" d="M281.58,266.47l-1-.73c-.21-.15-.56-.25-.91-.35-.66-.19-1.42-.42-1.7-1.11-.2-.5-.1-1.1,.31-1.89l.03-2.35,.08-.12c.39-.6,.81-.86,1.23-.78,.4,.07,.68,.42,.81,1.03,.27,1.19,.47,2.41,.67,3.59,.08,.5,.17,1,.26,1.5l.22,1.22Zm-2.27-6.12l-.03,2.31-.06,.11c-.4,.71-.37,1.01-.32,1.13,.1,.25,.59,.39,1.06,.53,.09,.03,.18,.05,.27,.08-.03-.2-.07-.39-.1-.59-.2-1.17-.4-2.37-.66-3.54-.01-.07-.03-.12-.04-.16-.03,.03-.07,.08-.1,.13Z"/><path class="cls-1" d="M781.13,292.46c-1.12,0-2.52-.32-3.04-1.96-.25-.77-.06-1.32,.13-1.65,.37-.61,1.13-1.03,2.2-1.21l1.01-.17-.48,.9c-.32,.6-.42,1.1-.29,1.5,.21,.65,1,1.13,1.82,1.54l1.43,.72-1.59,.22c-.28,.04-.71,.1-1.19,.1Zm-1.46-3.56c-.28,.13-.48,.29-.59,.47-.13,.22-.14,.49-.04,.82,.24,.74,.71,1.13,1.56,1.24-.41-.34-.74-.75-.9-1.25-.13-.4-.14-.83-.03-1.28Z"/><path class="cls-1" d="M773.29,186.58l-1.51-1.84,.13-.28c.72-1.58,2.07-2.32,3.5-3.1l.91-.5,.12,.69c.36,2.1-.92,3.13-1.95,3.96-.28,.22-.56,.45-.8,.69l-.39,.38Zm-.34-1.98l.43,.52c.15-.13,.31-.26,.47-.39,.82-.66,1.54-1.25,1.63-2.28-1.07,.59-1.99,1.17-2.53,2.15Z"/><path class="cls-1" d="M227.51,215.92l-.35-.5c-.93-1.32-.96-2.71-.08-4.49l.26-.53,.48,.33c1.32,.92,1.24,2.07,1.18,3-.01,.15-.02,.31-.02,.46v.19s-1.46,1.53-1.46,1.53Zm.19-3.93c-.34,.9-.35,1.62-.04,2.31l.31-.33c0-.1,.01-.2,.02-.31,.04-.65,.08-1.19-.29-1.68Z"/><path class="cls-1" d="M285.17,266.91l-2.26-.33,1.21-10.76,.65,2.92c.74,3.3,.87,5.46,.49,7.69l-.08,.48Zm-1.16-1.18l.33,.05c.15-1.06,.16-2.13,.04-3.36l-.37,3.31Z"/><path class="cls-1" d="M261.53,250.55l.14-.96c.04-.3,0-.7-.03-1.08-.09-.94-.23-2.37,1.2-2.66,.59-.12,1.05-.03,1.37,.27,.55,.52,.44,1.41,.34,2.2-.02,.16-.04,.31-.05,.46l-.02,.28-2.93,1.51Zm1.78-3.75c-.07,0-.17,0-.28,.03-.44,.09-.52,.39-.4,1.59,.01,.14,.03,.29,.04,.43l.85-.44c0-.07,.02-.15,.03-.22,.05-.41,.15-1.17-.03-1.34-.03-.03-.1-.05-.21-.05Z"/><path class="cls-1" d="M201.19,260.8l.41-4.78,.58,.16c1.6,.45,1.83,1.66,2,2.54,.08,.44,.16,.85,.38,1.11l.62,.77-3.99,.19Zm1.29-3.4l-.2,2.34,1.09-.05c-.08-.25-.13-.52-.18-.78-.14-.71-.25-1.2-.71-1.51Z"/><path class="cls-1" d="M777.09,191.97l-.23-.14c-.17-.1-.42-.13-.68-.17-.58-.08-1.37-.19-1.73-1.13l-.14-.36,.32-.22c1.89-1.33,3.91-1.28,6.37-.79l.76,.15-.45,.63c-.8,1.11-1.86,1.35-2.79,1.56-.42,.1-.83,.19-1.17,.35l-.24,.12Zm-1.48-1.48c.15,.09,.36,.13,.7,.18,.26,.04,.54,.07,.81,.18,.38-.15,.77-.24,1.16-.33,.56-.12,1.1-.25,1.56-.56-1.63-.25-2.98-.2-4.23,.52Z"/><path class="cls-1" d="M333.65,233.41l-3.21-.16,.15-.59c.05-.22,.03-.55,0-.88-.04-.61-.09-1.3,.34-1.77,.26-.27,.62-.41,1.12-.4,.47,0,.84,.15,1.11,.43,.5,.53,.47,1.36,.45,2.09,0,.25-.02,.49,0,.71l.04,.56Zm-2.03-1.1l.98,.05c0-.08,0-.17,0-.25,.02-.51,.04-1.14-.17-1.37-.03-.03-.11-.12-.4-.12-.19,0-.32,.03-.38,.09-.13,.14-.1,.62-.07,1.01,.01,.2,.03,.4,.03,.6Z"/><path class="cls-1" d="M197.75,264.68c-.47,0-.92-.28-1.31-.54-.25-.16-.51-.33-.7-.37l-.45-.1,.06-.45c.19-1.51,.5-2.2,1.07-2.37,.65-.2,1.16,.4,1.66,.97,.2,.23,.54,.62,.68,.66l.73-.05-.25,.7c-.26,.83-.6,1.3-1.08,1.48-.13,.05-.27,.07-.4,.07Zm-1.36-1.73c.2,.1,.4,.22,.59,.35,.28,.18,.67,.43,.83,.37,.03-.01,.15-.07,.3-.4-.28-.19-.53-.49-.8-.8-.17-.2-.45-.52-.61-.63-.07,.1-.19,.39-.31,1.11Z"/><path class="cls-1" d="M219.1,229.59l.23-.8c.52-1.83,2.01-2.39,3.32-2.89,.28-.1,.55-.21,.82-.32l.83-.36-.14,.9c-.39,2.48-2.34,2.89-4.07,3.26l-.99,.21Zm3.77-2.7c-.89,.33-1.68,.65-2.17,1.33,.94-.23,1.74-.55,2.17-1.33Z"/><path class="cls-1" d="M760.19,185.89l-.71-.99c-.81-1.11-1.74-2.37-1.48-4.18l.07-.49,.49,.06c2.12,.26,2.79,1.7,3.19,3.22l.06,.23-1.61,2.14Zm-1.23-4.5c.03,1.09,.61,1.94,1.25,2.81l.5-.67c-.32-1.12-.76-1.86-1.75-2.15Z"/><path class="cls-1" d="M62.9,277.35l-.56-.69c-1.1-1.34-1.09-2.96-.98-4.07,.04-.4,.15-1.61,.97-1.82,.56-.14,1.15,.25,1.81,1.2l.27,.39-.38,.29c-.67,.51-.68,1.13-.65,2.11,.02,.57,.04,1.17-.17,1.75l-.29,.84Zm-.35-5.6s-.14,.24-.2,.94c-.05,.57-.05,1.07,0,1.52,.01-.67,.12-1.4,.69-2.01-.28-.34-.45-.42-.49-.44Z"/><path class="cls-1" d="M307.87,116.79l-.87-.69c-1.41-1.12-1.2-2.58-1.02-3.86l.16-1.19,.68,.48c1.3,.91,1.17,2.17,1.06,3.18-.04,.35-.07,.68-.06,.98l.06,1.11Zm-1-3.59c-.03,.36-.03,.69,.04,1.01,.03-.39,.03-.72-.04-1.01Z"/><path class="cls-1" d="M277.39,258.98h-.77s-.11-.36-.11-.36c-.06-.21-.17-.41-.27-.61-.32-.63-.75-1.49-.06-2.44,.21-.29,.65-.35,.89-.36,.35-.01,.61,.07,.76,.25,.81,.93,.63,2.01,.48,2.97l-.09,.55h-.83Zm-.06-1h.03c.1-.68,.14-1.27-.22-1.77h0c-.06,0-.15,0-.2,.02-.25,.4-.1,.74,.19,1.32,.07,.14,.14,.28,.2,.42Zm-.35-1.82s0,0,0,0c0,0,0,0,0,0Zm.08-.05s0,0,0,0c0,0,0,0,0,0Z"/><path class="cls-1" d="M773.84,193.48l-.15-3.19,.14-.15c.34-.37,.79-.46,1.24-.26,.16,.04,.33,.07,.49,.1,.69,.12,1.54,.26,2,1.21l.22,.46-3.95,1.84Zm.88-2.67l.05,1.13,1.55-.72c-.22-.14-.52-.2-.92-.26-.21-.04-.42-.07-.63-.13l-.06-.02Z"/><path class="cls-1" d="M66.2,279.23l-.72-.73c-.85-.85-2.42-2.43-1.01-4.6l.37-.56,.43,.51c.96,1.13,1.29,2.51,1.06,4.36l-.13,1.02Zm-1.24-4.06c-.17,.61,0,1.14,.44,1.73-.03-.66-.17-1.23-.44-1.73Z"/><path class="cls-1" d="M62.45,284.51l-.11-7.73,.9,1.05c1.5,1.76,1.53,3.67,.08,5.55l-.88,1.13Zm.94-4.08v.29c0-.1,0-.19,0-.29Z"/><path class="cls-1" d="M1137.62,96.67c-.66,0-1.36-.11-2.12-.35l-.86-.28,12.9-10.86c-.47-.75-1.16-.75-2.25-.69-.81,.04-1.71,.1-2.46-.42-2.35,.95-4.82,.77-7.17,.49-4.81-.56-9.3,.74-13.74,3.98-.3,.85-.97,1.5-1.82,1.78-.67,.21-1.32,.14-1.74-.21-.43-.35-.64-.73-.64-1.13,0-.68,.62-1.16,1.16-1.58,.18-.14,.35-.27,.49-.41,3.35-4.02,1.25-6.61-1.19-9.6-.64-.79-1.31-1.61-1.86-2.46-.74-.52-1.61-1.17-1.7-2.02-.04-.42,.1-.81,.43-1.17,.45-.49,1.17-.77,1.95-.74,.81,.03,1.54,.4,2.07,1.04,.84,.47,1.63,1.04,2.38,1.6,1.61,1.19,3.14,2.32,5.18,2.43l.15,.03,4.23,1.64c1.29-.17,2.57-.33,3.86-.49,3.25-.4,6.61-.82,9.86-1.45,1-.19,2.08-.4,2.35-1.01,.21-.48-.04-1.3-.71-2.38l-.47-.75c-1.85-2.93-3.76-5.97-4.27-9.6-1.3-1.04-2-2.29-2.2-3.91l-.05-.44,.42-.11c2.38-.61,4.24-.02,5.68,1.81,2.38,2.87,5.12,5.6,9.85,4.5,1.46-.34,2.55-.12,2.99,.61,.46,.75,.15,1.79-.94,3.11-.41,.49-.26,.89-.14,1.08,.2,.32,.58,.49,.93,.39,2.17-.54,4.2-.02,6.17,.49,2.14,.55,4.16,1.07,6.37,.33,3.85-1.3,7.6,.77,10.77,2.97l.63,.44-.66,.4c-3.08,1.87-6.5,2.75-9.8,3.59-4.47,1.15-8.71,2.23-12.04,5.62,.19,.13,.47,.27,.71,.38,.64,.31,1.37,.66,1.58,1.37,.12,.41,.04,.87-.25,1.36-1.09,1.82-3.27,2.23-5.44,1.01-1.47-.83-2.79-.65-4.13,.54,.06,.33,.41,.54,1.06,.87,.58,.29,1.24,.62,1.44,1.28,.13,.42,.04,.89-.26,1.42-1.19,2.09-3.71,2.02-5.5,1.33-2.24-.86-3.71-.13-5.66,1.52-1.57,1.34-3.28,2.6-5.53,2.6Zm-.9-1.08c2.38,.4,4.1-.85,5.78-2.28,1.75-1.49,3.7-2.84,6.66-1.7,1.42,.55,3.39,.64,4.27-.89,.11-.19,.23-.46,.17-.64-.07-.25-.51-.47-.93-.68-.72-.36-1.71-.86-1.62-2.02l.02-.19,.14-.13c1.72-1.63,3.56-1.91,5.47-.83,1.34,.75,3.12,.98,4.09-.65,.14-.24,.19-.43,.15-.56-.08-.28-.6-.53-1.06-.75-.59-.29-1.21-.58-1.4-1.16l-.1-.28,.2-.22c3.58-3.84,8.28-5.04,12.82-6.21,2.99-.77,6.06-1.55,8.85-3.09-3.85-2.55-6.64-3.27-9.22-2.4-2.48,.83-4.75,.25-6.94-.31-1.93-.5-3.76-.97-5.68-.49-.77,.19-1.58-.14-2.02-.83-.44-.7-.36-1.56,.21-2.25,.87-1.06,1.02-1.7,.86-1.95-.16-.25-.82-.41-1.92-.16-5.28,1.23-8.37-1.86-10.85-4.85-1.11-1.4-2.46-1.91-4.21-1.57,.24,1.19,.85,2.12,1.91,2.91l.17,.13,.03,.21c.43,3.5,2.32,6.5,4.15,9.39l.47,.75c.88,1.41,1.14,2.49,.78,3.31-.48,1.09-1.83,1.36-3.03,1.59-3.33,.65-6.71,1.06-9.97,1.47-1.33,.16-2.65,.33-3.98,.51l-.13,.02-4.4-1.71c-2.31-.16-4-1.41-5.64-2.62-.76-.56-1.54-1.14-2.36-1.58l-.16-.13c-.35-.46-.84-.72-1.39-.74-.45-.03-.92,.14-1.17,.42-.17,.19-.18,.31-.17,.39,.05,.44,.83,.99,1.36,1.36l.15,.15c.52,.83,1.19,1.65,1.84,2.44,2.37,2.91,5.06,6.21,1.15,10.9-.19,.2-.4,.36-.61,.52-.31,.24-.77,.6-.77,.8,0,.06,.07,.19,.27,.35,.13,.1,.43,.15,.81,.03,.59-.19,1.05-.66,1.22-1.27l.05-.17,.14-.1c4.7-3.47,9.47-4.86,14.58-4.26,2.3,.27,4.72,.45,6.92-.53l.3-.14,.24,.22c.48,.45,1.18,.41,1.99,.36,1.17-.06,2.63-.15,3.39,1.6l-.38,.17,.02,.04,.29,.34-11.82,9.96Z"/><path class="cls-1" d="M782.17,199.99c-.87,0-1.74-.54-2.4-.96l-.88-.55,3.01-1.33c.83,0,1.65,.44,1.93,1.04,.17,.38,.11,.78-.16,1.08-.47,.52-.99,.71-1.5,.71Zm-1.15-1.37c.81,.44,1.39,.56,1.91,0-.02-.09-.41-.42-.91-.45l-1,.46Z"/><path class="cls-1" d="M517.67,280.96c-3.5,0-6.98-1.6-10.34-4.81-1.57-1.5-2.93-2.19-4.16-2.08-1.05,.08-2.02,.72-2.98,1.95-1.54,1.99-3.35,1.87-5.27,1.75-.75-.05-1.54-.1-2.36-.04l-.98,.08,.51-.84c4.47-7.3,10.17-11.53,17.96-13.29,11.56-2.62,21.52,.32,29.61,8.71l.26,.27c.89,.9,1.99,2.03,1.95,3.19-.02,.48-.23,.91-.63,1.26-.74,.66-1.99,1.03-3.19,.95-1.16-.08-2.17-.57-2.87-1.38-2.73-3.2-4.82-2.42-7.95,.25-3.15,2.69-6.38,4.03-9.58,4.03Zm-14.27-7.9c1.44,0,2.96,.78,4.62,2.37,6.08,5.81,12.33,6.06,18.57,.74,2.78-2.37,5.79-4.33,9.36-.14,.66,.78,1.55,.99,2.18,1.04,.93,.07,1.91-.21,2.45-.7,.25-.22,.29-.42,.29-.55,.03-.73-.99-1.77-1.66-2.45l-.27-.28c-7.94-8.24-17.32-11-28.67-8.43-7.21,1.63-12.58,5.47-16.82,12.04,.53,0,1.04,.04,1.54,.07,1.85,.12,3.19,.21,4.41-1.36,1.12-1.45,2.36-2.24,3.69-2.34,.1,0,.2-.01,.3-.01Z"/><path class="cls-1" d="M523.39,233.54c-.69,0-1.49-.09-2.42-.27l-1.59-.14c-1.09-.1-2.17-.2-3.25-.3-3.8-.38-5.71-.57-6.67-1.74-.96-1.18-.76-3.07-.35-6.84,.17-1.64,.46-3.29,.73-4.88,.16-.95,.33-1.91,.47-2.86,.21-1.42,.87-2.44,2.01-3.13,2.34-1.41,5.31-1.5,7.95-.25,2.54,1.21,4.29,3.46,4.67,6.03,.13,.9,.22,1.83,.3,2.72,.17,1.81,.34,3.69,.92,5.36,.91,2.62,.92,4.31,.03,5.33-.57,.66-1.48,.98-2.79,.98Zm-6.95-20.29c-1.28,0-2.53,.33-3.62,.98-.88,.53-1.37,1.3-1.54,2.42-.14,.96-.31,1.92-.47,2.88-.27,1.58-.55,3.21-.72,4.81-.36,3.39-.56,5.25,.14,6.11,.69,.85,2.57,1.04,5.99,1.38,1.08,.11,2.16,.2,3.25,.3l1.67,.15c2.24,.44,3.69,.31,4.28-.38,.61-.7,.53-2.16-.22-4.35-.62-1.78-.8-3.72-.97-5.59-.08-.88-.17-1.79-.29-2.67-.33-2.24-1.87-4.21-4.11-5.27-1.1-.52-2.26-.78-3.39-.78Z"/><path class="cls-1" d="M611.23,320.9h-.03c-1.93-.01-3.32-.72-3.63-1.85-.17-.63-.11-1.85,2-3.27-.91-.9-1.55-1.69-1.92-2.37l-.11-.08,.09,.04c-.39-.73-.48-1.35-.28-1.88,.34-.88,1.43-1.34,3.34-1.41,1.86-.07,3.48,.51,4.55,1.61,.86,.88,1.29,2.05,1.22,3.28-.17,2.86-1.88,5.93-5.22,5.93Zm-.78-4.5c-1.38,.85-2.09,1.74-1.92,2.39s1.25,1.1,2.67,1.11h.02c3.09,0,4.11-3.13,4.22-4.99,.06-.95-.28-1.84-.94-2.52-.87-.9-2.22-1.37-3.8-1.31-1.89,.06-2.34,.5-2.44,.76-.09,.24-.1,.88,1.14,2.32l2.32,1.03c.82,.37,1.47,.65,1.28,1.21-.03,.07-.06,.14-.1,.19-.15,.31-.33,.32-1.67,0-.23-.05-.5-.12-.8-.2Z"/><path class="cls-1" d="M618.93,313.02c-.88,0-1.71-.87-2.28-1.63-.32-.43-.44-.96-.56-1.47-.23-.99-.38-1.33-1.02-1.31-.19,0-.4,.02-.61,.03-1.36,.07-2.9,.15-3.54-.7-.32-.42-.37-.99-.14-1.68,.59-1.77,3.47-4.54,6.4-3.72,.39,.11,.85,.15,1.34,.2,1.57,.16,3.53,.35,4.17,2.79l.06,.24-.15,.2c-.95,1.23-1.32,2.58-1.71,4.02-.16,.58-.32,1.16-.51,1.72-.27,.78-.69,1.21-1.26,1.3-.07,0-.13,.01-.2,.01Zm-3.8-5.41c1.44,0,1.72,1.2,1.93,2.08,.1,.42,.2,.85,.39,1.11,.67,.9,1.24,1.27,1.52,1.22,.16-.02,.33-.26,.47-.64,.19-.54,.34-1.1,.49-1.66,.38-1.39,.77-2.83,1.73-4.16-.52-1.55-1.78-1.68-3.23-1.82-.51-.05-1.04-.1-1.51-.24-2.47-.69-4.79,1.87-5.19,3.07-.08,.25-.15,.58-.02,.76,.33,.43,1.75,.36,2.7,.31,.21-.01,.42-.02,.62-.03,.03,0,.06,0,.09,0Z"/><path class="cls-1" d="M667.16,283.37l-.46-1.69c-.19-.71-.84-.91-1.88-1.16-1.21-.3-2.87-.71-2.69-3,.13-1.61,.64-2.81,1.53-3.56,.75-.64,1.74-.91,2.93-.81,1.69,.14,2.94,.69,3.71,1.61,.68,.82,.96,1.91,.84,3.25,.2,.73,.17,1.32-.09,1.78-.4,.7-1.23,.91-1.95,1.1-.81,.21-1.31,.36-1.44,.8l-.5,1.68Zm-1.03-9.24c-.74,0-1.35,.2-1.82,.59-.66,.56-1.07,1.56-1.18,2.88-.11,1.38,.59,1.62,1.93,1.95,.75,.18,1.63,.4,2.17,1.04,.45-.38,1.08-.54,1.61-.67,.59-.15,1.14-.29,1.33-.62,.13-.23,.12-.6-.02-1.1l-.03-.09v-.1c.12-1.11-.08-1.99-.6-2.61-.59-.71-1.6-1.13-3.02-1.25-.13-.01-.26-.02-.39-.02Z"/><path class="cls-1" d="M626.07,251.27c-.12,0-.24,0-.36,0-1.1-.04-1.92-.19-2.37-.78-.47-.61-.35-1.51-.17-2.31,.14-.64,.2-1.35,.25-2.1,.17-2.34,.39-5.26,4.2-5.45,.77-.04,1.33,.13,1.7,.52,.6,.63,.51,1.6,.42,2.54-.06,.58-.11,1.18,.01,1.59l.04,.13-.03,.13c-.11,.5-.11,1.08-.11,1.68,0,1.18,0,2.4-.86,3.22-.58,.56-1.47,.83-2.71,.83Zm1.75-9.64s-.1,0-.16,0c-2.78,.14-3.05,1.81-3.25,4.52-.06,.75-.11,1.53-.27,2.24-.17,.78-.18,1.26,0,1.48,.18,.23,.68,.35,1.62,.39,1.13,.05,1.91-.14,2.34-.55,.55-.53,.55-1.49,.55-2.5,0-.59,0-1.21,.11-1.78-.14-.57-.07-1.21-.01-1.84,.07-.71,.14-1.45-.14-1.75-.14-.15-.4-.22-.77-.22Z"/><path class="cls-1" d="M613.5,252.19h-.03c-.58,0-1.29-.07-1.68-.59-.4-.53-.26-1.28-.12-1.79,.19-.67,.28-1.42,.37-2.21,.25-2.11,.54-4.5,2.95-5.23,.52-.16,.94-.11,1.27,.13,.63,.46,.64,1.43,.64,2.46,0,.58,0,1.17,.13,1.54l.06,.17-.07,.17c-.19,.48-.21,1.09-.24,1.73-.06,1.53-.15,3.62-3.3,3.62Zm2.05-8.91c-.07,0-.16,.02-.27,.05-1.79,.54-2,2.32-2.25,4.39-.09,.8-.19,1.62-.4,2.36-.18,.65-.09,.86-.05,.92,.06,.07,.24,.19,.89,.2h.03c2.19,0,2.24-1.06,2.3-2.66,.03-.63,.05-1.29,.24-1.88-.13-.5-.13-1.1-.14-1.68,0-.6-.01-1.5-.24-1.66-.03-.02-.07-.03-.12-.03Z"/><path class="cls-1" d="M609.89,326.84c-.5,0-.83-.35-1.05-.58-.08-.09-.17-.18-.27-.26-.43-.35-.83-.73-1.23-1.11-.98-.94-1.9-1.82-3.22-2.17-.68-.18-1.2-.6-1.4-1.12-.12-.32-.19-.83,.21-1.44,.27-.43,.73-.65,1.26-.9,.23-.11,.48-.23,.74-.38l.32-.19,.27,.25c.53,.5,1.07,.99,1.6,1.48,1.41,1.31,2.75,2.54,4.05,3.85,.32,.32,.46,.71,.4,1.12-.07,.48-.42,.93-.97,1.23-.27,.15-.51,.21-.72,.21Zm-4.78-6.92c-.17,.09-.33,.16-.48,.24-.39,.19-.73,.35-.85,.54-.2,.31-.14,.48-.11,.54,.08,.21,.37,.42,.73,.51,1.56,.42,2.62,1.43,3.65,2.41,.38,.36,.76,.73,1.17,1.06,.14,.11,.26,.24,.37,.36,.29,.31,.3,.32,.55,.18,.31-.17,.44-.37,.46-.5,0-.03,.02-.13-.12-.27-1.29-1.3-2.62-2.53-4.02-3.83-.44-.41-.89-.82-1.34-1.24Z"/><path class="cls-1" d="M656.43,278.65c-.73,0-1.26-.18-1.62-.55-.56-.58-.51-1.43-.47-2.18,0-.16,.02-.32,.02-.47,0-.15,0-.3-.01-.46-.03-.62-.06-1.39,.45-1.93,.34-.36,.85-.55,1.55-.57h.03s.03,0,.03,0c2.48,.24,2.36,2.54,2.32,3.3v.21c-.06,1.03-.13,2.6-2.16,2.65-.04,0-.08,0-.13,0Zm-.09-5.16c-.4,.01-.67,.1-.81,.25-.22,.24-.2,.73-.18,1.21,0,.18,.01,.35,.01,.52s-.01,.34-.02,.51c-.03,.57-.07,1.16,.19,1.42,.17,.18,.51,.26,1,.25,1.01-.03,1.12-.49,1.18-1.7v-.22c.09-1.5-.3-2.13-1.37-2.24Z"/><path class="cls-1" d="M755.71,193.78s-.06,0-.09,0c-1.23-.05-2.02-.89-2.2-2.36-.07-.57,.13-.95,.31-1.17,.3-.35,.79-.56,1.35-.58,1.45-.02,2.39,.67,2.55,1.98v.11s-.02,.11-.02,.11c-.25,.76-.63,1.91-1.9,1.91Zm-.49-3.11s-.07,0-.11,0c-.27,0-.51,.1-.62,.23-.03,.03-.12,.14-.08,.39,.16,1.29,.79,1.47,1.25,1.49,.5,.04,.68-.28,.96-1.11-.08-.46-.34-1-1.4-1Z"/><path class="cls-1" d="M661.69,262.42c-.19,0-.35-.05-.49-.15-.39-.27-.4-.77-.42-1.17,0-.15-.01-.33-.04-.41-.2-.62-.45-1.36-.05-1.9,.24-.33,.66-.52,1.22-.49,.6,0,1.15,.31,1.73,.63,.26,.14,.53,.3,.83,.43l.68,.31-.55,.51c-.29,.27-.55,.55-.79,.81-.54,.59-1.06,1.15-1.73,1.36-.14,.04-.27,.07-.4,.07Zm.21-3.12c-.27,0-.37,.06-.39,.08-.1,.13,.1,.72,.18,.98,.08,.24,.09,.48,.1,.71,0,.09,0,.22,.02,.32,.46-.18,.85-.59,1.28-1.07,.11-.12,.22-.24,.34-.36-.09-.05-.18-.1-.26-.15-.48-.27-.9-.5-1.25-.51h-.02Z"/><path class="cls-1" d="M755.23,202.47l-.33-1.29c-.1-.4-.21-.78-.31-1.13-.58-2.06-1.01-3.55,.36-5.51l.42-.59,.41,.6c1.5,2.2,1.51,3.84,.06,6.73l-.6,1.19Zm.13-6.68c-.58,1.2-.32,2.21,.12,3.79,.63-1.65,.49-2.68-.12-3.79Z"/><path class="cls-1" d="M535.27,264.05l-.68-.33c-.32-.16-.65-.28-.95-.39-1-.37-2.02-.75-2.13-2.16-.02-.27,.14-.56,.48-.86,.23-.2,.67-.52,1.08-.44,1.61,.33,2.35,1.45,2.25,3.42l-.04,.76Zm-2.76-2.86c.09,.66,.53,.85,1.47,1.2,.1,.04,.2,.08,.31,.12-.12-1.17-.71-1.5-1.37-1.64-.12,.05-.32,.22-.41,.33Z"/><path class="cls-1" d="M688.24,262.65c-.41,0-.75-.11-.99-.33-.45-.41-.46-1.03-.47-1.53,0-.11,0-.21,0-.31-.07-1.12,.5-1.89,1.45-1.96,.5-.04,.89,.06,1.17,.31,.42,.37,.45,.93,.47,1.33,0,.11,0,.22,.02,.31v.06s0,.06,0,.06c-.06,.69-.16,1.96-1.45,2.06-.07,0-.13,0-.19,0Zm.19-3.15s-.08,0-.13,0c-.49,.04-.56,.51-.53,.9,0,.11,0,.23,.01,.36,0,.31,.01,.69,.14,.81,.07,.06,.22,.09,.43,.07,.27-.02,.44-.11,.53-1.09-.01-.11-.02-.23-.03-.35-.01-.23-.03-.54-.13-.63-.03-.02-.1-.07-.3-.07Z"/><path class="cls-1" d="M726.61,294.62l-1.52-2.42c-1.16-1.85-.35-3.34,.7-4.68l.38-.49,.4,.48c1.07,1.31,.39,2.35-.1,3.11-.29,.45-.54,.83-.46,1.2l.6,2.79Zm-.49-5.86c-.35,.52-.56,1-.59,1.48,.03-.05,.07-.11,.1-.16,.35-.53,.57-.91,.49-1.32Z"/><path class="cls-1" d="M705.17,265.7c-.17,0-.35-.03-.54-.09-.58-.19-.94-1.09-.93-1.63,0-.45,.08-1.08,.53-1.45,.2-.16,.55-.33,1.09-.23,.87,.16,1.28,.82,1.22,1.96h0c-.04,.54-.26,.97-.62,1.21-.22,.15-.48,.22-.76,.22Zm-.16-2.43c-.05,0-.11,0-.14,.03-.05,.04-.15,.18-.16,.7,0,.23,.17,.6,.27,.68,.14,.04,.29,.03,.39-.03,.1-.07,.17-.23,.18-.44,.04-.84-.22-.89-.41-.93-.04,0-.09-.01-.14-.01Z"/><path class="cls-1" d="M155.04,287.16c-.2,0-.49-.11-.65-.29-.12-.14-.19-.3-.25-.42l-.13-.27,.04-.17c.11-.51,.07-1.06,.04-1.65-.07-1.16-.15-2.47,.96-3.57l.81-.81,.04,1.14c.02,.49,.12,.98,.22,1.51,.27,1.36,.57,2.9-.66,4.34l-.15,.17h-.26s0,.01,0,.01Zm.06-4.45c-.09,.49-.06,1.02-.03,1.59,.03,.46,.06,.93,.02,1.4,.42-.89,.24-1.83,.03-2.88,0-.04-.01-.07-.02-.11Z"/><path class="cls-1" d="M615,318.81l-.8-.38c-.75-.35-1.53-.51-2.29-.67-1.54-.31-3.13-.64-3.71-2.7-.13-.44-.01-.9,.31-1.25,.38-.41,.99-.62,1.52-.52,2.18,.42,4.54,1.16,4.88,4.63l.09,.88Zm-5.24-4.54c-.18,0-.39,.09-.51,.22-.12,.12-.1,.23-.08,.3,.42,1.47,1.48,1.69,2.95,1.99,.52,.11,1.09,.22,1.67,.41-.52-2.08-2.09-2.56-3.93-2.91-.03,0-.06,0-.09,0Z"/><path class="cls-1" d="M581.55,139.54l-.04-1c234.4-8.24,517.26-54.25,520.09-54.71l.16,.99c-2.83,.46-285.76,46.48-520.22,54.73Z"/><rect class="cls-1" x="831.5" y="225.17" width="1" height="42.33"/><rect class="cls-1" x="890.61" y="225.17" width="1" height="42.33"/><g><path class="cls-1" d="M813.53,225.17h-8.58v-12.95h8.58v2.23h-5.87v3.12h5.54v2.08h-5.54v3.27h5.87v2.24Z"/><path class="cls-1" d="M820.43,212.22c3.88,0,6.17,2.32,6.17,6.42s-2.29,6.52-6.17,6.52h-4.94v-12.95h4.94Zm-2.23,10.7h1.91c2.42,0,3.73-1.47,3.73-4.27s-1.35-4.2-3.73-4.2h-1.91v8.47Z"/><path class="cls-1" d="M831.04,220.32c0,1.66,.98,2.75,2.72,2.75s2.71-1.09,2.71-2.75v-8.1h2.71v8.37c0,2.85-2.11,4.8-5.42,4.8s-5.43-1.95-5.43-4.8v-8.37h2.71v8.1Z"/><path class="cls-1" d="M848.55,222.03h-4.55l-.99,3.14h-2.78l4.49-12.95h3.19l4.5,12.95h-2.88l-.99-3.14Zm-3.97-2.03h3.38l-1.66-5.3h-.06l-1.66,5.3Z"/><path class="cls-1" d="M853.73,225.17v-12.95h5.63c2.43,0,3.96,1.25,3.96,3.23,0,1.42-1.06,2.6-2.43,2.81v.07c1.76,.13,3.05,1.42,3.05,3.13,0,2.28-1.71,3.71-4.48,3.71h-5.73Zm2.71-7.56h1.95c1.44,0,2.27-.64,2.27-1.73s-.73-1.63-1.99-1.63h-2.23v3.36Zm2.33,5.54c1.56,0,2.4-.66,2.4-1.9s-.87-1.86-2.47-1.86h-2.27v3.76h2.33Z"/><path class="cls-1" d="M868.19,225.17h-2.71v-12.95h5.3c2.98,0,4.68,1.57,4.68,4.13,0,1.66-.86,3.09-2.35,3.68l2.73,5.14h-3.07l-2.41-4.74h-2.17v4.74Zm0-6.7h2.33c1.36,0,2.16-.78,2.16-2.06s-.84-2.06-2.19-2.06h-2.31v4.13Z"/><path class="cls-1" d="M889.32,218.7c0,4.12-2.41,6.69-6.24,6.69s-6.24-2.58-6.24-6.69,2.4-6.7,6.24-6.7,6.24,2.58,6.24,6.7Zm-9.73,0c0,2.71,1.35,4.42,3.48,4.42s3.47-1.71,3.47-4.42-1.35-4.44-3.47-4.44-3.48,1.72-3.48,4.44Z"/><path class="cls-1" d="M898.01,222.03h-4.55l-.99,3.14h-2.78l4.49-12.95h3.19l4.5,12.95h-2.88l-.99-3.14Zm-3.97-2.03h3.38l-1.66-5.3h-.06l-1.66,5.3Z"/><path class="cls-1" d="M908.13,212.22c3.88,0,6.17,2.32,6.17,6.42s-2.29,6.52-6.17,6.52h-4.94v-12.95h4.94Zm-2.23,10.7h1.91c2.42,0,3.73-1.47,3.73-4.27s-1.35-4.2-3.73-4.2h-1.91v8.47Z"/></g><rect class="cls-1" x="810.63" y="212.89" width="6.41" height=".75"/><rect class="cls-1" x="824.54" y="221.63" width="6.41" height=".75"/><rect class="cls-1" x="837.62" y="219.01" width="6.41" height=".75"/><rect class="cls-1" x="848.51" y="220.57" width="6.41" height=".75"/><rect class="cls-1" x="861.78" y="222.33" width="6.41" height=".75"/><rect class="cls-1" x="871.39" y="219.01" width="6.41" height=".75"/><rect class="cls-1" x="885.62" y="222.75" width="6.41" height=".75"/><rect class="cls-1" x="898.67" y="221.68" width="6.41" height=".75"/></g><g><path class="cls-1" d="M1914.21,331.91c-.66,0-1.34-.11-1.97-.22-.59-.1-1.14-.19-1.62-.19h0c-229.02,.08-452.64,.08-700.28,.07-1.33,0-2.67-.06-3.96-.11-.62-.03-1.25-.05-1.87-.07h-.24s-.14-.2-.14-.2c-1.53-2.05-.85-3.8,.08-5.36-.37,.2-.75,.42-1.13,.66-1.6,.96-3.38,2.03-5.48,1.22,.14,.61,.12,1.17-.06,1.68-.3,.82-1.01,1.48-2.13,1.97l-.17,.04c-.37,.02-.74,.05-1.1,.07-.79,.06-1.6,.11-2.41,.11-107.84,0-215.68,.01-323.51,0h-33.1c-.53,0-1.05-.01-1.57,0-1.71,.02-2.81-.39-3.24-1.26-.45-.91-.08-2.17,1.03-3.56,5.84-7.23,11.83-14.54,17.62-21.61,4.55-5.55,9.1-11.11,13.62-16.68,1.1-1.36,2.28-2.09,3.51-2.17,1.1-.08,2.17,.37,3.19,1.32,1.56,1.45,2.91,2.08,4.13,1.96,1.83-.2,3.34-2.17,4.73-4.18,1-1.45,2-2.9,3-4.35,3.32-4.84,6.76-9.85,10.38-14.6,7.57-9.95,7.91-10,18.21-2.78,1.05,.74,2.08,1.62,3.07,2.48,2.26,1.95,4.61,3.94,6.64,3.83,2.38-.14,3.88-2.74,5.47-5.49,.69-1.2,1.41-2.44,2.21-3.46,4.79-6.11,5.59-6.21,12.21-1.58,15.04,10.52,27.48,19.14,39.15,27.1,.46,.32,.94,.68,1.41,1.04,1.62,1.23,3.29,2.51,4.84,2.16,1.09-.24,2.09-1.25,3.06-3.1,.72-1.37,2.35-2.02,4-1.63,1.38-.48,2.76-.97,2.89-1.39,.12-.37-.59-1.35-1.21-2.21l-.07-.14c-.35-1.09-.73-2.17-1.11-3.25-1.42-4.06-2.88-8.25-3.01-12.77-.04-1.33,0-2.7,.04-4.02,.16-5.17,.31-10.05-3.81-14.19-1.03-1.04-1.28-3.17-1.16-4.82,.21-2.99-1.09-4.45-3.91-6.42-7.43-5.19-9.68-13.49-11.86-21.52l-.06-.23c-.22-.81,.03-1.35,.28-1.66,.57-.7,1.69-.9,2.53-.85,1.05,.06,2.14,.05,3.2,.03,4.16-.06,8.45-.12,11.62,4.21,1.5,2.05,3.08,2.77,4.96,2.26,1.93-.52,2.01-1.93,2.1-3.55,.03-.45,.05-.92,.13-1.35l.22-1.24c1.18-6.76,2.4-13.76,8.4-18.79,.82-.69,1.4-2.75,1.05-3.73-.88-2.49-.74-5.01-.59-7.46,.14-2.35,.27-4.56-.45-6.74-.21-.46-.68-.47-1.69-.39-.77,.06-1.64,.13-2.26-.42-.42-.38-.65-.97-.68-1.8v-.3s.25-.15,.25-.15c.38-.22,.79-.4,1.19-.58,1.68-.74,2.6-1.26,1.97-3.18-.67-1.1-.6-2.2,.19-3.17l.07-.07c2.02-1.63,2.31-3.06,.96-4.79l-.06-.1c-.11-.24-.46-.99-.09-1.56,.35-.52,1.06-.56,1.7-.55h.19s.14,.14,.14,.14c1.26,1.22,2.49,1.18,4.11-.13,.51-.32,.51-.86,.46-1.71-.06-1.07-.15-2.69,2.07-2.95l.51-.06,.04,.51c.19,2.2,.74,3.54,1.62,3.98,.83,.41,2.07,.1,3.71-.92l.11-.07h.12c.82-.06,1.39,.13,1.7,.55,.29,.39,.32,.94,.09,1.64,.28,1.39,.78,2.31,1.51,2.8,.87,.58,2.17,.67,4.21,.25,3.34-.67,3.85-2.17,3.67-5.06-.31-5.05-.02-10.19,.9-15.69,1.52-9.07,.95-16.39-1.75-22.38-4.01-8.91-3.41-14.81,2.06-20.34,1.37-1.38,2.69-1.51,4.17-.39,7.28,5.46,8.94,12.11,4.94,19.76-1.12,2.18-.95,4.47-.77,6.89,.14,1.91,.29,3.89-.25,5.82-.29,4.68,0,9.45,.27,14.06,.36,6.14,.74,12.49-.21,18.78-.27,1.79,.58,3.95,2.12,5.37,3.6,3.32,7.08,7.94,2.09,14.21-.68,.85-.33,2.02,.04,3.25,.14,.47,.28,.96,.37,1.42l.02,.12c.31,1.73,.57,3.23-.26,5.15-2.81,6.54-1.48,13.54-.43,17.12,3.22,11.03,2.76,22.41,2.36,32.46-.48,11.99,1.57,23.67,3.56,34.97l.48,2.77c.23,1.36,.46,2.76,2,3.43,.67-1.87,1.23-3.51,1.22-5.69-.06-8.22-.13-17.53,9.55-22.36,1.11-.55,2.2-1.19,3.27-1.81,1.59-.93,3.23-1.89,4.97-2.59,15.22-6.17,31.83-10.14,50.78-12.14,.35-.04,.71-.09,1.08-.14,1.73-.24,3.52-.49,4.79,.55,.86,.7,1.33,1.87,1.45,3.58,.03,.52,.58,1,1,1.04,.2,.01,.3-.06,.36-.27,.56-1.99,1.35-3.17,2.42-3.61,1.47-.59,3.03,.32,4.54,1.21,.37,.22,.74,.43,1.1,.62,6.35,3.3,10.22,2.25,13.36-3.65,1.49-2.79,3.02-4.19,6.41-2.99,1.33,.47,2.34,.48,3.09,.05,.84-.49,1.41-1.61,1.73-3.4,.15-.84,.3-1.67,.46-2.51,.97-5.21,1.97-10.6,1.16-16.04-.25-1.68-.84-5.62,2.44-6.55,2.92-.83,3.5-2.85,4.17-5.19,.1-.33,.19-.67,.3-1,.28-.91,.52-1.86,.76-2.78,.48-1.89,.98-3.84,1.86-5.6,.24-.48,.48-1,.73-1.53,1.77-3.74,3.97-8.4,8.2-7.63,22.27,4.03,36.65,11.86,46.62,25.37l.13,.18c.89,1.2,1.81,2.44,1.94,4.19,.58,7.97,2.37,14.92,5.45,21.25l.08,.16c.95,1.95,2.03,4.15,1.77,6.16-.89,6.88,2,12.08,5.27,16.68,.78,1.1,1.68,2.23,2.43,2.23h.02c.56-.01,1.24-.65,2.08-1.95,4.56-7.05,9.47-14.57,14.48-21.83,2.34-3.39,3.27-6.88,3.11-11.66-.02-.46-.05-.96-.09-1.49-.19-2.44-.4-5.21,1.33-6.81,1.16-1.08,2.97-1.42,5.54-1.05,1.33,.2,1.69-.66,2.2-2.19l.16-.48c2.87-8.21,5.09-14.45,7.2-20.25,8.62-23.65,13.36-45.79,14.51-67.68,1.11-21.18,2.6-41.57,4.42-66.03l.06-.86c.68-9.04,1.38-18.39-.07-27.44-.69-4.31-.81-7.74,4.3-9.33,.91-.81,1.92-.81,2.88,0,.5,.49,1.17,.84,1.88,1.2,1.63,.84,3.66,1.88,2.93,4.94-1.71,7.23-1.13,14.65-.57,21.81,.12,1.54,.24,3.09,.34,4.63,.71,10.96,1.49,22.1,2.24,32.88,.75,10.69,1.52,21.75,2.23,32.62,.39,6.08,1.45,12.18,2.47,18.09,1.22,7.05,2.48,14.34,2.63,21.67,.02,.97,.63,2.29,1.19,2.57,6.85,3.41,5.84,9.17,4.35,14.29-.68,2.36,.1,4.47,.92,6.7,.17,.47,.35,.95,.51,1.42,1.3,3.85,2.67,7.75,3.99,11.53,1.71,4.86,3.47,9.88,5.1,14.86,1.13,3.45,2.41,5.2,5.89,4.62,2.85-.48,3.26,1.15,3.78,3.22l.08,.3c.52,2.06,.31,4.14,.1,6.16-.29,2.79-.55,5.42,1.04,7.85,2.52,3.85,5.08,7.68,7.63,11.51,2.78,4.17,5.66,8.48,8.45,12.75,.87,1.33,2.37,2.15,3.28,2.15h.01c.43,0,.55-.19,.58-.25,1.14-1.83,2.82-2.87,4.44-3.88,1.3-.8,2.64-1.64,3.68-2.87,.57-.68,1.12-1.42,1.71-2.21,2.36-3.18,5.03-6.78,9.95-7.08,1.44-.09,1.45-.67,1.46-1.83,0-.47,0-1,.14-1.51,.23-.85,.06-1.81-.12-2.84-.37-2.09-.79-4.46,2.43-6.05,9.94-4.89,20.31-5.05,32.63-.49l.3,.11c2.38,.87,4.09,1.5,3.43,5.53-.06,.38-.14,.8-.23,1.23-.41,2.09-.93,4.69,.3,6.34,.75,1.01,2.07,1.59,4.04,1.77,.55,.05,.82,.63,1.1,1.24,.14,.31,.29,.63,.45,.83,1.57,1.92,3.39,3.7,5.16,5.41,1.13,1.1,2.31,2.24,3.39,3.4,1.1,1.18,2.29,2.34,3.44,3.47,2.54,2.5,5.17,5.08,7.24,8.13,.86,1.27,2.13,1.44,3.05,1.36,.32-.03,.73-.11,.89-.35,.23-.35-.02-1.08-.2-1.62-.07-.21-.13-.41-.18-.58-.73-2.98-.48-5.95-.24-8.82,.11-1.25,.21-2.54,.24-3.81,.04-2.4-.53-4.97-1.09-7.45-.73-3.27-1.43-6.36-.7-8.92,1.48-5.21,.67-10.24-.11-15.1-.63-3.95-1.29-8.03-.74-12.21,.56-4.25,.15-8.55-.29-13.11-.32-3.38-.66-6.88-.55-10.32,.05-1.81-.34-3.71-.73-5.55-.48-2.29-.98-4.65-.63-6.91,.99-6.33-.14-12.49-1.24-18.44l-.04-.24c-.87-4.74,1.52-6.14,3.03-6.56,5.07-1.4,5.07-4.85,4.56-8.87-.11-.9-.34-1.83-.56-2.73-.38-1.57-.77-3.2-.62-4.8,.11-1.12-.16-2.32-.45-3.59-.72-3.18-1.53-6.78,4.3-9.07,11.82-4.64,23.27-3.73,36.82-.94,1.57,.32,2.54,.86,3.05,1.7,.75,1.22,.32,2.78-.14,4.44-.88,3.21-1.33,5.98-1.37,8.48v.38c-.1,6.01-.2,11.68,6.87,13.9,1.64,.51,2.36,1.51,2.2,3.04-.66,6.41-.37,13.09,.96,21.67,.87,5.65,1.03,11.43,1.18,17.03,.2,7.44,.41,15.14,2.3,22.67,1.27,5.07,1.22,10.85,1.17,16.45-.02,1.7-.03,3.39,0,5.02,.07,5.3,.79,10.62,1.49,15.77,.91,6.72,1.85,13.67,1.36,20.63,.09,.09,.3,.24,.46,.36,.08,.06,.16,.11,.24,.17,1.34-2.21,1.21-4.47,1.07-6.85l-.02-.3c-.06-1.05-.18-2.16-.29-3.24-.35-3.23-.71-6.57,.4-9.34,2.13-5.31,1.85-10.69,1.58-15.89-.06-1.23-.13-2.47-.16-3.7-.02-.8-.07-1.6-.11-2.39-.26-4.54-.53-9.25,3.81-12.92,.9-.84,1.98-.89,3.03-.14l.09,.08c1.69,1.97,3.6,4.21,3.41,7.23-.12,1.83-.35,3.68-.58,5.48-.33,2.61-.68,5.31-.64,7.94,.03,1.99,.23,4.1,.43,6.14,.33,3.34,.66,6.8,.2,9.77-.67,4.38-.34,8.81-.02,13.1,.37,4.95,.75,10.08-.42,15.13-.42,1.84-.33,3.19,.29,3.92,.47,.56,1.3,.81,2.46,.74,1.75-.11,3.04-.62,3.82-1.52,.71-.82,1.02-1.99,.9-3.47-.16-2.02-.17-4.08-.18-6.06,0-1.09-.01-2.17-.04-3.26-.28-10.58-.18-21.34-.08-31.75,.19-20.02,.38-40.72-2.15-61.04-1.79-14.4,.06-29.56,5.51-45.06,.08-.23,.12-.53,.15-.82,.07-.58,.15-1.19,.57-1.58,5.1-4.65,5.55-11.3,5.45-15.91-.16-7.07,1.18-13.53,4.23-20.35,2.34-5.23,4.57-10.83,3.93-16.83l-.02-.18,.1-.15c.34-.51,.32-1.12,.3-1.83-.03-.87-.06-1.85,.68-2.69l.17-.19,.25,.02c1.84,.16,2.84,1.6,2.68,3.86-.54,7.28,1.3,14.28,5.97,22.72,1.46,2.63,1.96,5.4,1.49,8.21-1.48,8.77,1.9,16.49,5.16,23.96,1.69,3.88,3.45,7.89,4.52,12.02,.27,1.04,.61,2.09,.94,3.1,.81,2.48,1.64,5.05,1.58,7.86-.17,7.61-.54,15.35-.91,22.83-.26,5.43-.53,11.05-.72,16.56-.8,23.22-.62,46.86-.45,69.72,.07,8.43,.13,17.15,.15,25.72,0,.37-.05,.76-.11,1.18-.11,.79-.23,1.69,.12,2.12,.18,.22,.51,.35,1,.37,.47,.02,.81-.07,1.05-.28,.56-.51,.62-1.69,.68-2.84l.02-.32c.45-8.36,1-16.85,1.52-25.06l.55-8.65,.08-.11c.29-.44,.65-.69,1.05-.75,.33-.05,.66,.04,1,.25l2.74-.86c.55-.4,.87-1.06,1.2-1.75,.5-1.05,1.08-2.23,2.59-2.62l.11-.03,.11,.02c.68,.13,1.37,.18,2.09,.23,.92,.07,1.87,.13,2.81,.39,1.19,.37,2.44,.11,2.77-.36,.15-.21,.08-.5-.2-.86-1.82-2.32-.75-3.54,.11-4.52,.34-.39,.67-.77,.81-1.19,.81-2.35,2.53-3.87,4.19-5.34,1.22-1.08,2.38-2.11,3.19-3.44l.06-.1,.1-.06c.5-.32,.94-.42,1.35-.33,.59,.14,.91,.67,1.17,1.09,.08,.14,.17,.28,.26,.4,.25,.18,.51,.36,.77,.54,1.92,1.33,3.9,2.7,4.53,4.94,.72,2.58,2.43,2.79,4.77,2.3,1.8-.38,2.14-2.11,2.11-4.59-.02-1.23-.22-2.41-.43-3.66-.27-1.57-.54-3.2-.43-4.92,.75-11.4,9.47-16.65,17.16-21.28l1.6-.96c5.83-3.55,9.88-6.62,8.97-13.92l-.06-.45,.44-.1c.57-.13,1.28-.23,1.67,.24,.33,.4,.2,.95,.07,1.31,.89,1.46,.65,3.02,.41,4.54-.25,1.58-.48,3.07,.63,4.35l.08,.13c.08,.18,.15,.37,.23,.55,.58,1.42,1.08,2.64,2.72,2.87l.29,.12,.12,.15c.54,.93,1.46,1.43,2.43,1.95,.71,.38,1.44,.78,2.05,1.36,7.43,6.24,14.55,13.41,12.59,26-.5,3.18,.94,8.76,5.56,10.78,1.05-.45,2.11-.36,3.14,.25,.35,.26,.68,.46,1.01,.67,1.08,.68,2.19,1.39,2.74,2.78,.22,.39,.35,.4,1.1,.02,.56-.28,1.5-.75,2.23,.15l1.1,.79c.94,.86,2.06,1.55,3.14,2.21,2.85,1.75,5.79,3.57,5.68,8.06,.13,.71,.02,1.55-.08,2.35-.21,1.66-.38,3.09,1.38,4.12l.24,.14v.28c.1,4.17-.49,8.33-1.05,12.34-.31,2.21-.63,4.5-.84,6.76-.03,.34-.11,.7-.19,1.04-.28,1.25-.4,2.05,.67,2.64,.77,.43,2.47,.15,4.42-.72,2.56-1.14,4.79-2.96,5.06-4.15,.41-1.73-.06-3.77-.47-5.58-.45-1.96-.83-3.65-.14-4.78,2.03-3.32,2.47-6.96,2.89-10.48,.3-2.51,.62-5.11,1.51-7.57,.42-1.14-.05-2.18-.54-3.28-.55-1.22-1.11-2.48-.29-3.79,3.6-5.72,3.96-12.22,4.31-18.5,.25-4.49,.5-9.13,1.93-13.51-1.09-1.15-1.58-2.22-1.52-3.27,.11-1.65,1.6-2.8,2.92-3.81,.4-.31,.79-.6,1.12-.9,1.74-1.57,2.74-3.38,3.55-6.46l.42-1.57,.54,1.53c.19,.54,.34,.95,.46,1.28,.21,.57,.34,.92,.42,1.28,.06,.27,.07,.56,.07,.85,0,.17,0,.43,.03,.54,7.02,4.15,4.77,11.59,3.43,16.04-.11,.37-.22,.71-.31,1.04-1.1,3.83-1.45,7.72-1.79,11.49-.29,3.27-.59,6.66-1.39,9.93-.29,1.21,.24,2.32,.75,3.39,.58,1.2,1.17,2.44,.39,3.66-2.34,3.7-2.5,7.83-2.64,11.83-.1,2.72-.2,5.53-.99,8.2-.23,.79,.17,1.33,.86,2.13,.74,.85,1.75,2.02,.15,3.58-2.02,1.96-2.02,4.32-2.03,6.81,0,.61,0,1.24-.03,1.87,5.25-.9,5.27-1.01,5.82-4.21,.28-1.6,.57-3.21,.87-4.81,.79-4.26,1.6-8.66,2-13.01,.1-1.09,.14-2.22,.18-3.31,.15-4.36,.3-8.87,4.46-12.05l.41-.31,3.4,4.83c.37,1.24,.51,2.46,.5,3.67,.22-.46,.45-.92,.7-1.37,.16-.57,.33-1.14,.5-1.7,.37-1.24,.75-2.52,1.04-3.79,.33-1.5,.62-2.84,.88-4.06,2.46-11.49,2.6-11.62,15-14.15,1.2-.24,2.51-.51,3.95-.81,3.99-.84,6.12-1.91,7.1-3.58,.97-1.64,.89-4.03-.25-7.76-.79-2.6-1.32-4.78-.33-7.07,.72-1.66,1.35-3.37,1.96-5.03,1.67-4.54,3.39-9.23,7.11-13.26,3.1-3.37,6.73-5.13,9.94-4.85,2.45,.22,4.56,1.62,6.12,4.05,6.17,9.66,7.69,19.5,4.52,29.27-2.2,6.77-1.25,9.03,5.06,12.11,1.19,.58,2.36,1.23,3.49,1.87,.55,.31,1.09,.61,1.64,.91,7.37,4,9.22,7.46,8.27,15.44-.45,3.78-.31,7.62-.18,11.34,.08,2.16,.16,4.4,.12,6.61l-.02,.94c-.1,6.16-.2,12.52-.91,18.73-.3,2.66,.24,4.77,1.52,5.93,1.14,1.03,2.86,1.33,5,.87,.28-.06,.57-.13,.86-.21,1.08-.28,2.2-.56,3.26-.23,1.99,.62,3.56,.6,4.81-.09,1.48-.81,2.54-2.58,3.34-5.55,.91-3.38,2.13-6.72,3.32-9.94,1.82-4.94,3.69-10.04,4.42-15.38l.02-.14,.09-.11c.6-.74,.67-1.65,.74-2.62,.05-.63,.09-1.28,.29-1.92l.05-.11,1.58-2.61,.38,.12c2.82,.91,2.23,2.84,1.8,4.26-.12,.4-.24,.78-.29,1.13l-.2,2.26c-.75,1.64-.77,3.38-.06,5.45l.03,.09v.09c-.02,.41-.02,.83-.02,1.24,0,.96,.01,1.95-.25,2.89-.25,.88-.16,1.32,0,1.44,.2,.14,.75,.06,1.34-.32,.51-.33,1.02-.66,1.54-.99,3.9-2.46,7.58-4.78,7.95-10.07,.18-2.56,.94-5.1,1.7-7.48,.58-1.82,1.38-4.3,3.92-4.6,1.46-.17,2.96-.44,4.4-.71,4.76-.87,9.69-1.76,14.76,.61,3.8,1.78,8.11,1.98,12.14,.57,3.16-1.11,6.59-.65,9.18,1.2,2.42,1.74,3.79,4.46,3.76,7.47-.11,12.29-.53,25.35-4.14,38-.64,2.24-1.16,4.73,.77,5.94,2.8,1.76,5.02,4.12,7.17,6.42,1.83,1.95,3.56,3.79,5.61,5.29,3.09,2.25,4.9,4.45,3.68,7.86-.57,1.61-1.73,2.01-2.96,2.01Zm-3.59-1.41c.56,0,1.19,.1,1.79,.2,2.01,.34,3.27,.43,3.83-1.14,1.02-2.84-.45-4.61-3.33-6.71-2.13-1.55-3.97-3.51-5.75-5.41-2.11-2.24-4.29-4.57-6.98-6.25-2.73-1.71-1.69-5.33-1.2-7.07,3.58-12.53,3.99-25.51,4.1-37.74,.03-2.68-1.19-5.11-3.35-6.65-2.32-1.67-5.41-2.06-8.26-1.07-4.29,1.5-8.86,1.28-12.9-.61-4.78-2.24-9.33-1.41-14.15-.53-1.46,.26-2.97,.54-4.46,.72-1.9,.22-2.53,2.18-3.08,3.91-.74,2.32-1.48,4.79-1.65,7.24-.41,5.8-4.47,8.37-8.41,10.85-.51,.32-1.02,.65-1.53,.98-.73,.48-1.77,.81-2.48,.29-.59-.44-.72-1.28-.37-2.52,.23-.8,.22-1.68,.21-2.61,0-.4,0-.8,.01-1.2-.74-2.23-.71-4.2,.09-6.02l.16-2.05c.07-.46,.2-.89,.33-1.31,.41-1.34,.69-2.27-.79-2.88l-1.13,1.86c-.15,.51-.19,1.06-.23,1.64-.08,1.03-.15,2.1-.87,3.06-.76,5.39-2.64,10.5-4.46,15.45-1.18,3.2-2.39,6.51-3.29,9.85-.55,2.05-1.54,4.92-3.82,6.17-1.49,.82-3.37,.87-5.6,.17-.79-.25-1.72,0-2.71,.24-.3,.08-.6,.15-.89,.22-2.46,.53-4.5,.14-5.88-1.11-1.53-1.39-2.18-3.8-1.84-6.79,.7-6.16,.8-12.5,.9-18.63v-.94c.05-2.18-.03-4.41-.11-6.56-.13-3.76-.27-7.64,.19-11.5,.91-7.55-.76-10.66-7.75-14.45-.55-.3-1.1-.61-1.65-.92-1.12-.63-2.28-1.27-3.44-1.84-6.79-3.31-7.93-6.04-5.58-13.32,3.07-9.47,1.58-19.03-4.41-28.42-1.4-2.19-3.2-3.4-5.36-3.59-2.92-.25-6.23,1.39-9.12,4.53-3.58,3.89-5.2,8.28-6.91,12.93-.62,1.67-1.25,3.4-1.98,5.08-.86,1.98-.37,3.97,.37,6.38,1.23,4.02,1.28,6.66,.15,8.56-1.14,1.93-3.46,3.14-7.76,4.05-1.45,.3-2.76,.57-3.96,.82q-11.87,2.42-14.22,13.38c-.26,1.22-.55,2.57-.89,4.07-.29,1.3-.68,2.6-1.05,3.86-.17,.58-.35,1.16-.51,1.75l-.04,.11c-.9,1.61-1.6,3.32-2.12,5.18-.12,.6-.25,1.2-.39,1.79-.1,.46-.21,.93-.31,1.41-.33,2.1-.49,4.4-.49,6.98v4.3s-.99-4.18-.99-4.18c-.13-.55-.12-1.05-.1-1.54,0-.24,.01-.47,0-.7-.04-1.71,.24-3.39,.58-5.03,.18-1.15,.42-2.24,.71-3.28,.49-2.44,.77-4.82,.05-7.3l-2.67-3.76c-3.39,2.87-3.53,6.81-3.67,10.97-.04,1.1-.08,2.24-.18,3.36-.4,4.4-1.22,8.82-2.01,13.1-.3,1.6-.59,3.2-.87,4.8-.69,4.01-1.06,4.07-7.19,5.11l-.64,.11-.02-.63c.07-.8,.07-1.63,.07-2.43,0-2.59,.01-5.27,2.33-7.53,.93-.9,.57-1.31-.21-2.21-.65-.75-1.46-1.69-1.06-3.06,.75-2.55,.84-5.17,.95-7.95,.15-4.13,.31-8.4,2.8-12.33,.46-.72,.12-1.49-.45-2.69-.56-1.17-1.2-2.5-.82-4.06,.78-3.21,1.07-6.4,1.37-9.79,.34-3.82,.69-7.76,1.82-11.68,.09-.33,.2-.68,.31-1.05,1.35-4.46,3.38-11.19-3.05-14.93-.43-.25-.44-.81-.45-1.34,0-.24,0-.48-.05-.64-.06-.27-.16-.55-.33-1.02-.8,2.41-1.84,4.05-3.41,5.47-.35,.32-.76,.63-1.18,.95-1.21,.93-2.46,1.89-2.54,3.09-.05,.8,.43,1.71,1.44,2.72l.22,.22-.1,.29c-1.47,4.33-1.73,9.01-1.97,13.54-.35,6.41-.72,13.03-4.46,18.98-.51,.82-.2,1.61,.35,2.85,.53,1.17,1.12,2.5,.57,4.03-.85,2.35-1.14,4.77-1.46,7.34-.44,3.62-.89,7.37-3.03,10.88-.48,.78-.12,2.36,.26,4.04,.43,1.91,.93,4.08,.47,6.03-.42,1.78-3.21,3.76-5.63,4.84-1.09,.49-3.79,1.52-5.31,.69-1.78-.98-1.42-2.57-1.16-3.74,.07-.32,.14-.63,.17-.92,.21-2.28,.53-4.58,.84-6.81,.55-3.89,1.12-7.91,1.05-11.91-2.07-1.36-1.83-3.27-1.62-4.96,.09-.77,.18-1.5,.08-2.16,.09-4.01-2.48-5.6-5.21-7.28-1.12-.69-2.28-1.41-3.25-2.29l-1.22-.9c-.19-.26-.31-.28-1.03,.08-.6,.3-1.71,.86-2.46-.49-.46-1.15-1.39-1.74-2.37-2.36-.35-.22-.69-.44-1.02-.68-.76-.45-1.55-.49-2.36-.09l-.2,.1-.21-.08c-5.34-2.18-6.94-8.3-6.37-11.95,1.88-12.07-5.03-19.02-12.27-25.1-.54-.51-1.18-.86-1.86-1.22-.99-.53-2.01-1.08-2.7-2.14-2.05-.38-2.72-2-3.31-3.45l-.2-.47c-1.36-1.61-1.07-3.46-.82-5.1,.23-1.46,.45-2.84-.39-4.04l-.04-.06c.31,6.89-3.98,10.09-9.56,13.48l-1.6,.97c-7.85,4.72-15.96,9.61-16.67,20.49-.11,1.61,.16,3.17,.42,4.69,.21,1.23,.43,2.51,.45,3.82,.02,1.61,.07,4.96-2.9,5.59-1.44,.3-4.81,1-5.93-3.01-.53-1.89-2.36-3.16-4.13-4.39-.29-.2-.57-.39-.84-.59l-.09-.09c-.14-.17-.26-.37-.38-.57-.18-.29-.36-.59-.54-.64-.11-.03-.28,.02-.49,.14-.88,1.41-2.12,2.5-3.32,3.56-1.63,1.45-3.18,2.81-3.9,4.92-.21,.61-.62,1.07-1.01,1.52-.83,.95-1.38,1.58-.07,3.25,.76,.97,.48,1.7,.24,2.04-.62,.91-2.32,1.24-3.87,.75-.82-.22-1.68-.29-2.6-.35-.69-.05-1.4-.1-2.1-.23-.99,.3-1.38,1.12-1.83,2.06-.39,.8-.79,1.63-1.6,2.18l-.13,.06-3.31,1.04-.21-.17c-.18-.15-.34-.23-.44-.2-.09,.01-.19,.09-.29,.22l-.53,8.37c-.52,8.21-1.07,16.7-1.52,25.05l-.02,.31c-.07,1.35-.14,2.75-1.01,3.53-.44,.4-1.04,.57-1.78,.54-.77-.04-1.35-.29-1.72-.74-.63-.77-.48-1.9-.34-2.89,.05-.38,.1-.74,.1-1.04-.02-8.57-.08-17.29-.15-25.72-.18-22.88-.36-46.53,.45-69.77,.19-5.52,.46-11.14,.73-16.58,.36-7.47,.73-15.2,.91-22.8,.06-2.63-.75-5.12-1.53-7.52-.33-1.03-.68-2.09-.96-3.16-1.05-4.05-2.79-8.03-4.47-11.87-3.32-7.6-6.75-15.46-5.23-24.53,.44-2.58-.03-5.13-1.37-7.56-4.71-8.5-6.65-15.9-6.09-23.28,.08-1.13-.12-2.49-1.5-2.76-.32,.51-.3,1.11-.28,1.79,.02,.72,.05,1.52-.37,2.26,.6,6.18-1.66,11.88-4.03,17.18-2.99,6.68-4.3,13.01-4.14,19.92,.11,4.8-.37,11.75-5.77,16.67-.15,.14-.21,.58-.25,.96-.04,.34-.09,.7-.2,1.03-5.4,15.35-7.23,30.35-5.46,44.6,2.54,20.38,2.34,41.12,2.16,61.17-.1,10.4-.2,21.15,.08,31.71,.03,1.09,.04,2.19,.04,3.28,.01,1.97,.02,4.01,.18,5.99,.14,1.76-.25,3.18-1.15,4.21-.97,1.11-2.48,1.73-4.51,1.86-1.49,.09-2.6-.28-3.29-1.09-.84-.99-1.01-2.6-.5-4.79,1.14-4.91,.78-9.73,.4-14.83-.32-4.34-.66-8.83,.03-13.33,.44-2.85,.12-6.09-.21-9.53-.2-2.06-.41-4.19-.43-6.22-.04-2.71,.31-5.44,.65-8.08,.23-1.78,.46-3.61,.58-5.41,.17-2.6-1.58-4.66-3.13-6.47-.65-.45-1.17-.42-1.73,.11-3.97,3.36-3.73,7.61-3.47,12.11,.04,.8,.09,1.61,.11,2.42,.03,1.23,.1,2.45,.16,3.68,.28,5.31,.57,10.8-1.65,16.32-1.02,2.54-.67,5.75-.33,8.86,.12,1.09,.24,2.21,.3,3.29l.02,.3c.15,2.6,.3,5.29-1.54,7.93l-.32,.46-.42-.37c-.2-.18-.42-.33-.61-.48-.49-.36-.91-.66-.88-1.14,.5-6.89-.44-13.82-1.34-20.52-.7-5.18-1.43-10.53-1.5-15.89-.02-1.64,0-3.33,0-5.04,.05-5.53,.1-11.25-1.14-16.19-1.92-7.64-2.13-15.39-2.33-22.89-.15-5.56-.31-11.32-1.17-16.9-1.34-8.67-1.64-15.43-.96-21.93,.11-1.05-.31-1.6-1.5-1.98-7.78-2.44-7.67-9.04-7.58-14.87v-.38c.05-2.58,.51-5.43,1.41-8.72,.46-1.7,.73-2.87,.25-3.65-.35-.57-1.14-.98-2.4-1.24-13.38-2.76-24.66-3.67-36.25,.89-5.04,1.98-4.41,4.73-3.69,7.92,.29,1.29,.59,2.62,.47,3.9-.14,1.43,.22,2.91,.6,4.47,.22,.93,.45,1.88,.58,2.84,.52,4.16,.55,8.35-5.28,9.96-2.6,.72-2.69,3.34-2.31,5.41l.04,.24c1.11,6.03,2.25,12.27,1.24,18.77-.32,2.08,.13,4.25,.62,6.55,.4,1.9,.81,3.86,.75,5.79-.1,3.38,.23,6.85,.55,10.2,.42,4.41,.85,8.98,.29,13.33-.53,4.04,.12,8.04,.74,11.92,.8,4.97,1.62,10.11,.09,15.53-.66,2.31,.01,5.28,.72,8.43,.57,2.54,1.16,5.16,1.11,7.68-.02,1.3-.13,2.61-.24,3.87-.23,2.79-.48,5.67,.22,8.5,.04,.15,.09,.32,.16,.5,.24,.73,.57,1.73,.08,2.48-.3,.46-.85,.73-1.64,.8-1.67,.16-3.08-.49-3.97-1.79-2.01-2.97-4.61-5.51-7.12-7.97-1.16-1.13-2.35-2.31-3.47-3.5-1.07-1.14-2.23-2.27-3.36-3.36-1.79-1.74-3.64-3.53-5.24-5.5-.24-.29-.41-.67-.58-1.04-.1-.22-.25-.55-.35-.67-2.2-.22-3.77-.94-4.68-2.16-1.49-2-.93-4.85-.48-7.13,.08-.42,.16-.83,.23-1.2,.53-3.21-.45-3.57-2.79-4.43l-.3-.11c-12.05-4.45-22.17-4.31-31.84,.45-2.54,1.25-2.24,2.98-1.88,4.98,.19,1.08,.39,2.2,.11,3.27-.1,.39-.11,.83-.11,1.26,0,1.13-.02,2.67-2.4,2.82-4.45,.28-6.87,3.53-9.21,6.68-.6,.8-1.16,1.56-1.75,2.26-1.15,1.36-2.56,2.23-3.92,3.08-1.6,.99-3.1,1.93-4.12,3.56-.29,.46-.79,.71-1.42,.72h-.02c-1.36,0-3.17-1.14-4.12-2.6-2.78-4.27-5.66-8.58-8.44-12.74-2.56-3.83-5.12-7.66-7.64-11.51-1.79-2.73-1.49-5.66-1.2-8.5,.2-1.93,.4-3.93-.08-5.82l-.08-.31c-.54-2.15-.7-2.81-2.65-2.48-4.61,.77-6.04-2.32-7.01-5.29-1.63-4.97-3.39-9.98-5.09-14.84-1.33-3.78-2.7-7.68-4-11.54-.16-.46-.33-.93-.5-1.39-.85-2.29-1.72-4.65-.95-7.33,1.49-5.17,2.33-10.05-3.84-13.12-1.09-.54-1.72-2.38-1.75-3.45-.15-7.25-1.41-14.51-2.62-21.52-1.03-5.93-2.09-12.06-2.48-18.19-.7-10.88-1.48-21.93-2.23-32.62-.76-10.78-1.54-21.92-2.24-32.88-.1-1.54-.22-3.08-.34-4.62-.57-7.24-1.15-14.74,.59-22.12,.54-2.3-.76-2.97-2.42-3.83-.74-.38-1.51-.78-2.1-1.35-.57-.49-1.05-.48-1.61,.06l-.09,.08-.12,.04c-4.11,1.24-4.47,3.55-3.71,8.25,1.46,9.16,.76,18.57,.08,27.67l-.06,.86c-1.82,24.45-3.31,44.84-4.42,66.01-1.15,21.99-5.92,44.22-14.57,67.96-2.11,5.8-4.33,12.04-7.2,20.24l-.15,.46c-.45,1.35-1.06,3.18-3.29,2.86-2.22-.32-3.8-.06-4.71,.79-1.37,1.28-1.18,3.79-1.01,6.01,.04,.54,.08,1.05,.1,1.53,.17,4.94-.85,8.73-3.29,12.26-5,7.25-9.91,14.76-14.46,21.8-1.06,1.64-1.96,2.39-2.9,2.41-1.17,0-2.1-.99-3.28-2.65-3.22-4.53-6.39-10.15-5.45-17.39,.22-1.71-.79-3.77-1.67-5.59l-.08-.16c-3.14-6.44-4.96-13.51-5.55-21.61-.11-1.45-.9-2.53-1.74-3.66l-.13-.18c-9.81-13.29-23.99-21-45.99-24.98-3.48-.64-5.41,3.46-7.11,7.07-.25,.54-.5,1.06-.74,1.55-.83,1.66-1.31,3.56-1.78,5.4-.24,.93-.48,1.89-.77,2.83-.1,.33-.2,.66-.29,.98-.69,2.4-1.4,4.89-4.86,5.87-2.15,.61-2.08,3.1-1.73,5.44,.84,5.61-.18,11.08-1.16,16.37-.16,.83-.31,1.67-.46,2.5-.37,2.1-1.1,3.44-2.21,4.09-1.02,.59-2.3,.6-3.93,.03-2.49-.87-3.7-.28-5.2,2.52-3.43,6.43-7.83,7.65-14.7,4.07-.38-.19-.76-.42-1.15-.64-1.31-.76-2.66-1.55-3.66-1.14-.75,.3-1.37,1.3-1.83,2.95-.19,.69-.73,1.07-1.43,1-.86-.09-1.82-.9-1.89-1.97-.09-1.42-.45-2.36-1.08-2.87-.94-.76-2.5-.54-4.02-.33-.37,.05-.75,.1-1.11,.14-18.85,2-35.37,5.95-50.51,12.08-1.67,.67-3.28,1.62-4.84,2.53-1.08,.63-2.19,1.28-3.32,1.84-9.12,4.55-9.06,13.15-9,21.46,.02,2.43-.64,4.26-1.33,6.2l-.27,.75-.46-.14c-2.54-.76-2.89-2.86-3.15-4.39l-.48-2.76c-1.99-11.35-4.06-23.08-3.57-35.18,.4-9.97,.85-21.27-2.32-32.14-1.08-3.72-2.46-10.97,.47-17.8,.71-1.65,.48-2.94,.19-4.58l-.02-.12c-.07-.41-.2-.85-.34-1.31-.4-1.36-.86-2.9,.14-4.16,3.54-4.45,2.95-8.29-1.99-12.86-1.8-1.66-2.75-4.11-2.43-6.26,.93-6.18,.56-12.48,.2-18.57-.28-4.66-.56-9.48-.26-14.24l.02-.11c.51-1.77,.37-3.59,.23-5.52-.18-2.45-.37-4.99,.88-7.43,3.8-7.25,2.28-13.3-4.65-18.5-1.08-.81-1.85-.73-2.86,.3-5.13,5.19-5.67,10.76-1.86,19.23,2.78,6.18,3.37,13.69,1.82,22.96-.91,5.43-1.2,10.49-.89,15.47,.2,3.17-.48,5.3-4.47,6.1-2.32,.47-3.85,.34-4.96-.41-.99-.66-1.63-1.83-1.96-3.57l-.03-.14,.05-.13c.22-.59,.12-.78,.09-.83-.03-.04-.18-.18-.71-.16-1.93,1.18-3.43,1.47-4.58,.9-1.14-.57-1.83-1.96-2.11-4.24-.74,.23-.74,.78-.69,1.8,.05,.88,.11,1.98-.89,2.58-1.91,1.55-3.64,1.62-5.23,.17h0c-.54,0-.63,.09-.64,.1h0s-.05,.13,.14,.53c1.65,2.15,1.29,4.15-1.11,6.1-.51,.65-.52,1.27-.06,2.02l.05,.11c.99,2.92-.94,3.78-2.49,4.47-.29,.13-.57,.25-.82,.38,.05,.38,.15,.64,.32,.79,.3,.27,.89,.22,1.52,.17,.91-.08,2.17-.18,2.7,1.03,.79,2.4,.65,4.82,.52,7.15-.14,2.45-.28,4.77,.54,7.06,.48,1.36-.22,3.89-1.35,4.83-5.72,4.8-6.86,11.31-8.06,18.2l-.22,1.25c-.07,.37-.09,.79-.11,1.23-.09,1.67-.21,3.75-2.84,4.46-2.31,.62-4.28-.24-6.03-2.64-2.86-3.92-6.71-3.86-10.79-3.8-1.08,.01-2.19,.03-3.27-.03-.61-.04-1.39,.1-1.7,.48-.06,.07-.23,.28-.09,.77l.06,.23c2.13,7.86,4.34,15.99,11.47,20.96,2.53,1.76,4.6,3.53,4.33,7.31-.1,1.47,.13,3.29,.87,4.04,4.42,4.44,4.26,9.77,4.1,14.92-.04,1.31-.08,2.66-.04,3.96,.12,4.36,1.56,8.48,2.95,12.47,.37,1.06,.74,2.13,1.09,3.2,1,1.4,1.56,2.24,1.3,3.03-.28,.87-1.38,1.29-3.66,2.08l-.15,.05-.15-.04c-1.25-.35-2.48,.1-3,1.09-1.11,2.12-2.33,3.3-3.72,3.61-2,.44-3.86-.97-5.66-2.34-.46-.35-.92-.7-1.37-1.01-11.68-7.97-24.12-16.58-39.16-27.11-6.19-4.33-6.39-4.3-10.85,1.38-.76,.96-1.45,2.17-2.13,3.34-1.65,2.86-3.36,5.82-6.28,5.99-2.43,.15-4.94-2-7.35-4.07-.98-.84-1.99-1.71-2.95-2.39q-9.75-6.84-16.88,2.54c-3.6,4.73-7.03,9.73-10.35,14.56-1,1.45-2,2.91-3,4.36-1.52,2.2-3.19,4.36-5.45,4.6-1.53,.17-3.14-.56-4.92-2.22-.81-.75-1.63-1.11-2.44-1.05-.94,.07-1.88,.67-2.8,1.81-4.52,5.57-9.07,11.13-13.62,16.68-5.79,7.07-11.78,14.38-17.61,21.61-.82,1.01-1.17,1.97-.92,2.49,.24,.48,1.06,.73,2.32,.7,.53-.01,1.07,0,1.6,0h.74s32.35,0,32.35,0c107.82,.02,215.67,0,323.51,0,.77,0,1.57-.06,2.34-.11,.34-.02,.68-.05,1.03-.07,.81-.37,1.31-.82,1.51-1.36,.19-.54,.09-1.21-.31-2-.02-.04-.04-.07-.05-.11-.07-.05-.14-.11-.21-.17l-.15-.12-.03-.19c-.05-.29-.07-.55-.07-.8-.43-2.05,1.1-2.99,2.37-3.78,.59-.37,1.15-.71,1.52-1.14,.08-.09,.15-.19,.21-.29l.85,.53c-.09,.14-.18,.27-.29,.4-.46,.55-1.04,.99-1.61,1.41-1.05,.78-1.98,1.47-2.04,2.77,.05,.22,.14,.45,.25,.71,2.08,1.43,3.69,.46,5.54-.64,.88-.53,1.79-1.08,2.78-1.34l1.23-.33-.99,1.58c-1.06,1.65-1.98,3.08-.78,4.87,.54,.02,1.09,.04,1.63,.07,1.29,.05,2.62,.11,3.92,.11,247.63,0,471.25,0,700.28-.07Zm-262.84-136.48c.02,.18,.03,.36,.05,.54v-.03c.15-.32,.17-.48,.17-.53-.02,0-.09,0-.22,.03Z"/><path class="cls-1" d="M1378.55,196.17l.09-3.4c.07-2.44-1.35-3.89-2.86-5.42-.6-.61-1.23-1.25-1.74-1.95-2.82-3.86-2.69-7.47,.36-9.91,3.05-2.44,7.53-3.34,10.2-.36,2.2,2.45,3.58,6.69,.25,10.58-.43,.5-.87,.99-1.32,1.47-1.62,1.77-3.16,3.44-3.93,5.76l-1.07,3.23Zm1.72-21.92c-1.79,0-3.71,.8-5.23,2.02-3.35,2.68-1.95,6.12-.18,8.54,.47,.64,1.04,1.22,1.64,1.83,1.14,1.17,2.4,2.45,2.91,4.25,.9-1.68,2.17-3.06,3.4-4.4,.44-.48,.88-.96,1.3-1.45,2.92-3.4,1.7-7.11-.23-9.26-.97-1.08-2.25-1.54-3.6-1.54Z"/><path class="cls-1" d="M1406.65,199.76l-.51-.63c-.46-.56-.95-1.11-1.43-1.65-2.7-3.04-5.5-6.19-1.57-10.29,.86-.9,2.16-1.37,3.53-1.31,1.43,.07,2.72,.7,3.54,1.74,2.86,3.59,.88,5.95-1.04,8.23-.83,.99-1.69,2.01-2.21,3.17l-.33,.74Zm-.21-12.88c-1.01,0-1.97,.37-2.58,1-3.29,3.44-1.14,5.86,1.59,8.94,.32,.36,.64,.73,.96,1.1,.56-.99,1.29-1.86,2-2.71,1.89-2.24,3.37-4.01,1.02-6.96-.65-.81-1.67-1.31-2.81-1.36-.06,0-.13,0-.19,0Z"/><path class="cls-1" d="M1194.27,331.39l.5-.77c.86-1.31,1.21-2.67,1.07-4.15l-.07-.69,.68,.16c2.26,.53,4.1-.58,6.05-1.76,2-1.21,4.07-2.47,6.83-2.23l.76,.07-.36,.67c-.64,1.19-1.5,2.15-2.33,3.07-1.42,1.58-2.65,2.95-2.38,5.07l.07,.56h-10.82Zm2.6-4.36c0,1.17-.26,2.29-.81,3.37h7.92c-.06-2.27,1.33-3.81,2.67-5.31,.61-.68,1.24-1.38,1.76-2.16-2.05,.08-3.75,1.11-5.4,2.1-1.87,1.13-3.79,2.3-6.15,2Z"/><path class="cls-1" d="M1363.64,208.76l-.34-.87c-.37-.95-1.15-1.8-1.89-2.62-1.67-1.84-3.55-3.92-.83-7.2,.75-.91,1.84-1.44,2.98-1.47,1.13-.03,2.18,.43,2.94,1.25,3.17,3.45,1.01,6.04-.91,8.33-.49,.59-1,1.19-1.42,1.81l-.53,.77Zm.02-11.16s-.05,0-.08,0c-.85,.02-1.67,.43-2.24,1.11-2.17,2.61-.86,4.06,.8,5.89,.61,.67,1.24,1.37,1.7,2.15,.32-.41,.65-.81,.98-1.21,1.96-2.35,3.52-4.21,.94-7.01-.55-.6-1.3-.93-2.1-.93Z"/><path class="cls-1" d="M1735.05,279.95l-.7-.91c-.84-1.09-.77-2.33-.71-3.42,.05-.91,.09-1.78-.34-2.51l-.06-.11v-.12c-.16-3.94,.61-7.79,1.36-11.51,.33-1.63,.67-3.31,.92-4.97l.16-1.04,3.01,3.3-3.64,21.29Zm-.82-7.23c.52,.96,.46,1.97,.41,2.96-.02,.31-.03,.62-.03,.91l3.01-17.62-1.28-1.4c-.23,1.34-.5,2.69-.76,3.99-.73,3.63-1.48,7.37-1.35,11.16Z"/><path class="cls-1" d="M1695.83,262.9h-1.12s-.03-.47-.03-.47c-.19-2.87-2.15-4.28-4.22-5.79-1.48-1.07-3.01-2.18-3.9-3.86l-.19-.37,1.22-.97c.3-.34,.63-.52,.98-.51,.36,0,.7,.2,1,.58,.2,.26,.4,.52,.6,.77,1.08,1.4,2.1,2.72,3.5,3.55,.37-.38,.41-.88,.43-1.6,.03-1.02,.08-2.3,1.84-2.9l.6-.2,.06,.62c.33,3.27,.11,6.69-.71,10.74l-.08,.41Zm-8.18-10.23c.8,1.28,2.06,2.2,3.39,3.16,1.7,1.23,3.45,2.5,4.23,4.6,.47-2.89,.6-5.4,.42-7.86-.53,.39-.55,.94-.57,1.69-.03,.84-.06,1.89-1.1,2.59l-.25,.17-.26-.14c-1.75-.92-2.95-2.48-4.11-3.98-.2-.26-.39-.51-.59-.76-.13-.16-.21-.2-.23-.2h0s-.11,.04-.24,.2l-.07,.07-.6,.47Z"/><path class="cls-1" d="M1697.69,269.84l-.54-.02c-2.48-.09-3.88-.57-4.4-1.52-.61-1.11,.17-2.45,.93-3.75,.46-.79,.93-1.6,1-2.22l.05-.45,.79,.02c1.62,.32,2.63,.88,3.08,1.7,.6,1.09,.11,2.34-.37,3.55-.29,.75-.6,1.53-.57,2.14l.03,.54Zm-2.11-6.91c-.2,.69-.62,1.42-1.04,2.12-.62,1.06-1.26,2.15-.92,2.76,.21,.38,.91,.83,3.06,.97,.09-.66,.35-1.34,.62-2.01,.41-1.04,.8-2.02,.42-2.7-.28-.51-1-.89-2.15-1.15Z"/><path class="cls-1" d="M1303.28,21.61l.07-.58c.31-2.46,.21-5.01,.11-7.48-.15-3.75-.3-7.63,.96-11.42l.45-1.34,.5,1.32c.87,2.3,.76,4.67,.65,6.96-.09,2.07-.19,4.03,.39,5.95l.02,.12,.25,6.37-3.39,.08Zm1.61-17.42c-.67,3.08-.55,6.24-.43,9.32,.09,2.32,.19,4.71-.05,7.07l1.22-.03-.21-5.3c-.6-2.06-.5-4.18-.41-6.22,.08-1.67,.15-3.27-.12-4.84Z"/><path class="cls-1" d="M1036.27,132.86l-.18-2.12c-.08-.93-.15-1.86-.21-2.79-.15-2.15-.3-4.37-.67-6.5-.36-2.08,.32-3.3,2.27-4.07l.78-.31-.11,.84c-.2,1.56-.17,3.19-.14,4.76,.05,2.71,.1,5.5-.96,8.21l-.78,1.98Zm.8-14.17c-.87,.55-1.1,1.3-.88,2.58,.37,2.1,.52,4.25,.67,6.35,.22-1.6,.19-3.23,.16-4.93-.02-1.31-.05-2.66,.05-4Z"/><path class="cls-1" d="M1007.76,159.25v-12.74l.86,.91c2.04,2.14,2.82,4.32,2.4,6.68l-.04,.24-.22,.11c-.6,.31-.66,.88-.71,1.79-.05,1.01-.12,2.28-1.63,2.79l-.66,.22Zm1-10.13v8.5c.22-.33,.26-.8,.29-1.43,.04-.85,.1-1.88,1.03-2.5,.23-1.6-.2-3.08-1.32-4.58Z"/><path class="cls-1" d="M1306.62,17.74l-1.14-2.35c-1.28-2.64-1.13-5.38-.99-8.03,.09-1.65,.19-3.36-.08-4.98l-.4-2.38,1.31,2.02c1.88,2.9,1.58,5.96,1.28,8.91-.14,1.39-.28,2.83-.18,4.2l.19,2.6Zm-1.04-12.54c-.01,.74-.05,1.48-.09,2.21-.08,1.55-.17,3.05,.01,4.51,.03-.37,.07-.73,.1-1.09,.19-1.95,.38-3.82-.03-5.63Z"/><path class="cls-1" d="M1555.15,68.1c-.78,0-1.4-.34-1.71-.94-.29-.55-.24-1.25,.13-1.76,.66-.93,.68-1.96,.7-3.05,.02-1.31,.05-2.79,1.23-4.2l.79-.95,.24,3.3c.14,1.84,.27,3.68,.37,5.52,.04,.64-.14,1.2-.5,1.58-.31,.33-.73,.5-1.24,.51h-.02Zm.36-7.92c-.21,.71-.23,1.43-.24,2.18-.02,1.19-.04,2.43-.88,3.61-.15,.21-.17,.5-.06,.72,.14,.26,.47,.39,.84,.4,.23,0,.4-.06,.52-.19,.16-.17,.25-.48,.23-.84-.1-1.83-.24-3.67-.37-5.5l-.03-.39Z"/><path class="cls-1" d="M993.02,175.94c-.27,0-.54-.06-.77-.24-.4-.3-.58-.83-.58-1.66v-.38s6.41-1.65,6.41-1.65l.18,.37c.29,.59,.87,.66,1.79,.71,1.03,.06,2.44,.14,2.85,1.87l.21,.87-.85-.28c-1.61-.53-3.23-.34-4.93-.14-.91,.11-1.85,.19-2.78,.21-.15,.03-.3,.08-.46,.12-.35,.1-.72,.21-1.08,.21Zm-.33-1.51c.04,.36,.14,.46,.16,.47,.15,.11,.62-.03,.96-.13,.2-.06,.4-.12,.59-.15h.05s.05,0,.05,0c.9,.03,1.81-.1,2.71-.2,1.33-.16,2.69-.32,4.08-.12-.31-.14-.74-.18-1.29-.21-.82-.05-1.81-.1-2.42-.91l-4.89,1.26Z"/><path class="cls-1" d="M1689.77,252.32l-2.38-.03,.06-.55c.08-.76,.04-1.54,.01-2.37-.08-1.92-.17-4.09,1.19-6.42l.42-.73,.44,.72c1.39,2.31,.92,4.29,.5,6.04-.23,.97-.45,1.88-.32,2.75l.08,.58Zm-1.29-1.01h.17c-.02-.86,.19-1.71,.38-2.54,.33-1.39,.67-2.83,.04-4.43-.75,1.75-.68,3.4-.62,5.01,.03,.67,.05,1.32,.02,1.96Z"/><path class="cls-1" d="M1650.21,208.91c-.44,0-.79-.11-1.07-.33-.89-.7-.6-2.2-.32-3.65,.07-.38,.15-.76,.2-1.12l.15-1.06,4.51,5.01-.61,.29c-1.23,.57-2.16,.86-2.87,.86Zm-.38-3.93s-.02,.1-.03,.14c-.2,1.05-.46,2.35-.05,2.67,.15,.12,.66,.29,2.27-.37l-2.2-2.44Z"/><path class="cls-1" d="M1587.47,251.33l-.16-.18c-.98-1.06-1-2.28-.05-3.42l.13-.16,.21-.02c.46-.04,.49-.16,.55-.76,.03-.33,.07-.71,.29-1.04,.23-.42,.54-.65,.89-.65h0c.35,0,.65,.22,.91,.67l.1,.18-.05,.2c-.5,1.94,.52,2.34,1.93,2.89,.67,.26,1.36,.53,1.88,1.01l.86,.79-7.5,.49Zm.44-2.81c-.47,.64-.48,1.19-.02,1.78l4.12-.27c-.05-.02-.11-.04-.16-.06-1.26-.5-2.96-1.16-2.65-3.46-.03,.12-.04,.26-.06,.39-.06,.54-.15,1.43-1.24,1.62Z"/><path class="cls-1" d="M1584.49,255.28l.22-1.22c.1-.59,.2-1.18,.3-1.77,.24-1.4,.48-2.84,.79-4.25,.15-.68,.45-1.07,.89-1.15,.46-.09,.93,.21,1.36,.89l.08,.12,.03,2.78c.49,.91,.61,1.61,.38,2.18-.32,.78-1.19,1.03-1.95,1.26-.42,.12-.84,.25-1.1,.43l-1,.72Zm2.4-7.35c-.03,.06-.07,.16-.11,.33-.31,1.38-.55,2.81-.78,4.2-.05,.28-.09,.56-.14,.84,.15-.05,.3-.09,.46-.14,.58-.17,1.17-.34,1.31-.68,.08-.19,.08-.6-.39-1.42l-.06-.11-.03-2.74c-.1-.15-.19-.23-.25-.28Z"/><path class="cls-1" d="M993.15,286.17c-.56,0-1.07-.07-1.44-.12l-1.59-.22,1.43-.72c.99-.5,1.95-1.08,2.2-1.88,.16-.51,.05-1.12-.35-1.85l-.48-.9,1.01,.17c.86,.15,2,.5,2.54,1.38,.33,.54,.38,1.17,.15,1.88-.61,1.89-2.17,2.27-3.47,2.27Zm1.55-4.29c.17,.59,.17,1.14,.01,1.65-.21,.67-.68,1.18-1.27,1.62,1.23-.07,1.91-.56,2.22-1.55,.14-.43,.12-.77-.05-1.05-.17-.27-.48-.5-.92-.67Z"/><path class="cls-1" d="M1002.38,160.79l-.39-.38c-.29-.29-.62-.55-.96-.82-1.26-1.02-2.69-2.17-2.28-4.6l.12-.69,.97,.53c1.68,.92,3.26,1.79,4.1,3.63l.13,.28-1.69,2.06Zm-2.69-4.92c.03,1.37,.94,2.1,1.98,2.93,.21,.17,.42,.34,.63,.52l.6-.74c-.68-1.26-1.85-1.96-3.21-2.71Z"/><path class="cls-1" d="M1648.35,195.51l-1.62-1.7v-.19c0-.18-.02-.36-.03-.55-.07-1.07-.16-2.41,1.36-3.47l.48-.33,.26,.53c1.02,2.08,.99,3.69-.09,5.22l-.35,.5Zm-.63-2.11l.48,.51c.46-.92,.44-1.87-.04-3.08-.57,.63-.52,1.33-.47,2.18,0,.13,.02,.26,.02,.39Z"/><path class="cls-1" d="M1580.2,255.9l-.08-.48c-.46-2.63-.29-5.18,.57-9.07l.65-2.92,1.36,12.1-2.5,.37Zm.86-6.02c-.25,1.85-.25,3.38-.03,4.89l.57-.08-.54-4.81Z"/><path class="cls-1" d="M1607.98,236.48l-3.27-1.68-.02-.28c-.01-.17-.04-.35-.06-.54-.12-.91-.25-1.95,.37-2.53,.35-.33,.88-.43,1.54-.29,1.61,.33,1.46,1.9,1.35,3.05-.04,.46-.09,.94-.04,1.31l.14,.96Zm-2.33-2.32l1.18,.61c.01-.22,.03-.43,.06-.65,.14-1.39,.08-1.85-.55-1.97-.32-.06-.56-.05-.66,.04-.25,.23-.13,1.09-.06,1.67,.01,.1,.03,.21,.04,.31Z"/><path class="cls-1" d="M1679.41,248.68l-4.44-.21,.62-.77c.27-.33,.36-.83,.46-1.36,.21-1.08,.46-2.42,2.3-2.94l.58-.16,.47,5.43Zm-2.62-1.12l1.52,.07-.26-3.02c-.72,.41-.86,1.1-1.01,1.93-.07,.34-.13,.69-.25,1.02Z"/><path class="cls-1" d="M997.87,167.2l-.24-.12c-.41-.2-.89-.31-1.4-.42-1.09-.25-2.32-.52-3.25-1.81l-.45-.63,.76-.15c2.88-.58,5.25-.65,7.46,.92l.32,.22-.14,.36c-.41,1.07-1.32,1.19-1.98,1.28-.32,.04-.63,.09-.84,.21l-.23,.14Zm-3.49-2.32c.61,.47,1.32,.64,2.07,.8,.46,.1,.94,.21,1.39,.4,.32-.13,.67-.18,.98-.22,.47-.06,.77-.12,.98-.31-1.59-.96-3.3-1.01-5.41-.66Z"/><path class="cls-1" d="M1522.84,216.25l.04-.56c.02-.26,0-.55,0-.85-.03-.85-.06-1.81,.51-2.41,.3-.31,.72-.48,1.24-.48,.55,.02,.97,.14,1.26,.45,.49,.52,.43,1.32,.38,2.02-.03,.39-.06,.79,.01,1.06l.15,.59-3.59,.18Zm1.83-3.3h-.02c-.37,0-.5,.13-.53,.17-.28,.29-.25,1.03-.23,1.68,0,.13,0,.26,.01,.39l1.35-.07c0-.26,.01-.52,.03-.79,.04-.5,.08-1.06-.11-1.26-.1-.11-.32-.13-.49-.13Z"/><path class="cls-1" d="M1683.59,253.28c-.14,0-.29-.02-.44-.08-.54-.2-.93-.73-1.22-1.69l-.22-.7,.72,.05c.18-.04,.61-.54,.85-.81,.57-.66,1.16-1.34,1.86-1.13,.63,.19,.98,.98,1.21,2.73l.06,.45-.45,.1c-.24,.05-.56,.26-.86,.45-.46,.3-.97,.62-1.51,.62Zm-.54-1.61c.2,.45,.37,.57,.45,.59,.24,.09,.67-.2,1.06-.45,.24-.16,.49-.32,.75-.43-.21-1.32-.45-1.5-.46-1.51-.12,.04-.56,.55-.8,.83-.33,.38-.65,.75-.99,.97Z"/><path class="cls-1" d="M1658.19,211.71l-1.02-.22c-2.01-.43-4.29-.91-4.74-3.78l-.14-.9,.83,.36c.32,.14,.64,.26,.97,.38,1.54,.58,3.28,1.23,3.88,3.36l.23,.8Zm-4.52-3.24c.53,1.18,1.65,1.58,2.97,1.89-.61-1-1.69-1.41-2.91-1.86l-.06-.02Z"/><path class="cls-1" d="M1017.89,159.95l-1.8-2.4,.06-.23c.47-1.77,1.24-3.45,3.7-3.75l.49-.06,.07,.49c.29,2.11-.79,3.58-1.74,4.88l-.77,1.07Zm-.71-2.61l.69,.92c.82-1.12,1.59-2.18,1.58-3.6-1.31,.33-1.86,1.25-2.27,2.68Z"/><path class="cls-1" d="M1843.23,268.18l-.29-.84c-.24-.67-.21-1.36-.19-2.04,.03-1.02,.06-1.91-.81-2.57l-.38-.29,.27-.39c.75-1.09,1.41-1.54,2.04-1.38,.9,.23,1.03,1.62,1.07,2.07,.12,1.29,.14,3.19-1.14,4.75l-.56,.69Zm-.32-5.91c.9,.92,.87,2.06,.84,3.07,0,.07,0,.15,0,.22,.25-.75,.31-1.63,.2-2.72-.1-1.02-.33-1.19-.34-1.2,0,0-.23,.03-.7,.63Z"/><path class="cls-1" d="M1553.35,78.12l.06-1.11c.02-.37-.02-.76-.07-1.18-.12-1.17-.28-2.63,1.21-3.68l.68-.48,.17,1.26c.21,1.49,.44,3.19-1.18,4.48l-.87,.69Zm1.13-4.45c-.29,.54-.24,1.19-.15,2.04,.27-.61,.24-1.29,.15-2.04Z"/><path class="cls-1" d="M1589.34,246.53h-.91s-.09-.58-.09-.58c-.18-1.11-.38-2.36,.55-3.44,.16-.19,.44-.27,.83-.26,.21,0,.74,.06,.98,.39,.79,1.08,.3,2.03-.08,2.79-.13,.26-.25,.5-.33,.74l-.11,.34-.83,.02Zm-.06-1h.17c.08-.19,.17-.37,.26-.55,.37-.74,.56-1.16,.21-1.69-.09-.03-.25-.05-.35-.04-.5,.64-.43,1.41-.29,2.28Z"/><path class="cls-1" d="M1001.64,168.95l-4.46-2.08,.22-.46c.52-1.08,1.51-1.25,2.3-1.38,.2-.03,.4-.07,.6-.12,.5-.22,.99-.12,1.37,.28l.14,.15-.17,3.6Zm-3.03-2.51l2.1,.98,.08-1.62s-.06,.02-.1,.04l-.09,.03c-.24,.06-.48,.11-.73,.15-.55,.09-.96,.18-1.25,.42Z"/><path class="cls-1" d="M1839.36,270.39l-.13-1.02c-.27-2.16,.12-3.77,1.24-5.09l.43-.51,.37,.56c1.63,2.5-.2,4.34-1.19,5.33l-.72,.73Zm1.42-4.83c-.43,.72-.63,1.55-.63,2.55,.69-.86,.97-1.64,.63-2.55Z"/><path class="cls-1" d="M1843.64,276.57l-.88-1.13c-1.68-2.18-1.65-4.41,.1-6.45l.9-1.05-.12,8.63Zm-.92-5.44c-.25,.69-.26,1.4-.03,2.11l.03-2.11Z"/><path class="cls-1" d="M991.88,176.72c-.59,0-1.17-.22-1.71-.82-.3-.33-.36-.76-.17-1.17,.31-.68,1.28-1.19,2.19-1.18l.2,.04,3.18,1.45-.9,.56c-.81,.5-1.8,1.12-2.78,1.12Zm.19-2.17c-.56,.02-1.06,.36-1.17,.6,.68,.82,1.48,.62,2.53,.02l-1.37-.62Z"/><path class="cls-1" d="M1304.94,272.54c-3.77,0-7.56-1.58-11.28-4.75-3.76-3.2-6.27-4.12-9.54-.28-.8,.94-1.99,1.51-3.33,1.61-1.38,.1-2.84-.33-3.71-1.1-.45-.4-.69-.88-.71-1.43-.05-1.33,1.24-2.65,2.28-3.71l.31-.32c9.55-9.92,21.31-13.38,34.96-10.29,9.18,2.08,15.92,7.06,21.19,15.68l.51,.84-.98-.08c-.98-.08-1.91-.02-2.81,.04-2.25,.15-4.36,.29-6.15-2.03-1.15-1.48-2.32-2.25-3.59-2.35-1.49-.1-3.12,.7-4.99,2.49-3.95,3.77-8.05,5.66-12.17,5.66Zm-16.58-8.54c2.12,0,4.09,1.44,5.96,3.03,7.43,6.33,14.87,6.04,22.11-.88,2.09-2,3.96-2.91,5.76-2.77,1.55,.12,2.99,1.04,4.3,2.73,1.47,1.9,3.07,1.79,5.3,1.64,.64-.04,1.3-.09,1.99-.08-5.05-7.89-11.45-12.48-20.06-14.43-13.47-3.04-24.6,.23-34.02,10.01l-.32,.33c-.86,.87-2.03,2.07-2,2.97,0,.27,.13,.5,.38,.72,.66,.58,1.86,.93,2.97,.85,.76-.05,1.83-.31,2.64-1.26,1.77-2.08,3.43-2.86,5-2.86Z"/><path class="cls-1" d="M1298.16,216.42c-1.52,0-2.57-.37-3.23-1.13-1.02-1.17-1-3.15,.06-6.22,.69-1.99,.89-4.21,1.09-6.36,.1-1.06,.2-2.15,.36-3.22,.44-3.01,2.49-5.65,5.47-7.06,3.09-1.46,6.58-1.35,9.32,.29,1.33,.8,2.09,1.98,2.34,3.63,.17,1.14,.36,2.27,.56,3.4,.32,1.88,.66,3.82,.86,5.75,.47,4.44,.71,6.67-.4,8.03-1.11,1.36-3.35,1.58-7.83,2.03-1.33,.13-2.66,.25-3.99,.37l-1.75,.16c-1.09,.21-2.04,.32-2.85,.32Zm8.23-24.01c-1.36,0-2.74,.31-4.05,.93-2.68,1.27-4.52,3.63-4.91,6.31-.15,1.04-.25,2.12-.35,3.16-.2,2.21-.41,4.49-1.14,6.59-.91,2.62-.99,4.38-.25,5.24,.74,.85,2.43,1.01,5.16,.48h.05s1.78-.17,1.78-.17c1.33-.12,2.65-.24,3.98-.37,4.07-.4,6.31-.62,7.15-1.66,.85-1.04,.61-3.26,.18-7.3-.2-1.9-.53-3.83-.85-5.69-.2-1.14-.39-2.28-.56-3.43-.2-1.35-.79-2.28-1.86-2.92-1.3-.78-2.8-1.17-4.33-1.17Z"/><path class="cls-1" d="M1194.19,319.81c-3.89,0-5.88-3.59-6.08-6.93-.09-1.43,.42-2.79,1.42-3.81,1.25-1.28,3.14-1.94,5.31-1.88,2.22,.07,3.49,.6,3.87,1.61,.45,1.19-.41,2.8-2.7,5.06,2.54,1.67,2.62,3.11,2.42,3.84-.35,1.29-1.96,2.1-4.21,2.12h-.03Zm.34-11.63c-1.77,0-3.29,.56-4.28,1.58-.8,.82-1.21,1.91-1.14,3.06,.13,2.23,1.36,5.99,5.08,5.99h.03c1.72,0,3.03-.56,3.25-1.38,.22-.82-.65-1.92-2.34-2.96-.29,.07-.55,.14-.79,.19-1.74,.42-1.92,.41-2.08,.07-.04-.05-.08-.12-.1-.2-.19-.55,.4-.85,1.46-1.32l2.77-1.23c1.46-1.68,1.52-2.49,1.38-2.85-.21-.56-1.27-.91-2.97-.96-.09,0-.19,0-.28,0Zm.49,5.25l-.08,.06s.02,0,.02,0l.06-.05Z"/><path class="cls-1" d="M1185.08,310.49c-.07,0-.15,0-.22-.02-.64-.1-1.11-.59-1.42-1.48-.23-.67-.42-1.37-.61-2.04-.47-1.71-.91-3.32-2.04-4.79l-.15-.2,.06-.24c.74-2.82,3.02-3.05,4.85-3.23,.58-.06,1.14-.12,1.6-.24,3.42-.95,6.78,2.27,7.47,4.34,.26,.79,.21,1.43-.15,1.91-.74,.97-2.53,.88-4.11,.79-.25-.01-.49-.03-.72-.03-.83-.04-1.01,.42-1.3,1.62-.14,.6-.29,1.22-.65,1.71-.65,.88-1.62,1.89-2.62,1.89Zm-3.34-8.72c1.14,1.57,1.61,3.28,2.06,4.93,.19,.68,.36,1.33,.59,1.97,.12,.35,.33,.77,.63,.82,.43,.09,1.17-.51,1.88-1.48,.24-.33,.36-.84,.48-1.34,.25-1.03,.59-2.42,2.31-2.39,.24,0,.48,.02,.74,.04,1.2,.06,2.85,.15,3.27-.4,.15-.2,.15-.53,0-.98-.48-1.44-3.27-4.53-6.25-3.7-.55,.15-1.14,.21-1.77,.28-1.69,.17-3.3,.33-3.92,2.27Z"/><path class="cls-1" d="M1127.99,275.16l-.5-1.68c-.17-.57-.78-.76-1.77-1.01-.84-.21-1.8-.46-2.25-1.26-.3-.53-.33-1.2-.1-2.05-.14-1.57,.19-2.85,.97-3.8,.89-1.07,2.34-1.7,4.32-1.87,1.39-.12,2.53,.2,3.41,.94,1.03,.87,1.62,2.27,1.77,4.15,.21,2.64-1.63,3.09-3.11,3.46-1.26,.31-2.05,.56-2.29,1.44l-.46,1.69Zm1.23-10.7c-.15,0-.31,0-.46,.02-1.7,.15-2.93,.66-3.64,1.51-.63,.75-.88,1.82-.74,3.16v.1s-.02,.09-.02,.09c-.18,.62-.19,1.08-.02,1.37,.25,.43,.92,.6,1.63,.78,.68,.17,1.43,.36,1.94,.84,.62-.79,1.65-1.04,2.58-1.27,1.59-.39,2.49-.7,2.35-2.4-.13-1.59-.62-2.78-1.42-3.47-.57-.48-1.31-.73-2.21-.73Z"/><path class="cls-1" d="M1176.63,237.41c-1.44,0-2.47-.32-3.14-.96-.99-.95-.99-2.37-.98-3.75,0-.69,0-1.41-.13-2.01l-.03-.13,.04-.13c.15-.5,.08-1.22,.02-1.91-.11-1.09-.21-2.22,.47-2.93,.42-.44,1.05-.64,1.94-.59,4.43,.21,4.67,3.48,4.88,6.36,.07,.89,.13,1.73,.3,2.49,.21,.92,.35,1.96-.19,2.66-.51,.67-1.47,.84-2.74,.89-.14,0-.29,0-.42,0Zm-3.26-6.81c.13,.68,.13,1.4,.13,2.11,0,1.22,0,2.37,.68,3.03,.53,.51,1.45,.73,2.83,.67,1.14-.04,1.75-.2,1.99-.5,.22-.29,.22-.87,0-1.83-.19-.83-.25-1.75-.32-2.64-.21-2.82-.39-5.26-3.93-5.44-.56-.03-.96,.07-1.17,.28-.37,.38-.28,1.28-.2,2.14,.07,.74,.14,1.51-.02,2.17Z"/><path class="cls-1" d="M1191.51,238.49c-3.65,0-3.74-2.33-3.82-4.2-.03-.77-.06-1.49-.29-2.07l-.06-.17,.06-.17c.15-.46,.16-1.17,.16-1.85,0-1.19,.02-2.32,.72-2.84,.36-.27,.84-.32,1.42-.14,2.8,.84,3.13,3.64,3.43,6.11,.11,.94,.22,1.83,.44,2.63,.16,.59,.33,1.44-.12,2.04-.44,.59-1.26,.66-1.92,.67h-.03Zm-3.11-6.46c.23,.7,.26,1.47,.29,2.23,.08,1.88,.13,3.24,2.82,3.24h.03c.61,0,.99-.09,1.13-.27,.09-.12,.16-.43-.04-1.17-.24-.87-.36-1.84-.47-2.78-.28-2.38-.55-4.62-2.72-5.27-.18-.05-.42-.1-.54,0-.31,.23-.31,1.27-.32,2.04,0,.7,0,1.41-.16,1.99Z"/><path class="cls-1" d="M1195.78,326.85c-.23,0-.5-.07-.81-.24-.62-.34-1.02-.85-1.1-1.39-.06-.45,.09-.89,.45-1.25,1.54-1.55,3.12-3.01,4.79-4.55,.63-.58,1.26-1.17,1.89-1.76l.27-.25,.32,.19c.31,.18,.61,.32,.88,.45,.62,.29,1.15,.55,1.46,1.03,.44,.69,.37,1.26,.23,1.62-.23,.59-.83,1.06-1.6,1.27-1.58,.42-2.68,1.48-3.85,2.59-.46,.44-.94,.9-1.44,1.31-.12,.1-.23,.21-.33,.32-.26,.28-.62,.66-1.17,.66Zm5.64-8.21c-.55,.51-1.09,1.01-1.63,1.51-1.66,1.54-3.23,2.99-4.76,4.53-.2,.2-.17,.35-.17,.4,.03,.22,.26,.47,.59,.66,.36,.2,.41,.14,.76-.23,.13-.14,.27-.29,.43-.41,.48-.39,.94-.83,1.38-1.25,1.21-1.15,2.46-2.35,4.28-2.84,.46-.12,.81-.38,.92-.66,.08-.21,.03-.45-.14-.72-.16-.25-.57-.44-1.05-.67-.2-.09-.41-.2-.63-.31Z"/><path class="cls-1" d="M1140.69,269.81s-.1,0-.15,0c-2.32-.06-2.4-1.86-2.46-3.05v-.25c-.06-.87-.21-3.53,2.64-3.8h.03s.03,0,.03,0c.8,.02,1.38,.23,1.77,.64,.57,.61,.54,1.47,.5,2.22,0,.19-.02,.37-.01,.55,0,.18,.01,.37,.03,.56,.05,.87,.11,1.85-.53,2.51-.41,.42-1.02,.63-1.86,.63Zm.11-6.11c-1.34,.14-1.83,.91-1.72,2.75v.26c.08,1.35,.17,2.06,1.5,2.1,.6,.01,1.04-.09,1.26-.32,.33-.34,.29-1.06,.25-1.75-.01-.21-.02-.41-.03-.61,0-.19,0-.4,.01-.61,.02-.59,.05-1.19-.24-1.5-.19-.2-.53-.31-1.03-.33Z"/><path class="cls-1" d="M1023.2,169.36c-1.45,0-1.88-1.32-2.17-2.2l-.03-.11v-.11c.2-1.49,1.27-2.32,2.94-2.26,.63,.02,1.19,.26,1.53,.65,.21,.24,.43,.66,.35,1.31-.21,1.69-1.11,2.66-2.52,2.72-.03,0-.07,0-.1,0Zm-1.18-2.4c.34,1.01,.59,1.42,1.24,1.4,.33-.01,1.34-.06,1.57-1.84,.03-.23,0-.41-.12-.54-.18-.21-.53-.29-.8-.3-1.56-.08-1.82,.85-1.89,1.28Z"/><path class="cls-1" d="M1134.47,250.59c-.14,0-.28-.02-.44-.07-.78-.24-1.38-.89-2.01-1.58-.29-.31-.59-.64-.94-.96l-.55-.51,.68-.31c.36-.16,.68-.35,.99-.52,.67-.38,1.31-.73,2-.74,.68,.03,1.1,.18,1.37,.54,.44,.61,.17,1.46-.06,2.14-.04,.14-.05,.35-.06,.54-.02,.48-.04,1.01-.45,1.31-.15,.11-.33,.16-.53,.16Zm-2.2-2.85c.17,.17,.33,.35,.48,.52,.57,.61,1.06,1.14,1.58,1.31,.03,0,.06,.02,.08,.02,.03-.12,.04-.35,.04-.5,0-.27,.02-.55,.1-.79,.14-.42,.35-1.07,.21-1.27-.05-.07-.23-.15-.56-.13-.43,0-.94,.29-1.52,.61-.14,.08-.28,.15-.42,.23Z"/><path class="cls-1" d="M1023.73,179.47l-.6-1.19c-1.7-3.39-1.69-5.31,.06-7.88l.41-.6,.42,.59c1.6,2.28,1.1,4.03,.41,6.45-.12,.42-.24,.86-.37,1.34l-.33,1.29Zm-.13-7.84c-.85,1.46-1.04,2.76-.14,4.97,0,0,0-.02,0-.03,.6-2.1,.96-3.38,.13-4.95Z"/><path class="cls-1" d="M1284.19,252.48l-.04-.76c-.11-2.29,.74-3.58,2.59-3.96,.45-.09,.94,.27,1.19,.5,.38,.33,.56,.65,.54,.95-.12,1.61-1.31,2.05-2.47,2.47-.36,.13-.75,.28-1.13,.46l-.68,.33Zm2.68-3.73c-.76,.17-1.59,.57-1.71,2.18,.17-.07,.34-.13,.5-.19,1.14-.42,1.71-.67,1.81-1.53-.11-.16-.46-.43-.6-.46Z"/><path class="cls-1" d="M1103.05,250.87c-.07,0-.14,0-.22,0-1.46-.11-1.57-1.57-1.64-2.36v-.06s0-.06,0-.06c.02-.11,.02-.24,.03-.38,.02-.49,.05-1.1,.52-1.51,.31-.27,.75-.39,1.31-.34,1.07,.09,1.71,.96,1.63,2.23,0,.12,0,.24-.01,.37-.01,.58-.02,1.29-.52,1.74-.27,.25-.64,.37-1.11,.37Zm-.85-2.39c.1,1.15,.3,1.36,.71,1.39,.19,.01,.45,0,.58-.11,.18-.16,.19-.62,.19-1.02,0-.14,0-.28,.01-.42,.03-.41-.03-1.11-.71-1.17-.27-.02-.48,.01-.57,.09-.15,.13-.17,.49-.18,.81,0,.15-.01,.29-.03,.42Z"/><path class="cls-1" d="M1057.83,288.31l.6-2.8c.1-.47-.21-.94-.56-1.49-.57-.88-1.35-2.08-.13-3.58l.4-.48,.38,.49c1.22,1.55,2.16,3.29,.82,5.43l-1.52,2.43Zm.34-6.66c-.22,.6,.07,1.1,.54,1.82,.1,.15,.19,.3,.29,.45,.05-.76-.27-1.48-.83-2.28Z"/><path class="cls-1" d="M1083.01,254.48c-.31,0-.6-.08-.85-.25-.29-.19-.64-.59-.7-1.36h0c-.07-1.31,.4-2.06,1.37-2.24,.49-.09,.9,0,1.22,.25,.51,.42,.58,1.14,.6,1.65,.01,.6-.39,1.63-1.03,1.84-.21,.07-.41,.1-.61,.1Zm-.55-1.67c.01,.2,.07,.47,.26,.59,.14,.1,.35,.1,.59,.03,.11-.07,.35-.57,.34-.87-.01-.63-.15-.83-.23-.9-.08-.06-.21-.08-.4-.04-.31,.06-.6,.2-.56,1.19Z"/><path class="cls-1" d="M1734.14,279.88h-.23s-.18-.18-.18-.18c-1.42-1.67-1.07-3.48-.76-5.07,.12-.62,.24-1.22,.26-1.8l.04-1.14,.81,.81c1.28,1.28,1.19,2.81,1.1,4.16-.04,.7-.08,1.36,.05,1.98l.04,.17-.14,.29c-.07,.15-.14,.32-.28,.47-.17,.19-.5,.31-.7,.31Zm-.09-5.59c-.03,.18-.07,.36-.1,.54-.28,1.42-.52,2.67,.26,3.86h0c-.12-.71-.08-1.41-.03-2.09,.05-.84,.1-1.61-.13-2.31Z"/><path class="cls-1" d="M1189.84,317.28l.09-.88c.4-4.05,3.15-4.91,5.7-5.4,.6-.12,1.29,.12,1.72,.59,.36,.39,.48,.9,.35,1.39-.68,2.38-2.53,2.76-4.33,3.13-.9,.18-1.83,.37-2.73,.8l-.8,.38Zm6.1-5.31s-.08,0-.12,.01c-2.18,.42-4.18,1.03-4.77,3.67,.73-.25,1.45-.4,2.11-.53,1.77-.36,3.05-.62,3.56-2.42,.02-.06,.07-.24-.12-.44-.17-.18-.44-.29-.67-.29Z"/></g></g></g></svg>